<svg width="294" height="48" viewBox="0 0 294 48" fill="none" xmlns="http://www.w3.org/2000/svg">
<path d="M0 24C0 12.6863 0 7.02944 3.51472 3.51472C7.02944 0 12.6863 0 24 0H270C281.314 0 286.971 0 290.485 3.51472C294 7.02944 294 12.6863 294 24C294 35.3137 294 40.9706 290.485 44.4853C286.971 48 281.314 48 270 48H24C12.6863 48 7.02944 48 3.51472 44.4853C0 40.9706 0 35.3137 0 24Z" fill="#457B9D"/>
<path d="M29.5462 18.344V30H28.1382C27.9302 30 27.7542 29.968 27.6102 29.904C27.4715 29.8347 27.3329 29.7173 27.1942 29.552L21.6982 22.6C21.7195 22.808 21.7329 23.0107 21.7382 23.208C21.7489 23.4 21.7542 23.5813 21.7542 23.752V30H19.3702V18.344H20.7942C20.9115 18.344 21.0102 18.3493 21.0902 18.36C21.1702 18.3707 21.2422 18.392 21.3062 18.424C21.3702 18.4507 21.4315 18.4907 21.4902 18.544C21.5489 18.5973 21.6155 18.6693 21.6902 18.76L27.2342 25.76C27.2075 25.536 27.1889 25.32 27.1782 25.112C27.1675 24.8987 27.1622 24.6987 27.1622 24.512V18.344H29.5462ZM36.4297 24.856C36.4297 24.6587 36.403 24.4667 36.3497 24.28C36.3017 24.0933 36.219 23.928 36.1017 23.784C35.9897 23.6347 35.8404 23.5147 35.6537 23.424C35.467 23.3333 35.2404 23.288 34.9737 23.288C34.5044 23.288 34.1364 23.424 33.8697 23.696C33.603 23.9627 33.427 24.3493 33.3417 24.856H36.4297ZM33.3097 26.296C33.3897 26.9893 33.6004 27.4933 33.9417 27.808C34.283 28.1173 34.723 28.272 35.2617 28.272C35.5497 28.272 35.7977 28.2373 36.0057 28.168C36.2137 28.0987 36.3977 28.0213 36.5577 27.936C36.723 27.8507 36.8724 27.7733 37.0057 27.704C37.1444 27.6347 37.2884 27.6 37.4377 27.6C37.635 27.6 37.7844 27.672 37.8857 27.816L38.6057 28.704C38.3497 28.9973 38.0724 29.2373 37.7737 29.424C37.4804 29.6053 37.1764 29.7493 36.8617 29.856C36.5524 29.9573 36.2404 30.0267 35.9257 30.064C35.6164 30.1067 35.3204 30.128 35.0377 30.128C34.4564 30.128 33.9097 30.0347 33.3977 29.848C32.891 29.656 32.4457 29.3733 32.0617 29C31.683 28.6267 31.3817 28.1627 31.1577 27.608C30.939 27.0533 30.8297 26.408 30.8297 25.672C30.8297 25.1173 30.923 24.592 31.1097 24.096C31.3017 23.6 31.5737 23.1653 31.9257 22.792C32.283 22.4187 32.7124 22.1227 33.2137 21.904C33.7204 21.6853 34.291 21.576 34.9257 21.576C35.475 21.576 35.9764 21.6613 36.4297 21.832C36.8884 22.0027 37.2804 22.2507 37.6057 22.576C37.9364 22.9013 38.1924 23.3013 38.3737 23.776C38.5604 24.2453 38.6537 24.7787 38.6537 25.376C38.6537 25.5627 38.6457 25.7147 38.6297 25.832C38.6137 25.9493 38.5844 26.0427 38.5417 26.112C38.499 26.1813 38.4404 26.2293 38.3657 26.256C38.2964 26.2827 38.2057 26.296 38.0937 26.296H33.3097ZM47.6901 30H45.3061C45.1301 30 44.9861 29.9573 44.8741 29.872C44.7674 29.7867 44.6821 29.6853 44.6181 29.568L43.1381 27.024C43.1114 27.1147 43.0794 27.2 43.0421 27.28C43.0047 27.36 42.9647 27.4347 42.9221 27.504L41.7061 29.568C41.6314 29.6747 41.5434 29.7733 41.4421 29.864C41.3407 29.9547 41.2101 30 41.0501 30H38.8421L41.6261 25.712L38.9541 21.704H41.3381C41.5141 21.704 41.6421 21.728 41.7221 21.776C41.8074 21.8187 41.8821 21.8933 41.9461 22L43.4261 24.456C43.4581 24.36 43.4981 24.2667 43.5461 24.176C43.5941 24.08 43.6474 23.984 43.7061 23.888L44.7621 22.04C44.8367 21.9227 44.9141 21.8373 44.9941 21.784C45.0794 21.7307 45.1834 21.704 45.3061 21.704H47.5781L44.9061 25.6L47.6901 30ZM51.4252 30.128C51.0305 30.128 50.6812 30.072 50.3772 29.96C50.0785 29.8427 49.8252 29.68 49.6172 29.472C49.4145 29.2587 49.2599 29.0027 49.1532 28.704C49.0465 28.4053 48.9932 28.072 48.9932 27.704V23.416H48.2892C48.1612 23.416 48.0519 23.376 47.9612 23.296C47.8705 23.2107 47.8252 23.088 47.8252 22.928V21.96L49.1452 21.704L49.6332 19.68C49.6972 19.424 49.8785 19.296 50.1772 19.296H51.4732V21.72H53.5292V23.416H51.4732V27.536C51.4732 27.728 51.5185 27.888 51.6092 28.016C51.7052 28.1387 51.8412 28.2 52.0172 28.2C52.1079 28.2 52.1825 28.192 52.2412 28.176C52.3052 28.1547 52.3585 28.1333 52.4012 28.112C52.4492 28.0853 52.4919 28.064 52.5292 28.048C52.5719 28.0267 52.6199 28.016 52.6732 28.016C52.7479 28.016 52.8065 28.0347 52.8492 28.072C52.8972 28.104 52.9452 28.1573 52.9932 28.232L53.7452 29.408C53.4252 29.648 53.0652 29.8293 52.6652 29.952C52.2652 30.0693 51.8519 30.128 51.4252 30.128Z" fill="#F9FAFB"/>
<path d="M265.5 31.5L273 24M273 24L265.5 16.5M273 24H255" stroke="#FEFFFD" stroke-width="2" stroke-linecap="round" stroke-linejoin="round"/>
</svg>
