<svg width="96" height="96" viewBox="0 0 96 96" fill="none" xmlns="http://www.w3.org/2000/svg">
<path d="M41.3568 15.6232C43.0764 8.01034 53.9236 8.01034 55.6432 15.6232C56.7577 20.5571 62.4196 22.9023 66.6964 20.2016C73.2955 16.0344 80.9656 23.7045 76.7984 30.3036C74.0977 34.5804 76.4429 40.2423 81.3768 41.3568C88.9897 43.0764 88.9897 53.9236 81.3768 55.6432C76.4429 56.7577 74.0977 62.4196 76.7984 66.6964C80.9656 73.2955 73.2955 80.9656 66.6964 76.7984C62.4196 74.0977 56.7577 76.4429 55.6432 81.3768C53.9236 88.9897 43.0764 88.9897 41.3568 81.3768C40.2423 76.4429 34.5804 74.0977 30.3036 76.7984C23.7045 80.9656 16.0344 73.2955 20.2016 66.6964C22.9023 62.4196 20.5571 56.7577 15.6232 55.6432C8.01034 53.9236 8.01034 43.0764 15.6232 41.3568C20.5571 40.2423 22.9023 34.5804 20.2016 30.3036C16.0344 23.7045 23.7045 16.0344 30.3036 20.2016C34.5804 22.9023 40.2423 20.5571 41.3568 15.6232Z" fill="#A8DADB"/>
<g clip-path="url(#clip0_979_19223)">
<g style="mix-blend-mode:multiply">
<path d="M47.1639 68C54.9343 68 61.2334 66.0567 61.2334 63.6595C61.2334 61.2623 54.9343 59.319 47.1639 59.319C39.3936 59.319 33.0945 61.2623 33.0945 63.6595C33.0945 66.0567 39.3936 68 47.1639 68Z" fill="#BAB2AE"/>
</g>
<path d="M58.2598 45.3441C56.0693 43.0457 51.9357 40.9451 48.2834 38.4623C48.252 38.4308 48.2385 38.3948 48.243 38.3499C48.1575 38.3499 48.117 38.5388 48.072 38.7322C48.045 38.8491 48.0495 38.9706 48.0855 39.0875L48.117 39.2C48.153 39.3214 48.2115 39.4338 48.2879 39.5283C50.4514 42.1551 56.2807 43.8598 57.6886 46.7474L58.804 46.4776C58.7141 46.1042 58.5702 45.6769 58.2553 45.3441H58.2598Z" fill="#FFBF68"/>
<g style="mix-blend-mode:multiply">
<path d="M57.6936 46.7519L58.809 46.482C58.7191 46.1087 58.5752 45.6814 58.2603 45.3485C58.1389 45.2226 58.0129 45.0966 57.8825 44.9707C56.9109 44.6154 55.9844 44.323 55.1882 44.233C56.3082 44.9977 57.2393 45.8118 57.6981 46.7519H57.6936Z" fill="#BAB2AE"/>
</g>
<g style="mix-blend-mode:multiply">
<path d="M49.5384 39.2944C49.1156 39.0246 48.6972 38.7457 48.2834 38.4668C48.252 38.4353 48.2385 38.3993 48.243 38.3544C48.1575 38.3544 48.117 38.5433 48.072 38.7367C48.045 38.8536 48.0495 38.9751 48.0855 39.092L48.117 39.2045C48.153 39.3259 48.2115 39.4384 48.2879 39.5328C48.9266 40.3065 49.8847 41.0036 50.9507 41.6693L49.5339 39.2899L49.5384 39.2944Z" fill="#BAB2AE"/>
</g>
<path d="M48.2299 58.2396C48.2524 58.7613 48.2479 59.2426 48.1624 59.5979C48.095 59.8858 47.906 60.1197 47.6452 60.2591C46.3228 60.9518 44.5191 60.1692 43.6645 61.9368C43.5431 62.1887 43.7095 62.4856 43.9884 62.5081C44.3707 62.5396 44.807 62.4586 45.1668 62.5036C45.4457 62.5396 45.6751 62.7465 45.7381 63.0208C45.963 63.9789 46.2328 64.5861 46.5702 64.8515C46.6961 64.9504 46.8715 64.9549 47.0065 64.865C47.969 64.2083 46.6601 63.2547 50.0516 62.2337C50.236 62.1797 50.3709 61.9773 50.3304 61.7929C50.2854 61.5905 50.0965 61.4106 49.9346 61.2262C49.8986 61.1857 49.9256 61.1137 49.9841 61.1137C50.11 61.1137 50.245 61.0732 50.263 61.0193C50.6992 60.439 49.4443 60.2276 49.5388 59.499L49.8042 58.4914L48.2299 58.2441V58.2396Z" fill="#FFBF68"/>
<path d="M44.8071 61.5815C45.2209 61.1902 45.6212 60.9968 46.4309 61.1722" stroke="#F97B31" stroke-width="0.391318" stroke-miterlimit="10" stroke-linecap="round"/>
<path d="M48.1668 60.9023C47.672 60.9608 47.1907 61.0733 47.0828 62.5396" stroke="#F97B31" stroke-width="0.391318" stroke-miterlimit="10" stroke-linecap="round"/>
<path d="M48.8057 60.691C49.1655 60.7944 49.5388 60.8799 49.6378 61.2892" stroke="#F97B31" stroke-width="0.391318" stroke-miterlimit="10" stroke-linecap="round"/>
<path d="M41.6227 37.2028C41.4877 36.825 41.1684 36.5461 40.7816 36.4382C38.4291 35.7905 38.0423 33.1997 38.6091 30.8833C38.9734 28.4814 44.3034 25.5308 47.1326 29.6329C47.9332 30.7978 48.2841 32.2147 48.1896 33.6225C47.9602 37.0589 47.8927 40.2929 48.446 42.7533C50.0787 43.5359 51.8419 42.1056 54.4507 43.8462C54.7116 44.0217 54.9904 44.1746 55.2783 44.296C57.8061 45.3441 59.9247 47.9753 61.0356 49.707C61.2425 50.0309 61.5889 50.2513 61.9757 50.2828C62.457 50.3232 63.0237 50.2513 63.6444 50.1028C64.1077 49.9949 64.535 50.3907 64.4585 50.8585C64.1797 52.5452 62.8033 54.3309 58.6068 57.1421C56.1464 58.7883 53.2453 59.3865 49.404 58.7433C43.5972 58.0282 34.462 53.6427 40.9615 39.9466C41.1234 39.6047 41.3168 39.2764 41.4967 38.9435C41.7936 38.4038 41.8476 37.828 41.6272 37.1983L41.6227 37.2028Z" fill="white"/>
<path d="M56.7532 57.4929L57.5448 57.2185C57.7518 57.1465 57.9632 57.304 57.9542 57.5244C57.9182 58.8647 57.0501 59.9982 56.9691 61.3836C56.9601 61.5185 56.9691 61.6534 56.9691 61.7884C57.0771 64.0913 56.8612 65.4632 56.3889 66.0884C56.164 66.3807 55.7592 66.3762 55.5208 66.0929C54.8371 65.2743 53.9645 64.8425 52.7996 65.0179C52.4532 65.0719 52.1429 64.793 52.1519 64.4421C52.1698 63.5785 52.0124 62.8094 51.6526 62.1437L54.0185 61.9098C54.2209 61.8918 54.4098 61.8154 54.5717 61.6939L55.3948 61.0687C55.5703 60.9383 55.7052 60.7584 55.7907 60.5605C56.1775 59.6474 56.5013 58.7478 56.4743 57.9022C56.4698 57.7178 56.5823 57.5513 56.7532 57.4929Z" fill="#FFBF68"/>
<path d="M52.6873 62.5396C53.182 62.3912 53.6813 62.3102 54.1806 62.3687" stroke="#F97B31" stroke-width="0.391318" stroke-miterlimit="10" stroke-linecap="round"/>
<path d="M55.9752 62.1573C55.1476 62.6836 54.2435 62.931 53.7622 63.889" stroke="#F97B31" stroke-width="0.391318" stroke-miterlimit="10" stroke-linecap="round"/>
<path d="M56.1733 64.0463C56.0924 64.7525 55.9979 65.3912 55.791 65.5936" stroke="#F97B31" stroke-width="0.391318" stroke-miterlimit="10" stroke-linecap="round"/>
<path d="M38.5685 32.3317C38.5955 32.3317 38.6225 32.3317 38.654 32.3362C38.8924 32.3497 39.1353 32.3002 39.3467 32.1788C39.4141 32.1383 39.4906 32.1023 39.5671 32.0753C39.8054 31.9854 40.0753 32.0888 40.2193 32.3002C40.6556 32.9614 41.0154 33.6451 41.3212 34.3423C41.4787 34.7021 41.3572 35.1294 41.0289 35.3498C39.7515 36.1909 37.5295 36.6047 35.9238 36.2449C35.8203 36.2224 35.7483 36.1324 35.7393 36.029C35.6899 35.2913 36.4455 34.4907 38.0827 33.4742C38.1052 33.2088 38.1322 32.9389 38.1637 32.6691C38.1862 32.4667 38.3661 32.3182 38.5685 32.3272V32.3317Z" fill="#FFBF68"/>
<path d="M47.5328 29.1382C47.6812 29.5655 48.5988 31.3737 48.7518 31.9134C48.7787 32.0754 48.8282 32.2868 48.9272 32.6376C49.3365 32.2643 48.9721 31.9 49.3005 31.5446C49.5164 31.5806 49.6828 31.5356 49.8088 31.4142C49.6648 31.0858 49.5164 30.762 49.3725 30.4381L48.113 28.8864L47.5283 29.1382H47.5328Z" fill="#FFBF68"/>
<path d="M48.1132 28.7423C49.1612 29.1651 49.8943 29.2326 50.4881 29.1516C50.2632 29.417 50.0428 29.6599 49.8314 29.8308C49.8808 30.0692 49.9303 30.2941 49.9708 30.4965C49.0802 30.4515 48.2346 30.2581 47.7039 28.9852L48.1132 28.7423Z" fill="#F97B31"/>
<path d="M40.9073 26.8622C40.8398 27.348 40.5384 27.7213 40.5564 28.0047C40.6419 29.6959 45.3107 30.8204 47.1234 30.2222C47.4292 30.1187 47.6811 29.8983 47.8251 29.6105C47.9555 29.3451 48.05 29.1112 48.1174 28.8998C44.7395 28.8953 41.8878 28.4455 40.9073 26.8622Z" fill="#F97B31"/>
<path d="M40.3181 25.5713C40.606 24.8651 44.8295 24.8201 45.5222 25.4049C45.5762 25.4498 45.6437 25.4813 45.7111 25.4948C46.6332 25.7107 49.5074 27.6403 49.179 28.0271C49.17 28.0361 49.161 28.0496 49.1565 28.0586C48.9991 28.3465 48.8372 28.5669 48.6708 28.7153C48.5808 28.7963 48.4684 28.8503 48.3469 28.8817C46.2734 29.3675 45.0454 28.7243 43.4442 28.6209C41.8609 28.3915 41.4561 27.7798 40.9074 26.9162C40.8534 26.8307 40.8309 26.7272 40.8444 26.6238L40.8849 26.3584C40.4261 26.228 40.1202 26.0211 40.3136 25.5713H40.3181Z" fill="white"/>
<path d="M40.988 26.3224C43.6238 27.0241 47.1457 28.8413 48.63 28.315" stroke="#FFBF68" stroke-width="0.197908" stroke-miterlimit="10" stroke-linecap="round"/>
<path d="M45.0276 28.2566C46.2285 28.7963 47.308 29.1787 47.9692 28.9808" stroke="#FFBF68" stroke-width="0.197908" stroke-miterlimit="10" stroke-linecap="round"/>
<path d="M42.0138 27.6359C42.0138 27.6359 41.9733 27.6449 41.9553 27.6494C41.9553 27.6404 41.9553 27.6359 41.9598 27.6269C41.9688 27.5909 41.9823 27.5594 41.9958 27.5279C42.0048 27.5099 42.0138 27.4919 42.0273 27.4785C42.0768 27.5279 42.1127 27.5864 42.1442 27.6494C42.1217 27.6449 42.0993 27.6404 42.0768 27.6359C42.0948 27.6809 42.1172 27.7213 42.1487 27.7618C42.1757 27.7888 42.2027 27.8158 42.2387 27.8293C42.2477 27.8293 42.2567 27.8383 42.2702 27.8383C42.2882 27.8383 42.3062 27.8293 42.3062 27.8113C42.3062 27.7978 42.3062 27.7798 42.3062 27.7663C42.3062 27.6449 42.3107 27.5234 42.3152 27.3975C42.3152 27.3975 42.3152 27.3975 42.3152 27.393C42.3152 27.393 42.3152 27.393 42.3107 27.393C42.2792 27.384 42.2432 27.3795 42.2117 27.3705H42.2072C42.1937 27.3885 42.1667 27.393 42.1442 27.3795C42.1217 27.366 42.1038 27.339 42.1083 27.3165C42.1083 27.2895 42.1307 27.276 42.1532 27.276C42.1757 27.276 42.1982 27.294 42.2072 27.3165C42.2072 27.3165 42.2072 27.3165 42.2117 27.321C42.2432 27.33 42.2792 27.3345 42.3107 27.3435C42.3107 27.3435 42.3107 27.3435 42.3152 27.3435C42.3152 27.3165 42.3152 27.285 42.3152 27.2581C42.3152 27.2581 42.3152 27.2536 42.3152 27.2491C42.2837 27.2266 42.2657 27.1906 42.2702 27.1546C42.2702 27.1186 42.2972 27.0961 42.3331 27.0961C42.3736 27.0961 42.4141 27.1276 42.4276 27.1681C42.4411 27.2131 42.4276 27.2536 42.3871 27.2626C42.3826 27.2626 42.3826 27.2626 42.3826 27.2715C42.3826 27.2985 42.3826 27.3255 42.3826 27.357C42.3826 27.357 42.3826 27.357 42.3826 27.3615C42.3826 27.3615 42.3826 27.3615 42.3871 27.3615C42.4231 27.3705 42.4546 27.375 42.4906 27.384C42.4906 27.384 42.4906 27.384 42.4951 27.384C42.5086 27.366 42.5311 27.357 42.558 27.3705C42.585 27.384 42.5985 27.411 42.5985 27.438C42.5985 27.465 42.5805 27.4785 42.5535 27.4785C42.5311 27.4785 42.5086 27.4605 42.4951 27.438C42.4951 27.438 42.4951 27.438 42.4906 27.4335C42.4546 27.4245 42.4231 27.42 42.3871 27.411C42.3871 27.411 42.3871 27.411 42.3871 27.4155C42.3871 27.5549 42.3871 27.6899 42.3826 27.8293C42.3826 27.8518 42.4006 27.8698 42.4231 27.8788C42.4636 27.8878 42.4996 27.8833 42.5311 27.8698C42.567 27.8518 42.5895 27.8248 42.6075 27.7933C42.612 27.7843 42.6165 27.7753 42.621 27.7663C42.5985 27.7618 42.576 27.7528 42.5535 27.7483C42.5535 27.7258 42.6435 27.6404 42.675 27.6314C42.6795 27.6404 42.684 27.6494 42.6885 27.6584C42.7065 27.6944 42.7155 27.7258 42.7245 27.7618C42.729 27.7888 42.7335 27.8113 42.7425 27.8383C42.7425 27.8383 42.7425 27.8383 42.7425 27.8473C42.72 27.8338 42.702 27.8158 42.684 27.8023C42.684 27.8113 42.6795 27.8203 42.675 27.8338C42.648 27.9058 42.5985 27.9552 42.5221 27.9867C42.4951 27.9957 42.4681 28.0002 42.4366 28.0047C42.4051 28.0092 42.3781 28.0182 42.3511 28.0317C42.3466 28.0317 42.3421 28.0317 42.3376 28.0317C42.3062 27.9957 42.2657 27.9687 42.2252 27.9417C42.1397 27.8833 42.0813 27.8113 42.0453 27.7213C42.0363 27.6989 42.0273 27.6719 42.0228 27.6494L42.0138 27.6359ZM42.3871 27.1951C42.3871 27.1726 42.3691 27.1501 42.3466 27.1456C42.3242 27.1411 42.3062 27.1546 42.3062 27.1771C42.3062 27.1996 42.3242 27.2221 42.3466 27.2266C42.3691 27.2311 42.3871 27.2176 42.3871 27.1951Z" fill="#FFBF68"/>
<path d="M42.3871 27.1951C42.3871 27.2176 42.3691 27.2311 42.3466 27.2266C42.3241 27.2221 42.3062 27.1996 42.3062 27.1771C42.3062 27.1546 42.3241 27.1411 42.3466 27.1456C42.3691 27.1501 42.3871 27.1726 42.3871 27.1951Z" fill="white"/>
<path d="M39.793 33.1209C39.861 32.8846 39.8097 32.6623 39.6784 32.6245C39.5471 32.5867 39.3856 32.7477 39.3175 32.984C39.2495 33.2203 39.3008 33.4426 39.4321 33.4804C39.5634 33.5182 39.7249 33.3572 39.793 33.1209Z" fill="#F97B31"/>
<path d="M40.1562 41.8627C39.8684 43.329 39.9403 43.8913 40.5565 44.431C39.2656 45.1732 39.1757 46.0413 39.0947 46.9139C40.4846 46.608 41.0153 45.9873 41.5596 45.3666C41.4246 46.7789 42.3737 47.1523 42.8325 48.1238C43.2463 47.6515 43.7096 46.9453 43.2778 44.9033C44.4472 45.0157 45.2704 44.458 45.8596 43.7159C44.5687 43.1221 43.1383 43.1221 41.5866 43.6079C41.2042 42.7803 40.75 42.1506 40.1607 41.8582L40.1562 41.8627Z" fill="#F97B31"/>
<path d="M41.8024 44.314C42.0061 44.314 42.1713 44.159 42.1713 43.9677C42.1713 43.7764 42.0061 43.6213 41.8024 43.6213C41.5987 43.6213 41.4336 43.7764 41.4336 43.9677C41.4336 44.159 41.5987 44.314 41.8024 44.314Z" stroke="#E53945" stroke-width="0.197908" stroke-miterlimit="10"/>
<path d="M41.4693 44.1116C41.0195 44.3725 40.6552 44.8043 40.3403 45.3351" stroke="#E53945" stroke-width="0.197908" stroke-miterlimit="10" stroke-linecap="round"/>
<path d="M41.5503 44.2197C41.3794 44.3772 41.2579 44.5661 41.2534 44.8359" stroke="#E53945" stroke-width="0.197908" stroke-miterlimit="10" stroke-linecap="round"/>
<path d="M41.8022 44.3141C41.8652 44.6244 41.8832 44.8763 41.8022 44.9933" stroke="#E53945" stroke-width="0.197908" stroke-miterlimit="10" stroke-linecap="round"/>
<path d="M42.0498 44.2197C42.2207 44.6785 42.2792 45.1058 42.1668 45.4746" stroke="#E53945" stroke-width="0.197908" stroke-miterlimit="10" stroke-linecap="round"/>
<path d="M42.1934 43.9993C43.0525 44.1612 43.8756 44.3141 45.162 44.2062" stroke="#E53945" stroke-width="0.197908" stroke-miterlimit="10" stroke-linecap="round"/>
<path d="M40.1965 42.6993C40.5249 43.0997 40.9477 43.4505 41.5369 43.7204" stroke="#E53945" stroke-width="0.197908" stroke-miterlimit="10" stroke-linecap="round"/>
<path d="M41.4965 38.9481C41.1321 40.266 41.3165 41.6513 41.6089 43.1266C41.6314 43.2391 41.7618 43.2931 41.8563 43.2301C42.2521 42.9557 42.8728 42.6319 44.1007 42.1506C44.537 41.9797 44.9419 41.7323 45.2882 41.4174C46.4172 40.4009 47.4517 39.6363 48.0274 38.0125C48.0274 37.8686 48.0274 37.7247 48.0274 37.5672V37.2254C48.4997 36.987 49.3273 39.3124 50.1369 42.2406C50.1819 42.407 50.1099 42.5869 49.9615 42.6724C45.7245 45.0652 41.2536 44.467 39.8817 42.317C39.7962 42.1866 39.7603 42.0336 39.7738 41.8762C39.9672 40.1445 40.4754 38.9706 41.4965 38.9436V38.9481Z" fill="#F97B31"/>
<g style="mix-blend-mode:multiply">
<path d="M45.0587 41.6064C44.7663 41.8313 44.4425 42.0157 44.1006 42.1506C43.8308 42.2541 43.5924 42.353 43.3765 42.4475C43.7273 42.9603 44.3345 43.5585 45.0722 44.1972C45.7828 44.1477 46.5295 44.0173 47.2896 43.8014C46.5925 43.0592 45.8548 42.326 45.0587 41.6064Z" fill="#BAB2AE"/>
</g>
<path d="M41.5954 43.0772C41.5774 42.9827 41.5594 42.8928 41.5414 42.7983C40.8172 42.2541 40.4124 41.4174 40.0931 40.5718C40.0796 40.5404 40.0571 40.5224 40.0301 40.5134C40.0076 40.5943 39.9851 40.6798 39.9626 40.7697C40.3135 41.6648 40.7633 42.5329 41.5999 43.0727L41.5954 43.0772Z" fill="white"/>
<path d="M49.9166 41.4849C49.9166 41.4849 49.9076 41.4849 49.8986 41.4849C46.2912 43.2436 43.7769 43.7968 42.2116 43.1761C42.1532 43.1536 42.0992 43.1266 42.0407 43.0996C41.9733 43.1401 41.9103 43.1851 41.8518 43.2211C41.9463 43.2706 42.0407 43.3155 42.1397 43.356C42.5715 43.5269 43.0752 43.6124 43.6465 43.6124C45.2072 43.6124 47.2988 42.9692 49.9705 41.6648C49.9525 41.6018 49.9345 41.5389 49.9166 41.4759V41.4849Z" fill="white"/>
<path d="M50.1327 42.245C50.1238 42.2135 50.1148 42.182 50.1058 42.1505C50.1058 42.1505 50.1013 42.1505 50.0968 42.1505C44.3394 44.386 41.5687 44.2465 39.8775 41.6333C39.8595 41.6063 39.837 41.5928 39.8101 41.5928C39.8011 41.6737 39.7876 41.7547 39.7786 41.8357C40.7096 43.221 41.9421 43.8867 43.6513 43.9272C43.7052 43.9272 43.7592 43.9272 43.8177 43.9272C45.3695 43.9272 47.335 43.4324 50.1462 42.3439C50.1462 42.3124 50.1462 42.2765 50.1372 42.245H50.1327Z" fill="white"/>
<path d="M49.3181 43.2301C50.3167 44.3456 51.3242 44.9438 52.6646 45.1327" stroke="#F0FAEF" stroke-width="0.391318" stroke-miterlimit="10" stroke-linecap="round"/>
<path d="M43.7973 32.1337C43.863 31.7342 43.6678 31.3694 43.3614 31.3191C43.055 31.2688 42.7534 31.5518 42.6877 31.9514C42.6221 32.351 42.8172 32.7157 43.1236 32.766C43.4301 32.8164 43.7317 32.5333 43.7973 32.1337Z" fill="#0B1828"/>
<path d="M48.4816 48.7625C48.4816 51.7446 48.1308 53.4313 48.5311 54.5063C48.648 54.8167 48.8909 55.0551 49.1968 55.19C51.6301 56.2425 58.1836 56.3864 61.0488 55.5138C61.9034 55.253 62.5196 54.5063 62.5915 53.6157C62.7265 51.9155 62.0068 49.9904 62.3307 47.9169C62.65 46.2886 61.7774 45.6949 60.3606 45.5735C60.1986 45.56 60.0367 45.5465 59.8793 45.524C55.9571 44.9797 52.5972 44.8628 50.1953 45.4565C49.1608 45.6319 48.4096 46.3696 48.4861 48.7625H48.4816Z" fill="#FFBF68"/>
<path d="M49.0438 47.0532C49.3181 46.0232 49.9074 45.3935 51.6076 45.2001C50.3212 45.6769 49.4216 46.4865 49.4936 48.668H48.9088C48.8684 48.2901 48.8594 47.8583 49.0483 47.0577L49.0438 47.0532Z" fill="#F6F7F9"/>
<path d="M49.7951 47.4175C50.056 46.6214 50.6002 45.9782 51.7202 45.8163C50.7711 46.2571 50.1774 47.1297 50.1414 48.659H49.6916C49.6601 48.3666 49.6511 48.0338 49.7996 47.413L49.7951 47.4175Z" fill="#F6F7F9"/>
<path d="M48.4817 48.7626H51.3064" stroke="white" stroke-width="0.391318" stroke-miterlimit="10"/>
<g style="mix-blend-mode:multiply">
<path d="M49.0079 46.1492C48.9134 46.2796 48.828 46.4325 48.7605 46.608L49.2148 48.8389H50.1953C50.2178 47.5255 49.867 46.8059 49.0124 46.1492H49.0079Z" fill="#BAB2AE"/>
</g>
<path d="M48.6842 48.839H50.2405L50.1865 52.01C49.9166 52.9366 48.8056 52.7252 48.6797 52.01V48.839H48.6842Z" fill="#F97B31"/>
<path d="M52.5971 46.0277C51.4726 47.3546 51.2028 51.5646 51.675 53.3503C51.7965 53.8091 52.1878 54.1644 52.6826 54.2903C54.4457 54.7401 58.6513 54.9695 61.2556 54.8076C62.3576 54.7401 63.2212 53.9035 63.2482 52.8825C63.2886 51.3262 62.7714 49.3246 62.7399 47.9438C62.6724 46.8418 61.9528 46.2346 60.7473 45.9917C60.455 45.9332 60.1536 45.9062 59.8522 45.8972L53.5552 45.6454C53.1908 45.6319 52.822 45.7623 52.5971 46.0322V46.0277Z" fill="#F97B31"/>
<path d="M52.5478 45.8569C51.4728 46.6035 51.212 48.9649 51.6618 49.9679C51.7787 50.2243 52.152 50.4267 52.6243 50.4942C54.311 50.7461 58.3366 50.8765 60.833 50.7821C61.89 50.7416 62.7131 50.2738 62.7401 49.7026C62.7806 48.83 62.2813 47.7055 62.2543 46.9319C62.1914 46.3111 61.4987 45.9738 60.3472 45.8344C60.0638 45.8029 59.776 45.7894 59.4881 45.7804L53.4609 45.6365C53.1101 45.6275 52.7592 45.7039 52.5433 45.8524L52.5478 45.8569Z" fill="#F89C22"/>
<path d="M52.269 46.0277C51.1445 47.3546 50.8746 51.5646 51.3469 53.3503C51.4684 53.8091 51.8597 54.1644 52.3544 54.2903C54.1176 54.7401 58.3232 54.9695 60.9275 54.8076C62.0294 54.7401 62.893 53.9035 62.92 52.8825C62.9605 51.3262 62.4432 49.3246 62.4118 47.9438C62.3443 46.8418 61.6246 46.2346 60.4192 45.9917C60.1268 45.9332 59.8255 45.9062 59.5241 45.8972L53.227 45.6454C52.8627 45.6319 52.4939 45.7623 52.269 46.0322V46.0277Z" stroke="white" stroke-width="0.391318" stroke-miterlimit="10"/>
<path d="M49.7773 47.6065C48.194 44.8538 44.6721 41.8402 41.7125 38.5612C41.69 38.5252 41.6855 38.4848 41.699 38.4443C41.6181 38.4218 41.5326 38.5972 41.4426 38.7771C41.3887 38.8851 41.3662 39.0065 41.3707 39.1235V39.2404C41.3842 39.3663 41.4112 39.4878 41.4651 39.6002C42.9449 42.6633 48.2075 45.6994 48.8957 48.8344H50.0426C50.0426 48.4476 50.0022 47.9978 49.7773 47.602V47.6065Z" fill="#FFBF68"/>
<path d="M56.3666 49.1584C56.2946 49.0055 56.3621 48.8255 56.5105 48.7491C56.9019 48.5467 57.608 48.5557 57.8149 48.875C58.0983 49.4508 58.1118 50.2694 58.0443 51.151C58.0308 51.3624 57.8509 51.5288 57.6395 51.5288H57.3696C57.0233 51.5288 56.7309 51.2634 56.6994 50.9171C56.641 50.2604 56.596 49.6667 56.3666 49.1629V49.1584Z" fill="#E53945"/>
</g>
<path d="M59.6786 42.3529L59.6786 42.353C58.8747 43.228 57.351 44.8861 56.2925 46.0376C55.7679 46.6083 55.293 47.152 54.9513 47.567C54.7797 47.7753 54.646 47.946 54.5573 48.0689C54.5567 48.0697 54.5562 48.0705 54.5556 48.0712C54.5753 48.078 54.5994 48.0853 54.6287 48.0928C54.9408 48.1732 55.5248 48.2069 56.6053 48.2069H58.7368H59.2368V48.7069V52.6258V53.1794H61.5H63.7632V52.6258V48.7069V48.2069H64.2632H66.2499C67.2727 48.2069 67.9071 48.164 68.2768 48.0778C68.3332 48.0647 68.3782 48.0516 68.414 48.0396C68.4139 48.0394 68.4138 48.0393 68.4137 48.0392C68.3083 47.8944 68.1516 47.6994 67.9554 47.4668C67.5647 47.0034 67.0403 46.4182 66.5116 45.8408C65.9839 45.2644 65.4558 44.6998 65.0593 44.2791C64.8612 44.0688 64.6961 43.8946 64.5806 43.7731L64.4466 43.6323L64.4114 43.5955L64.4025 43.5861L64.4002 43.5837L64.3997 43.5832L64.3996 43.583L64.7609 43.2374L64.3995 43.583L64.3911 43.5742L64.3831 43.565L64.3831 43.565L64.383 43.5648L64.3825 43.5643L64.3806 43.5621L64.3728 43.5531L64.3422 43.518L64.2275 43.3867C64.1295 43.2748 63.9918 43.1183 63.833 42.9398C63.5143 42.5815 63.1145 42.1389 62.781 41.7907C62.3944 41.3869 62.1112 41.0919 61.8923 40.8779C61.6865 40.6766 61.5634 40.5733 61.4861 40.5222C61.4616 40.5387 61.4249 40.5643 61.3712 40.6038M59.6786 42.3529L61.3711 40.6038L61.3712 40.6038M59.6786 42.3529C60.0778 41.9183 60.474 41.4991 60.79 41.1742M59.6786 42.3529L60.79 41.1742M61.3712 40.6038C61.3714 40.6036 61.3712 40.6038 61.3706 40.6043M61.3712 40.6038L61.3706 40.6043M63.7632 61.5564H64.2632V61.8518C64.2632 62.4282 64.168 62.692 63.9178 62.8105C63.433 63.0401 59.9078 63.0702 59.2672 62.8504C58.7994 62.6899 58.7368 62.5732 58.7368 61.8625V61.5564H59.2368M63.7632 61.5564V61.0564H61.5H59.2368V61.5564M63.7632 61.5564H61.5H59.2368M63.7632 61.5564V61.8518C63.7632 62.1247 63.7389 62.2641 63.7139 62.3334C63.7096 62.3454 63.7059 62.3533 63.7034 62.358M59.2368 61.5564V61.8625C59.2368 62.0376 59.241 62.1536 59.2506 62.2364C59.2548 62.2727 59.2594 62.2962 59.2629 62.3103M59.2629 62.3103C59.2856 62.3223 59.3345 62.3449 59.4294 62.3775C59.4578 62.3872 59.5398 62.406 59.6929 62.425C59.8367 62.443 60.0169 62.4581 60.2245 62.47C60.6391 62.4937 61.1436 62.5033 61.6467 62.499C62.1499 62.4947 62.6441 62.4765 63.0381 62.446C63.2356 62.4307 63.4017 62.4127 63.5283 62.3931C63.6321 62.377 63.6833 62.3633 63.6996 62.359C63.7012 62.3586 63.7025 62.3583 63.7034 62.358M59.2629 62.3103C59.2661 62.3233 59.2683 62.3285 59.2683 62.3285C59.2682 62.3285 59.2679 62.3277 59.2671 62.3263C59.2577 62.3088 59.2459 62.3002 59.2457 62.3002C59.2456 62.3002 59.2502 62.3036 59.2629 62.3103ZM63.7034 62.358C63.7012 62.3623 63.6999 62.364 63.6999 62.364C63.6999 62.3639 63.7003 62.3634 63.7011 62.3625C63.7021 62.3612 63.7032 62.3602 63.7041 62.3594C63.7041 62.3594 63.7042 62.3593 63.7042 62.3593C63.7059 62.3577 63.7071 62.357 63.7071 62.3569C63.7071 62.3569 63.7062 62.3575 63.7038 62.3586L63.7037 62.3586C63.7062 62.3574 63.7063 62.3573 63.7034 62.358ZM60.79 41.1742C60.9482 41.0117 61.0847 40.8744 61.1906 40.7714M60.79 41.1742L61.1906 40.7714M61.1906 40.7714C61.2437 40.7198 61.2873 40.6785 61.3211 40.6478M61.1906 40.7714L61.3211 40.6478M61.3211 40.6478C61.3521 40.6195 61.3673 40.6071 61.3706 40.6043M61.3211 40.6478L61.3706 40.6043M59.249 55.3044C59.2497 55.2974 59.2503 55.2909 59.251 55.2848C59.3433 55.2745 59.6728 55.2659 60.1761 55.2655C60.6723 55.2652 61.298 55.2725 61.9322 55.2875L63.7632 55.331V55.7229V56.103H61.5H59.2368V55.7248C59.2368 55.5324 59.2403 55.3999 59.249 55.3044ZM59.2368 59.3095V58.8297V58.35H61.5H63.7632V58.8297V59.3095H61.5H59.2368Z" fill="#668942" stroke="#668942"/>
<defs>
<clipPath id="clip0_979_19223">
<rect width="31.3729" height="43" fill="white" transform="translate(33.0945 25)"/>
</clipPath>
</defs>
</svg>
