<svg width="96" height="96" viewBox="0 0 96 96" fill="none" xmlns="http://www.w3.org/2000/svg">
<path d="M41.3568 15.6232C43.0764 8.01034 53.9236 8.01034 55.6432 15.6232C56.7577 20.5571 62.4196 22.9023 66.6964 20.2016C73.2955 16.0344 80.9656 23.7045 76.7984 30.3036C74.0977 34.5804 76.4429 40.2423 81.3768 41.3568C88.9897 43.0764 88.9897 53.9236 81.3768 55.6432C76.4429 56.7577 74.0977 62.4196 76.7984 66.6964C80.9656 73.2955 73.2955 80.9656 66.6964 76.7984C62.4196 74.0977 56.7577 76.4429 55.6432 81.3768C53.9236 88.9897 43.0764 88.9897 41.3568 81.3768C40.2423 76.4429 34.5804 74.0977 30.3036 76.7984C23.7045 80.9656 16.0344 73.2955 20.2016 66.6964C22.9023 62.4196 20.5571 56.7577 15.6232 55.6432C8.01034 53.9236 8.01034 43.0764 15.6232 41.3568C20.5571 40.2423 22.9023 34.5804 20.2016 30.3036C16.0344 23.7045 23.7045 16.0344 30.3036 20.2016C34.5804 22.9023 40.2423 20.5571 41.3568 15.6232Z" fill="#FFBF68"/>
<g style="mix-blend-mode:multiply">
<path d="M48.7876 56.7493C57.7262 55.5058 64.8025 53.2765 64.5929 51.7701C64.3833 50.2636 56.9673 50.0504 48.0287 51.2939C39.0901 52.5374 32.0139 54.7667 32.2235 56.2732C32.433 57.7797 39.8491 57.9929 48.7876 56.7493Z" fill="#BAB2AE"/>
</g>
<path d="M66.6977 42.2168C64.7526 41.8706 62.777 41.1039 60.3169 40.8115C50.2349 40.922 35.9951 44.5082 29.2215 47.6608C29.1618 47.6884 29.1211 47.7452 29.1094 47.8092C29.0192 48.3387 28.8825 48.2703 29.1909 49.0181C29.2171 49.0807 29.2608 49.1345 29.3175 49.1723C29.4368 49.2523 29.5357 49.312 29.6681 49.3455C30.1235 50.6286 32.6505 53.0087 34.146 55.3335C34.2668 55.5212 34.4559 55.655 34.6741 55.703C44.5626 57.846 55.0999 54.5683 63.4665 51.551C63.7109 51.4622 63.8972 51.2644 63.9728 51.0156C64.4631 49.4327 65.9688 46.1899 66.4227 44.1459C66.4926 44.0572 66.6264 43.9932 66.6861 43.8477C67.0832 43.2614 66.9916 42.822 66.6962 42.2154L66.6977 42.2168Z" fill="#457B9D"/>
<path d="M55.0082 51.9031C55.2293 52.002 55.4068 52.1533 55.5392 52.3584C55.6192 52.4835 55.7618 52.5504 55.9058 52.5228C58.4343 52.0252 59.4702 52.2217 59.9604 52.6712C53.0588 55.0513 45.082 57.1171 37.3452 56.1453C37.3496 56.1424 37.351 56.138 37.3554 56.1366C38.349 55.4659 39.4518 54.8752 41.3445 54.8534C41.4434 54.8534 41.474 54.7167 41.3867 54.6701C40.2549 54.0751 41.5846 53.7332 43.4351 53.4466C43.5238 53.4335 43.5398 53.3084 43.4584 53.272C42.4706 52.821 42.0559 52.2857 42.6844 51.5975C42.7848 51.4884 42.8066 51.3211 42.731 51.1931C42.5186 50.8396 42.6306 50.3798 42.8983 49.8692C46.579 49.232 50.5914 48.3751 52.2688 49.0705C52.4143 49.1316 52.5714 49.1636 52.7285 49.152C53.3628 49.1025 53.9244 49.2785 54.2881 49.9201C54.3303 49.9943 54.3812 50.0627 54.4394 50.1223C54.7478 50.4395 54.8555 50.889 54.7711 51.4651C54.7434 51.6528 54.8424 51.8318 55.0111 51.9074L55.0082 51.9031Z" fill="#326CA2"/>
<path d="M40.2769 56.3708C40.6711 56.0536 41.5426 55.6768 43.1967 55.1967C43.2607 55.1778 43.2651 55.0716 43.204 55.0454C42.1172 54.577 42.686 54.238 44.8232 54.0241C44.8625 54.0198 44.8668 53.9558 44.8305 53.9441C43.8208 53.6124 43.9517 53.0611 44.7984 52.3744C44.8828 52.306 44.9003 52.1678 44.8363 52.0747C44.4086 51.4506 43.8819 50.6548 44.8857 50.2402C44.9323 50.2212 44.9803 50.2052 45.0298 50.1907C47.18 49.5709 49.1789 49.1214 50.7661 49.1432C52.6632 49.1869 52.9702 49.683 53.5056 50.115C54.1311 50.7392 54.0395 51.3851 53.6147 52.0398C53.9522 52.1256 53.99 52.3351 54.0249 52.5446C56.5956 52.3773 57.4176 52.6348 57.3958 53.0974C52.0216 55.0527 46.1282 56.5875 40.2783 56.3722L40.2769 56.3708Z" fill="#1D3557"/>
<path d="M65.0831 42.5034C63.6603 41.9681 61.9756 41.5273 60.4175 41.2887C60.3069 41.2712 60.1963 41.2654 60.0858 41.2683C47.5961 41.6073 33.1439 46.1347 30.678 47.5866C41.3637 49.2014 52.6109 48.7097 65.0831 42.5049V42.5034Z" fill="#A6D9DB"/>
<path d="M64.5709 49.3818C64.3236 50.0132 64.1097 50.5791 63.9744 51.017C63.8973 51.2658 63.7111 51.4637 63.4682 51.5524C55.1 54.5697 44.5627 57.846 34.6758 55.7045C34.4576 55.6579 34.2684 55.5241 34.1477 55.3349C33.5381 54.3878 32.7583 53.432 32.0164 52.5446C44.103 55.0803 54.1689 52.2653 64.5709 49.3818Z" fill="#E53945"/>
<path d="M41.3431 54.897C41.442 54.897 41.4725 54.7646 41.3853 54.7195C40.2534 54.1405 41.5831 53.8088 43.4336 53.531C43.4598 53.5266 43.4787 53.512 43.4918 53.4946C47.3966 53.3389 51.1457 52.7308 54.8453 51.9059C54.886 51.9597 54.9413 52.0048 55.0082 52.0325C55.2293 52.1285 55.4068 52.2754 55.5392 52.4748C55.6192 52.5955 55.7618 52.661 55.9058 52.6333C58.4343 52.1503 59.4702 52.3409 59.9604 52.7774C59.959 52.7774 59.9575 52.7774 59.9561 52.7788C59.8557 52.8123 59.7553 52.8457 59.6549 52.8792C59.6389 52.8836 59.6244 52.8894 59.6084 52.8937C59.1981 53.0305 58.7835 53.1643 58.3659 53.2982C58.3398 53.3069 58.3136 53.3142 58.2874 53.3229C58.1928 53.3535 58.0997 53.3826 58.0052 53.4117C57.9862 53.4175 57.9688 53.4233 57.9499 53.4291C57.6487 53.5237 57.3461 53.6168 57.0406 53.7099C57.0144 53.7172 56.9882 53.7259 56.962 53.7332C56.8689 53.7608 56.7773 53.7885 56.6842 53.8176C56.6551 53.8263 56.6274 53.835 56.5983 53.8437C56.2899 53.9354 55.9815 54.0256 55.6702 54.1143C55.6542 54.1187 55.6396 54.1231 55.6236 54.1274C55.529 54.1551 55.4345 54.1813 55.3385 54.2074C55.3079 54.2162 55.2759 54.2249 55.2454 54.2336C55.1508 54.2598 55.0548 54.2875 54.9602 54.3136C54.9413 54.3195 54.9224 54.3238 54.9035 54.3297C54.5907 54.4155 54.2764 54.4999 53.9608 54.5828C53.9346 54.5901 53.9084 54.5959 53.8836 54.6032C53.7862 54.6279 53.6887 54.6541 53.5912 54.6788C53.565 54.6846 53.5403 54.6919 53.5141 54.6977C53.1926 54.7792 52.8682 54.8592 52.5437 54.9378C52.5307 54.9407 52.519 54.9436 52.5059 54.9465C52.4041 54.9712 52.3022 54.9945 52.2019 55.0178C52.1757 55.0236 52.1495 55.0294 52.1233 55.0367C52.02 55.06 51.9182 55.0847 51.8149 55.108C51.8091 55.108 51.8032 55.1109 51.7974 55.1123C51.4628 55.188 51.1253 55.2622 50.7892 55.3335C50.7689 55.3378 50.7485 55.3422 50.7281 55.3466C50.6234 55.3684 50.5172 55.3902 50.4124 55.412C50.3964 55.415 50.379 55.4193 50.363 55.4222C50.024 55.4906 49.6836 55.5561 49.3417 55.6186C49.3344 55.6186 49.3271 55.6215 49.3199 55.623C49.2107 55.6434 49.1016 55.6623 48.9925 55.6812C48.9736 55.6841 48.9562 55.687 48.9372 55.6914C48.4775 55.7714 48.0163 55.847 47.5552 55.9154C47.5406 55.9183 47.5261 55.9198 47.5115 55.9212C47.3995 55.9372 47.2875 55.9532 47.1755 55.9692C47.1682 55.9692 47.1624 55.9707 47.1551 55.9721C46.8016 56.0216 46.448 56.0667 46.0931 56.1074C46.0887 56.1074 46.0843 56.1074 46.08 56.1089C45.9665 56.122 45.8516 56.1351 45.7381 56.1467C45.725 56.1467 45.7119 56.1496 45.6988 56.1511C45.2289 56.202 44.759 56.2442 44.2876 56.2791C44.276 56.2791 44.2643 56.2806 44.2513 56.282C43.7741 56.3169 43.2969 56.3446 42.8197 56.362C42.8153 56.362 42.811 56.362 42.8052 56.362C42.6888 56.3664 42.5738 56.3708 42.4575 56.3737C42.4473 56.3737 42.4356 56.3737 42.4255 56.3737C41.9526 56.3868 41.4798 56.3911 41.007 56.3868C40.9939 56.3868 40.9808 56.3868 40.9677 56.3868C40.4949 56.3809 40.0221 56.3664 39.5493 56.3417C39.5391 56.3417 39.5274 56.3417 39.5173 56.3402C39.4038 56.3344 39.2918 56.3271 39.1783 56.3199C39.1652 56.3199 39.1521 56.3184 39.139 56.3169C38.672 56.2864 38.205 56.2457 37.738 56.1947C37.7177 56.1933 37.6987 56.1904 37.6784 56.1889C37.5678 56.1773 37.4558 56.1642 37.3452 56.1496C37.3496 56.1467 37.351 56.1438 37.3554 56.1409C38.349 55.4891 39.4518 54.9159 41.3445 54.8941L41.3431 54.897Z" fill="#DD1D39"/>
<path d="M43.1967 55.3801C43.2607 55.3641 43.2651 55.2753 43.2039 55.252C42.1172 54.8549 42.686 54.5697 44.8232 54.3879C44.8625 54.385 44.8668 54.3297 44.8304 54.3195C44.1059 54.1187 43.9692 53.822 44.2601 53.4568C47.5684 53.2749 50.769 52.7759 53.926 52.1053C53.878 52.3046 53.7689 52.5068 53.6132 52.709C53.9507 52.7818 53.9886 52.9578 54.0235 53.1353C56.5941 52.9927 57.4161 53.2124 57.3943 53.6037C56.5549 53.8627 55.7038 54.1115 54.8411 54.3486C54.8411 54.3486 54.8382 54.3486 54.8367 54.3486C53.8023 54.6323 52.7534 54.8971 51.6928 55.1371C51.6928 55.1371 51.6899 55.1371 51.6885 55.1371C47.9714 55.9751 44.1147 56.493 40.2754 56.3737C40.6696 56.106 41.5411 55.786 43.1952 55.3801H43.1967Z" fill="#C62636"/>
<path d="M29.3175 49.1738C29.2608 49.1359 29.2171 49.0821 29.1909 49.0196C28.8825 48.2718 29.0192 48.3416 29.1094 47.8106C29.1211 47.7451 29.1618 47.6898 29.2215 47.6622C35.9937 44.5096 50.2349 40.9235 60.3169 40.8129C62.777 41.1053 64.7526 41.872 66.6977 42.2183C66.993 42.8264 67.0847 43.2657 66.6875 43.8506C66.6264 43.996 66.494 44.0601 66.4242 44.1488C51.4657 51.5466 39.9842 51.1116 29.6696 49.3483C29.5357 49.3149 29.4368 49.2552 29.3189 49.1752L29.3175 49.1738Z" fill="#F0FAEF"/>
<path d="M60.525 41.9404C61.7864 42.1339 63.1306 42.4598 64.3527 42.8613C52.605 48.5191 41.9411 49.1316 31.7996 47.748C35.9778 45.9644 48.8894 42.227 60.1933 41.92C60.3039 41.9171 60.4159 41.9229 60.525 41.9404Z" fill="#F1F3B1"/>
<path d="M51.4483 47.2825C50.0356 47.5749 48.639 47.8019 47.254 47.9721L47.1624 47.4396L51.3508 46.7195L51.4468 47.281L51.4483 47.2825Z" fill="#ACCF57"/>
<path d="M49.3335 47.5236C50.4904 47.3248 51.3942 46.9653 51.3521 46.7206C51.3101 46.4759 50.3381 46.4387 49.1812 46.6375C48.0243 46.8363 47.1205 47.1958 47.1626 47.4405C47.2046 47.6852 48.1766 47.7224 49.3335 47.5236Z" fill="#286358"/>
<path d="M51.3509 46.7195C51.3611 46.7777 51.3145 46.8446 51.2258 46.913C50.8723 47.041 50.4082 47.1618 49.8932 47.2491C48.7366 47.4484 47.7648 47.4105 47.7226 47.1661C47.7124 47.1079 47.7589 47.041 47.8477 46.9726C48.2012 46.8446 48.6653 46.7253 49.1803 46.6366C50.3369 46.4373 51.3087 46.4751 51.3509 46.7195Z" fill="#ACCF57"/>
<path d="M48.3815 47.8208C48.0047 47.8761 47.6279 47.9256 47.254 47.9721L47.1624 47.4396L47.7734 47.3349C47.948 47.5371 48.1531 47.6957 48.383 47.8208H48.3815Z" fill="#286358"/>
<path d="M50.2044 47.2651C49.6064 47.4556 48.9707 47.5618 48.2913 47.5677C48.1589 47.5677 48.0396 47.4804 47.9989 47.3553C47.7865 46.7122 47.8592 46.1783 48.479 45.8393C48.7394 45.6968 49.0405 45.64 49.3373 45.6633C49.9585 45.7113 50.4051 46.0008 50.5317 46.7413C50.571 46.9712 50.427 47.1952 50.2044 47.2665V47.2651Z" fill="#3F5E3C"/>
<path d="M49.5412 46.9072C48.9651 47.0061 48.4341 46.7108 48.3555 46.2481C48.3351 46.1274 48.3482 46.0095 48.3861 45.8961C48.4166 45.8772 48.4457 45.8582 48.4792 45.8393C48.7396 45.6968 49.0407 45.64 49.3375 45.6633C49.8118 45.6997 50.1813 45.8786 50.3879 46.2874C50.2628 46.59 49.9471 46.8373 49.5412 46.9072Z" fill="#80AB53"/>
<path d="M47.8943 46.7064C47.8943 46.6948 47.8943 46.6817 47.8958 46.6686C47.8987 46.6278 47.9074 46.5886 47.9162 46.5493C48.1329 46.9581 48.8269 47.2956 49.4088 47.4586C49.0495 47.524 48.6785 47.5633 48.2915 47.5662C48.1591 47.5662 48.0398 47.4789 47.9991 47.3538C47.922 47.1225 47.8856 46.9057 47.8943 46.7064Z" fill="#204942"/>
<path d="M49.7242 46.2997C49.7409 46.1601 49.5961 46.0279 49.4006 46.0045C49.2052 45.981 49.0332 46.0752 49.0164 46.2148C48.9997 46.3544 49.1445 46.4866 49.34 46.51C49.5354 46.5335 49.7075 46.4393 49.7242 46.2997Z" fill="#ACCF57"/>
<path d="M63.4201 42.5107L63.2557 43.3763L61.7514 43.9772L61.5986 42.4292L63.4201 42.5107Z" fill="#204942"/>
<path d="M65.2882 42.905L65.8032 42.3085C65.9618 42.1252 66.0549 41.8924 66.0622 41.6509C66.0767 41.1388 66.0476 40.6485 65.8425 40.2427C65.569 39.5647 64.9899 39.3305 64.3062 39.2519C64.1912 39.2388 64.0749 39.2359 63.9599 39.2446C63.1554 39.3087 62.4105 39.3974 61.9203 39.5909C59.9912 40.2441 59.9926 42.6024 61.8883 42.8366C62.0992 42.8628 62.3131 42.8512 62.5226 42.8177L63.7752 42.6242L63.8566 42.8773C63.8843 42.9617 63.9628 43.0185 64.0516 43.0155L65.1005 42.9923C65.1718 42.9908 65.2402 42.9588 65.2882 42.9035V42.905Z" fill="#80AB53"/>
<path d="M63.8564 42.8773L63.775 42.6242L62.5224 42.8177C62.3129 42.8497 62.099 42.8613 61.8881 42.8366C60.6296 42.6809 60.2063 41.5884 60.6296 40.6806C61.6524 40.746 64.4835 40.5351 65.883 40.3329C66.0503 40.7198 66.0765 41.1752 66.0634 41.6495C66.0561 41.8924 65.963 42.1237 65.8044 42.3071L65.2894 42.9035C65.2429 42.9574 65.1745 42.9894 65.1018 42.9923L64.0528 43.0155C63.9641 43.017 63.8855 42.9617 63.8579 42.8773H63.8564Z" fill="#204942"/>
<path d="M64.914 39.8644C64.8355 39.7916 64.7264 39.764 64.6202 39.7684C64.0833 39.7945 62.5761 39.7858 62.726 39.7785C62.531 39.828 62.4743 39.9211 62.4918 40.0404C62.515 40.2077 62.6692 40.3241 62.838 40.3357C63.3428 40.3707 63.7647 40.4434 64.8777 40.1903C64.9635 40.1713 65.0217 40.0841 64.9984 39.9982C64.9853 39.9502 64.9591 39.9051 64.914 39.8629V39.8644Z" fill="#ACCF57"/>
<path d="M63.0897 40.6078C63.2454 40.9366 63.2992 41.2799 63.3123 41.616C63.324 41.9113 63.5436 42.1528 63.8361 42.1906C64.5169 42.2794 65.2181 42.099 66.0416 41.8167C66.0067 41.9971 65.9237 42.1674 65.8015 42.3085L65.2865 42.905C65.24 42.9588 65.1716 42.9908 65.0989 42.9937L64.0499 43.017C63.9612 43.0184 63.8826 42.9631 63.855 42.8788L63.7735 42.6256L62.5209 42.8191C62.3114 42.8511 62.0976 42.8628 61.8866 42.838C60.6282 42.6824 60.2048 41.5898 60.6282 40.682C61.1359 40.714 62.0874 40.6791 63.0897 40.6107V40.6078Z" fill="#286358"/>
<path d="M61.6349 39.7072C62.2096 40.0419 62.63 40.6514 62.713 41.3876C62.7726 41.9171 62.649 42.4219 62.3944 42.8337C62.2256 42.8526 62.0554 42.8569 61.8866 42.8366C60.0899 42.6154 59.9968 40.4856 61.6349 39.7072Z" fill="#3F5E3C"/>
<path d="M61.8561 40.3488C62.2183 40.9293 62.1732 41.5214 61.9157 42.1193C61.8692 42.227 61.7615 42.3056 61.6437 42.2968C61.4778 42.2837 61.3367 42.1281 61.3803 41.9229C61.5593 41.3832 61.5331 40.922 61.4312 40.3968C61.3978 40.2135 61.6597 40.068 61.8561 40.3488Z" fill="#8FB061"/>
<path d="M60.9747 41.9126C61.1522 41.9101 61.2924 41.6436 61.2878 41.3175C61.2832 40.9913 61.1355 40.7289 60.958 40.7314C60.7804 40.7339 60.6402 41.0004 60.6448 41.3266C60.6494 41.6527 60.7971 41.9151 60.9747 41.9126Z" fill="#204942"/>
<path d="M65.2576 28.2563C69.1812 27.2583 69.1376 29.1889 73.0001 29.3023C72.4633 31.1602 72.5564 32.0127 72.7339 32.7314C70.783 34.0291 68.2734 32.0622 65.2212 32.7008C65.3376 31.2184 65.7071 29.6515 65.2576 28.2578V28.2563Z" fill="#A8DADB"/>
<path d="M64.8822 27.1492C64.8531 27.1914 64.8385 27.2423 64.8371 27.2947L64.2581 42.9151C64.2755 43.1886 64.9447 43.2192 64.9797 42.9079L65.5499 27.3136C65.5528 27.2511 65.5238 27.1754 65.4699 27.1216C65.3041 26.9586 65.016 26.9514 64.8836 27.1492H64.8822Z" fill="#F1F3B1"/>
<path d="M64.6317 32.9505L65.3517 32.9656C65.4577 32.9678 65.5455 32.8839 65.5477 32.7783C65.5499 32.6727 65.4658 32.5852 65.3597 32.583L64.6397 32.5679C64.5337 32.5657 64.446 32.6495 64.4437 32.7552C64.4415 32.8608 64.5257 32.9482 64.6317 32.9505Z" fill="#A8DADB"/>
<path d="M64.7809 28.4087L65.5009 28.4238C65.6069 28.426 65.6947 28.3422 65.6969 28.2366C65.6991 28.1309 65.6149 28.0435 65.5089 28.0413L64.7889 28.0262C64.6829 28.024 64.5951 28.1078 64.5929 28.2134C64.5907 28.3191 64.6749 28.4065 64.7809 28.4087Z" fill="#A8DADB"/>
<g style="mix-blend-mode:multiply">
<path d="M45.9535 48.1161C41.093 48.5918 36.3924 48.3751 31.7996 47.7481C35.0482 46.3616 43.5778 43.7938 52.5264 42.5747C48.0965 45.0945 46.4074 46.7908 45.955 48.1161H45.9535Z" fill="#BAB2AE"/>
</g>
<path d="M37.042 36.1027C36.8863 36.6478 36.1137 36.6478 35.958 36.1027C35.8179 35.6126 35.5553 35.1663 35.1948 34.8058C34.8344 34.4454 34.3881 34.1828 33.898 34.0427C33.3527 33.8868 33.352 33.1138 33.8973 32.958C34.3874 32.8179 34.8337 32.5553 35.1942 32.1948C35.5546 31.8344 35.8172 31.3881 35.9573 30.898C36.1132 30.3527 36.8862 30.352 37.042 30.8973C37.1821 31.3874 37.4447 31.8337 37.8052 32.1942C38.1656 32.5546 38.6119 32.8172 39.102 32.9573C39.6473 33.1132 39.648 33.8862 39.1027 34.042C38.6126 34.1821 38.1663 34.4447 37.8058 34.8052C37.4454 35.1656 37.1821 35.6126 37.042 36.1027ZM42.6727 31.31C42.6277 31.4897 42.3723 31.4897 42.3273 31.31C42.2285 30.9144 42.024 30.5531 41.7357 30.2647C41.4475 29.9763 41.0862 29.7717 40.6907 29.6727C40.5109 29.6277 40.5109 29.3723 40.6907 29.3273C41.0862 29.2283 41.4475 29.0237 41.7357 28.7353C42.024 28.4469 42.2285 28.0856 42.3273 27.69C42.3723 27.5103 42.6277 27.5103 42.6727 27.69C42.7716 28.0857 42.9761 28.4471 43.2645 28.7355C43.5529 29.0239 43.9143 29.2284 44.31 29.3273C44.4897 29.3723 44.4897 29.6277 44.31 29.6727C43.9143 29.7716 43.5529 29.9761 43.2645 30.2645C42.9761 30.5529 42.7716 30.9143 42.6727 31.31ZM41.7627 39.2113C41.6786 39.4638 41.3214 39.4638 41.2373 39.2113C41.1637 38.9904 41.0396 38.7897 40.875 38.625C40.7103 38.4604 40.5096 38.3363 40.2887 38.2627C40.0362 38.1786 40.0362 37.8214 40.2887 37.7373C40.5096 37.6637 40.7103 37.5396 40.875 37.375C41.0396 37.2103 41.1637 37.0096 41.2373 36.7887C41.3214 36.5362 41.6786 36.5362 41.7627 36.7887C41.8363 37.0096 41.9604 37.2103 42.125 37.375C42.2897 37.5396 42.4904 37.6637 42.7113 37.7373C42.9638 37.8214 42.9638 38.1786 42.7113 38.2627C42.4904 38.3363 42.2897 38.4604 42.125 38.625C41.9604 38.7897 41.8363 38.9904 41.7627 39.2113Z" fill="#FFFDFB"/>
<path d="M57.8493 55.8199C57.8493 56.3989 57.3799 56.8682 56.801 56.8682H54.8209C54.5636 56.8682 54.355 57.0768 54.355 57.3341V59.4369C54.355 60.0941 53.8222 60.6269 53.1651 60.6269C52.5079 60.6269 51.9751 60.0941 51.9751 59.4369V57.3316C51.9751 57.0756 51.7677 56.8682 51.5117 56.8682H49.548C48.9691 56.8682 48.4998 56.3989 48.4998 55.8199C48.4998 55.241 48.9691 54.7716 49.548 54.7716H51.5117C51.7677 54.7716 51.9751 54.5642 51.9751 54.3082V52.2218C51.9751 51.5646 52.5079 51.0318 53.1651 51.0318C53.8222 51.0318 54.355 51.5646 54.355 52.2218V54.3057C54.355 54.563 54.5636 54.7716 54.8209 54.7716H56.801C57.3799 54.7716 57.8493 55.241 57.8493 55.8199Z" fill="#1D3557"/>
<path d="M65.7362 59.8922V61.6939H59.0602V59.8922H61.3123V53.9803C61.3123 53.8302 61.315 53.68 61.3204 53.5299C61.3257 53.3744 61.3338 53.2189 61.3445 53.0634L60.0093 54.1734C59.8913 54.2645 59.7734 54.3208 59.6554 54.3423C59.5428 54.3584 59.4355 54.3584 59.3337 54.3423C59.2318 54.3208 59.1406 54.286 59.0602 54.2377C58.9797 54.1841 58.9208 54.1305 58.8832 54.0769L58.095 53.0312L61.7467 49.9667H63.8058V59.8922H65.7362Z" fill="#1D3557"/>
</svg>
