<svg width="96" height="96" viewBox="0 0 96 96" fill="none" xmlns="http://www.w3.org/2000/svg">
<path d="M41.3568 15.6232C43.0764 8.01034 53.9236 8.01034 55.6432 15.6232C56.7577 20.5571 62.4196 22.9023 66.6964 20.2016C73.2955 16.0344 80.9656 23.7045 76.7984 30.3036C74.0977 34.5804 76.4429 40.2423 81.3768 41.3568C88.9897 43.0764 88.9897 53.9236 81.3768 55.6432C76.4429 56.7577 74.0977 62.4196 76.7984 66.6964C80.9656 73.2955 73.2955 80.9656 66.6964 76.7984C62.4196 74.0977 56.7577 76.4429 55.6432 81.3768C53.9236 88.9897 43.0764 88.9897 41.3568 81.3768C40.2423 76.4429 34.5804 74.0977 30.3036 76.7984C23.7045 80.9656 16.0344 73.2955 20.2016 66.6964C22.9023 62.4196 20.5571 56.7577 15.6232 55.6432C8.01034 53.9236 8.01034 43.0764 15.6232 41.3568C20.5571 40.2423 22.9023 34.5804 20.2016 30.3036C16.0344 23.7045 23.7045 16.0344 30.3036 20.2016C34.5804 22.9023 40.2423 20.5571 41.3568 15.6232Z" fill="#A8DADB"/>
<path d="M35.3949 47.0607C34.4832 51.1721 35.1022 55.5143 37.3419 59.0482C44.59 70.4352 61.5623 64.1412 61.99 52.4539C61.99 45.7442 58.501 34.877 51.0278 31.6087C49.1933 30.8118 47.1111 30.858 45.3441 31.7935C40.876 34.1725 36.8805 40.3856 35.3836 47.0607H35.3949Z" fill="white"/>
<path d="M56.8465 36.4823C55.3834 34.4959 53.6052 32.8445 51.4893 31.8167C51.5118 34.3227 53.8753 36.3668 56.8465 36.4823Z" fill="#FFBF68"/>
<path d="M35.9126 45.0975C36.2165 45.9637 36.9818 46.5873 37.8935 46.7259C39.4016 46.9568 40.8985 47.0377 42.3841 46.4141C43.172 46.0792 43.6334 45.2477 43.5209 44.3815C43.3971 43.3768 43.1945 42.4298 42.8343 41.5752C42.733 41.3211 42.5529 41.1132 42.3391 40.9516C41.2699 40.2125 39.8743 39.7159 38.3662 39.3001C37.3645 41.0786 36.5316 43.0419 35.9239 45.086L35.9126 45.0975Z" fill="#FFBF68"/>
<path d="M44.9839 60.5148C44.9952 59.9028 44.7588 59.3138 44.3761 58.8403C42.3053 56.288 37.2856 55.4681 36.1714 56.7615C36.4978 57.5469 36.8804 58.3091 37.3419 59.0366C37.6345 59.4986 37.9496 59.9374 38.276 60.3416C41.5624 62.9054 44.9389 62.9054 44.9839 60.5148Z" fill="#FFBF68"/>
<path d="M48.0002 52.5579C47.8426 54.1285 48.3153 55.7107 49.317 56.9117C54.9557 63.6908 60.6056 54.1516 59.5589 48.8623C58.1858 41.6675 49.2157 40.6282 48.0002 52.5579Z" fill="#FFBF68"/>
<path d="M47.9778 41.4365C47.8428 43.5153 51.0054 44.4969 52.0746 42.0948C52.2321 41.7483 52.1871 41.3326 51.962 41.0323C50.8816 39.5887 49.6998 39.5887 48.428 40.605C48.1692 40.8129 48.0003 41.1131 47.9778 41.4481V41.4365Z" fill="#FFBF68"/>
<g style="mix-blend-mode:multiply">
<path d="M36.9143 58.3322C37.0494 58.5748 37.1957 58.8173 37.342 59.0482C44.5901 70.4352 61.5623 64.1412 61.99 52.454C61.99 52.3154 61.99 52.1653 61.99 52.0151C54.2805 62.5359 45.6931 61.5774 36.9143 58.3322Z" fill="#BAB2AE"/>
</g>
<path d="M59.6786 42.3529L59.6786 42.353C58.8747 43.228 57.351 44.8861 56.2925 46.0376C55.7679 46.6083 55.293 47.152 54.9513 47.567C54.7797 47.7753 54.646 47.946 54.5573 48.0689C54.5567 48.0697 54.5562 48.0705 54.5556 48.0712C54.5753 48.078 54.5994 48.0853 54.6287 48.0928C54.9408 48.1732 55.5248 48.2069 56.6053 48.2069H58.7368H59.2368V48.7069V52.6258V53.1794H61.5H63.7632V52.6258V48.7069V48.2069H64.2632H66.2499C67.2727 48.2069 67.9071 48.164 68.2768 48.0778C68.3332 48.0647 68.3782 48.0516 68.414 48.0396C68.4139 48.0394 68.4138 48.0393 68.4137 48.0392C68.3083 47.8944 68.1516 47.6994 67.9554 47.4668C67.5647 47.0034 67.0403 46.4182 66.5116 45.8408C65.9839 45.2644 65.4558 44.6998 65.0593 44.2791C64.8612 44.0688 64.6961 43.8946 64.5806 43.7731L64.4466 43.6323L64.4114 43.5955L64.4025 43.5861L64.4002 43.5837L64.3997 43.5832L64.3996 43.583L64.7609 43.2374L64.3995 43.583L64.3911 43.5742L64.3831 43.565L64.3831 43.565L64.383 43.5648L64.3825 43.5643L64.3806 43.5621L64.3728 43.5531L64.3422 43.518L64.2275 43.3867C64.1295 43.2748 63.9918 43.1183 63.833 42.9398C63.5143 42.5815 63.1145 42.1389 62.781 41.7907C62.3944 41.3869 62.1112 41.0919 61.8923 40.8779C61.6865 40.6766 61.5634 40.5733 61.4861 40.5222C61.4616 40.5387 61.4249 40.5643 61.3712 40.6038M59.6786 42.3529L61.3711 40.6038L61.3712 40.6038M59.6786 42.3529C60.0778 41.9183 60.474 41.4991 60.79 41.1742M59.6786 42.3529L60.79 41.1742M61.3712 40.6038C61.3714 40.6036 61.3712 40.6038 61.3706 40.6043M61.3712 40.6038L61.3706 40.6043M63.7632 61.5564H64.2632V61.8518C64.2632 62.4282 64.168 62.692 63.9178 62.8105C63.433 63.0401 59.9078 63.0702 59.2672 62.8504C58.7994 62.6899 58.7368 62.5732 58.7368 61.8625V61.5564H59.2368M63.7632 61.5564V61.0564H61.5H59.2368V61.5564M63.7632 61.5564H61.5H59.2368M63.7632 61.5564V61.8518C63.7632 62.1247 63.7389 62.2641 63.7139 62.3334C63.7096 62.3454 63.7059 62.3533 63.7034 62.358M59.2368 61.5564V61.8625C59.2368 62.0376 59.241 62.1536 59.2506 62.2364C59.2548 62.2727 59.2594 62.2962 59.2629 62.3103M59.2629 62.3103C59.2856 62.3223 59.3345 62.3449 59.4294 62.3775C59.4578 62.3872 59.5398 62.406 59.6929 62.425C59.8367 62.443 60.0169 62.4581 60.2245 62.47C60.6391 62.4937 61.1436 62.5033 61.6467 62.499C62.1499 62.4947 62.6441 62.4765 63.0381 62.446C63.2356 62.4307 63.4017 62.4127 63.5283 62.3931C63.6321 62.377 63.6833 62.3633 63.6996 62.359C63.7012 62.3586 63.7025 62.3583 63.7034 62.358M59.2629 62.3103C59.2661 62.3233 59.2683 62.3285 59.2683 62.3285C59.2682 62.3285 59.2679 62.3277 59.2671 62.3263C59.2577 62.3088 59.2459 62.3002 59.2457 62.3002C59.2456 62.3002 59.2502 62.3036 59.2629 62.3103ZM63.7034 62.358C63.7012 62.3623 63.6999 62.364 63.6999 62.364C63.6999 62.3639 63.7003 62.3634 63.7011 62.3625C63.7021 62.3612 63.7032 62.3602 63.7041 62.3594C63.7041 62.3594 63.7042 62.3593 63.7042 62.3593C63.7059 62.3577 63.7071 62.357 63.7071 62.3569C63.7071 62.3569 63.7062 62.3575 63.7038 62.3586L63.7037 62.3586C63.7062 62.3574 63.7063 62.3573 63.7034 62.358ZM60.79 41.1742C60.9482 41.0117 61.0847 40.8744 61.1906 40.7714M60.79 41.1742L61.1906 40.7714M61.1906 40.7714C61.2437 40.7198 61.2873 40.6785 61.3211 40.6478M61.1906 40.7714L61.3211 40.6478M61.3211 40.6478C61.3521 40.6195 61.3673 40.6071 61.3706 40.6043M61.3211 40.6478L61.3706 40.6043M59.249 55.3044C59.2497 55.2974 59.2503 55.2909 59.251 55.2848C59.3433 55.2745 59.6728 55.2659 60.1761 55.2655C60.6723 55.2652 61.298 55.2725 61.9322 55.2875L63.7632 55.331V55.7229V56.103H61.5H59.2368V55.7248C59.2368 55.5324 59.2403 55.3999 59.249 55.3044ZM59.2368 59.3095V58.8297V58.35H61.5H63.7632V58.8297V59.3095H61.5H59.2368Z" fill="#668942" stroke="#668942"/>
</svg>
