<svg width="356" height="120" viewBox="0 0 356 120" fill="none" xmlns="http://www.w3.org/2000/svg">
<g clip-path="url(#clip0_1388_46986)">
<rect width="356" height="120" rx="16" fill="url(#paint0_linear_1388_46986)"/>
<g clip-path="url(#clip1_1388_46986)">
<path d="M254.451 21.3032C253.52 22.6138 253.147 24.2408 253.416 25.8261C253.684 27.4114 254.571 28.8252 255.881 29.7566C256.846 30.4394 257.552 31.4272 257.885 32.5607C258.219 33.6942 258.161 34.9071 257.721 36.0035L257.301 37.0361C254.806 43.2837 255.946 50.4018 260.262 55.5531C261.302 56.7606 262.775 57.51 264.364 57.6393C265.952 57.7685 267.527 57.2671 268.749 56.2437C269.97 55.2202 270.74 53.7569 270.89 52.1704C271.041 50.5839 270.561 49.0019 269.555 47.7666C268.841 46.9167 268.372 45.8889 268.197 44.793C268.022 43.6971 268.148 42.5743 268.561 41.5444L268.97 40.5076C270.42 36.8861 270.61 32.882 269.508 29.1397C268.407 25.3975 266.078 22.1346 262.897 19.8763C262.249 19.4143 261.515 19.0846 260.739 18.906C259.963 18.7275 259.159 18.7036 258.374 18.8357C257.589 18.9678 256.837 19.2533 256.162 19.676C255.487 20.0986 254.902 20.6501 254.441 21.2989M206.906 64.3652C205.582 65.2774 204.676 66.6777 204.384 68.2583C204.093 69.8389 204.442 71.4704 205.353 72.7942L208.714 77.6862C213.335 84.4128 221.218 88.16 229.352 87.4823C233.158 87.1715 236.839 88.9102 238.996 92.058L242.357 96.95C242.808 97.6063 243.383 98.1674 244.051 98.6012C244.719 99.0351 245.465 99.3332 246.248 99.4785C247.031 99.6239 247.834 99.6136 248.613 99.4483C249.392 99.283 250.131 98.9659 250.787 98.5152C251.443 98.0644 252.005 97.4888 252.438 96.8212C252.872 96.1536 253.17 95.4071 253.316 94.6243C253.461 93.8415 253.451 93.0377 253.285 92.2588C253.12 91.48 252.803 90.7413 252.352 90.085L248.991 85.193C244.367 78.4591 236.487 74.7193 228.351 75.3895C224.551 75.7152 220.866 73.969 218.699 70.817L215.345 65.9218C214.894 65.2656 214.318 64.7047 213.65 64.2712C212.982 63.8376 212.235 63.5399 211.452 63.3951C210.669 63.2502 209.865 63.261 209.086 63.4269C208.308 63.5928 207.569 63.9106 206.913 64.362M207.394 141.879C208.463 140.739 209.837 139.93 211.353 139.546C212.868 139.162 214.461 139.219 215.945 139.712C219.991 141.056 224.358 141.092 228.426 139.815C232.494 138.539 236.057 136.015 238.611 132.601L239.806 131.017C240.283 130.379 240.631 129.654 240.828 128.882C241.025 128.11 241.069 127.307 240.956 126.519C240.842 125.73 240.575 124.972 240.169 124.286C239.763 123.601 239.226 123.003 238.588 122.525C237.95 122.048 237.225 121.7 236.453 121.503C235.682 121.306 234.879 121.262 234.09 121.375C233.301 121.488 232.543 121.756 231.858 122.162C231.173 122.568 230.574 123.105 230.096 123.743L228.905 125.335C226.79 128.157 223.115 129.309 219.765 128.202C216.087 126.98 212.136 126.837 208.378 127.788C204.621 128.739 201.214 130.746 198.56 133.571L196.795 135.443C195.693 136.616 195.103 138.178 195.153 139.785C195.203 141.393 195.89 142.915 197.062 144.016C198.235 145.118 199.797 145.708 201.404 145.658C203.012 145.608 204.534 144.921 205.635 143.748L207.394 141.879ZM284.391 24.32C283.862 24.109 283.296 24.0042 282.727 24.0117C282.157 24.0192 281.594 24.1389 281.071 24.3638C280.548 24.5887 280.074 24.9146 279.676 25.3227C279.279 25.7308 278.965 26.2132 278.754 26.7424C278.543 27.2716 278.438 27.8371 278.446 28.4068C278.453 28.9764 278.573 29.5391 278.798 30.0625C279.023 30.5859 279.349 31.0599 279.757 31.4574C280.165 31.8549 280.647 32.1681 281.177 32.3792C282.245 32.8055 283.44 32.7897 284.497 32.3354C285.554 31.8812 286.387 31.0256 286.813 29.9568C287.24 28.8881 287.224 27.6939 286.77 26.6368C286.315 25.5796 285.46 24.7463 284.391 24.32ZM250.131 67.2771C250.343 66.7482 250.657 66.2662 251.055 65.8586C251.453 65.451 251.927 65.1258 252.451 64.9015C252.975 64.6773 253.537 64.5584 254.107 64.5516C254.677 64.5449 255.242 64.6504 255.771 64.8622C256.3 65.0739 256.782 65.3878 257.189 65.7858C257.597 66.1839 257.922 66.6583 258.146 67.182C258.371 67.7057 258.49 68.2685 258.496 68.8382C258.503 69.4078 258.398 69.9732 258.186 70.5021C257.974 71.0312 257.659 71.5134 257.261 71.921C256.862 72.3286 256.387 72.6537 255.863 72.8777C255.339 73.1018 254.775 73.2204 254.205 73.2268C253.635 73.2331 253.07 73.1272 252.541 72.9149C252.011 72.7027 251.529 72.3883 251.122 71.9897C250.714 71.5912 250.389 71.1162 250.165 70.592C249.941 70.0678 249.822 69.5046 249.816 68.9345C249.81 68.3645 249.919 67.8062 250.131 67.2771ZM228.162 103.063C227.634 102.851 227.069 102.745 226.499 102.752C225.93 102.758 225.368 102.877 224.844 103.1C224.321 103.324 223.846 103.649 223.448 104.056C223.05 104.463 222.736 104.944 222.524 105.473C222.312 106.001 222.206 106.566 222.213 107.135C222.219 107.705 222.338 108.267 222.561 108.791C222.785 109.314 223.11 109.789 223.517 110.187C223.924 110.585 224.405 110.899 224.934 111.111C226.001 111.539 227.194 111.525 228.252 111.073C229.309 110.622 230.144 109.768 230.572 108.701C231 107.634 230.986 106.44 230.534 105.383C230.083 104.326 229.229 103.491 228.162 103.063ZM224.801 149.84C225.229 148.772 226.063 147.917 227.121 147.464C228.179 147.011 229.373 146.997 230.441 147.425C231.509 147.853 232.364 148.687 232.817 149.745C233.269 150.802 233.284 151.997 232.856 153.065C232.644 153.594 232.33 154.076 231.932 154.483C231.534 154.891 231.06 155.216 230.536 155.44C230.012 155.665 229.45 155.784 228.88 155.79C228.31 155.797 227.745 155.692 227.216 155.48C226.687 155.268 226.205 154.954 225.797 154.556C225.39 154.158 225.065 153.684 224.84 153.16C224.616 152.636 224.497 152.073 224.49 151.504C224.484 150.934 224.589 150.369 224.801 149.84ZM332.214 147.181C351.396 145.527 361.246 144.053 364.046 137.059C367.148 129.312 359.322 120.502 343.674 102.889L314.987 70.5995C304.259 58.5215 297.957 51.424 291.919 50.0348L292.039 50.2121C293.179 51.8579 294.295 53.5199 295.387 55.1975C298.297 59.6169 301.122 64.0917 303.86 68.6195C310.343 79.3237 318.055 93.2475 322.269 105.204C324.821 112.439 327.096 121.797 328.709 129.178C329.591 133.219 330.413 137.273 331.172 141.339L331.32 142.094L332.214 147.181ZM284.944 151.109L282.677 151.297C263.164 152.917 253.407 153.727 248.942 147.672C244.462 141.624 248.103 132.529 255.382 114.35L262.559 96.4249L262.644 96.5205L264.102 98.2436C265.339 99.7364 267.041 101.821 268.882 104.252C272.655 109.222 276.696 115.169 278.789 120.058C280.883 124.947 282.397 131.975 283.391 138.136C283.946 141.603 284.393 145.085 284.732 148.58L284.749 148.722L284.747 148.758L284.944 151.109ZM281.82 56.7596L280.669 55.0982C277.259 59.7236 274.171 67.4209 269.743 78.4972L267.602 83.8279L271.214 87.9091L271.377 88.0853C273.859 90.9548 276.25 93.9017 278.546 96.9217C282.42 102.025 287.225 108.954 289.935 115.285C292.646 121.616 294.337 129.879 295.365 136.201C295.966 139.947 296.449 143.711 296.812 147.487L297.03 150.111L320.084 148.198L319.415 144.439L319.383 144.26L319.254 143.549L318.747 140.865C318.295 138.579 317.659 135.387 316.873 131.766C315.273 124.476 313.129 115.73 310.833 109.239C307.057 98.5105 299.89 85.4699 293.491 74.8974C289.834 68.8627 286.02 62.9255 282.05 57.0919L281.881 56.8392L281.834 56.7713L281.82 56.7596ZM219.247 37.0012C218.061 37.333 215.971 38.1401 215.044 40.4716C214.109 42.8064 215.061 44.8255 215.694 45.8913C216.41 47.0096 217.203 48.0776 218.065 49.088L218.733 49.9097L218.575 50.8745C218.371 52.1842 218.146 53.5904 218.135 54.7558C218.129 56.0773 218.381 58.1853 220.254 59.7048C222.099 61.2009 224.194 61.0604 225.457 60.8273C226.614 60.6133 227.974 60.1542 229.266 59.7237L230.242 59.3939L230.324 59.3589L231.364 59.8984C232.604 60.5367 233.883 61.2027 234.993 61.5979C236.168 62.0005 238.267 62.5086 240.347 61.2664C242.495 59.9775 242.974 57.8113 243.104 56.5335C243.189 55.2305 243.182 53.9231 243.082 52.6211L243.029 51.6765L243.719 51.0293C244.689 50.1607 245.596 49.2231 246.431 48.2238C247.223 47.1988 248.367 45.311 247.702 42.8961C247.051 40.5544 245.184 39.4807 244.056 38.9613C242.988 38.478 241.595 38.0806 240.257 37.6864L239.132 37.3591L239.1 37.2848L238.619 36.3655C237.984 35.151 237.317 33.8803 236.623 32.9376C235.867 31.8897 234.459 30.3471 232.091 30.1563C229.676 29.9591 228.043 31.3182 227.142 32.2753C226.335 33.122 225.527 34.2946 224.782 35.3876L224.22 36.1909L223.172 36.3317C221.804 36.5043 220.377 36.6842 219.247 37.0012ZM192.2 121.407C187.244 119.423 183.957 115.299 184.097 110.368C184.21 106.627 186.254 103.351 189.515 101.049C188.736 97.135 189.525 93.3503 192.026 90.565C195.331 86.9074 200.552 86.1842 205.512 88.176C208.377 89.3232 210.446 91.6293 211.9 93.8555C213.396 96.1168 214.51 98.7176 215.342 101.052C216.351 103.921 217.132 106.864 217.679 109.856C217.917 111.337 217.365 113.067 216.168 113.967L216.153 113.974L215.975 114.111C215.276 114.634 214.559 115.131 213.826 115.603C212.417 116.523 210.444 117.746 208.208 118.87C205.998 119.992 203.394 121.099 200.754 121.71C198.165 122.318 195.076 122.558 192.203 121.414" fill="url(#paint1_radial_1388_46986)"/>
</g>
</g>
<defs>
<linearGradient id="paint0_linear_1388_46986" x1="344" y1="120" x2="210.5" y2="15" gradientUnits="userSpaceOnUse">
<stop stop-color="#FFEBD0"/>
<stop offset="1" stop-color="white"/>
</linearGradient>
<radialGradient id="paint1_radial_1388_46986" cx="0" cy="0" r="1" gradientUnits="userSpaceOnUse" gradientTransform="translate(264.22 99.3354) rotate(66.8204) scale(76.8821 79.8313)">
<stop stop-color="#FFC983" stop-opacity="0"/>
<stop offset="0.46" stop-color="#FFEBD0"/>
<stop offset="1" stop-color="#FFFBF6" stop-opacity="0"/>
</radialGradient>
<clipPath id="clip0_1388_46986">
<rect width="356" height="120" rx="16" fill="white"/>
</clipPath>
<clipPath id="clip1_1388_46986">
<rect width="194" height="194" fill="white" transform="matrix(-0.919276 0.393615 0.393615 0.919276 323.339 -27)"/>
</clipPath>
</defs>
</svg>
