<svg width="316" height="87" viewBox="0 0 316 87" fill="none" xmlns="http://www.w3.org/2000/svg">
<g clip-path="url(#clip0_702_10581)">
<path d="M252.948 27.0003C252.462 26.1202 252.219 25.5653 252.219 25.3355C252.219 24.7589 252.817 24.4468 254.018 24.3991V22.006H241.914V24.3991C242.66 24.4598 243.184 24.6072 243.488 24.8413C243.791 25.0754 244.247 25.7647 244.854 26.9049L245.218 27.5899L253.281 41.4282L256.932 34.2229L252.943 26.9959L252.948 27.0003Z" fill="#457B9D"/>
<path d="M258.826 22.0104V24.4034C260.118 24.4034 260.764 24.8066 260.764 25.613C260.764 25.9165 260.5 26.6448 259.966 27.8023L256.936 34.2316L253.286 41.4369C253.043 42.7981 252.514 44.2028 251.907 45.6204C251.716 46.067 251.417 46.4571 251.031 46.7476L249.215 48.1262C248.859 48.395 248.439 48.5598 247.997 48.6031L242.768 49.1234C243.557 50.593 243.908 52.2968 243.869 54.2087C243.852 54.9847 244.533 55.5916 245.3 55.4746C247.875 55.0887 249.805 56.0425 251.322 57.8547C251.842 58.479 252.748 58.492 253.238 57.8417C254.292 56.4587 254.768 53.4283 254.526 48.33C254.513 48.0309 254.5 47.7317 254.517 47.4326C254.63 45.5424 255.401 43.869 256 42.1609L261.861 30.0003C263.166 27.2951 264.007 25.7084 264.38 25.2358C264.753 24.7633 265.386 24.4858 266.283 24.3904V21.9973H258.831L258.826 22.0104ZM245.166 50.5844C245.127 50.5974 245.088 50.6017 245.049 50.6017C244.871 50.6017 244.715 50.489 244.663 50.3156C244.598 50.1031 244.719 49.8777 244.932 49.817C245.911 49.5222 246.796 49.3835 247.633 49.3835C247.888 49.3835 248.144 49.3965 248.396 49.4268C248.617 49.4528 248.773 49.6523 248.751 49.869C248.729 50.0771 248.56 50.2245 248.348 50.2245C248.088 50.1985 247.862 50.1855 247.633 50.1855C246.874 50.1855 246.067 50.3156 245.161 50.5887L245.166 50.5844ZM251.114 50.5107C249.783 51.226 248.53 51.898 247.784 53.3676C247.715 53.502 247.576 53.5887 247.424 53.5887C247.364 53.5887 247.299 53.5757 247.242 53.5454C247.147 53.4977 247.073 53.4153 247.043 53.3113C247.008 53.2072 247.017 53.0988 247.065 53.0035C247.923 51.3127 249.284 50.58 250.724 49.8083C251.187 49.5612 251.656 49.3098 252.107 49.0237C252.172 48.9846 252.245 48.963 252.323 48.963C252.462 48.963 252.588 49.0323 252.661 49.1494C252.718 49.2404 252.735 49.3488 252.713 49.4528C252.692 49.5569 252.627 49.6479 252.536 49.7043C252.063 50.0034 251.578 50.2635 251.109 50.515L251.114 50.5107ZM252.202 57.031C252.124 57.1047 252.024 57.1437 251.92 57.1437C251.816 57.1437 251.712 57.1003 251.634 57.0223C251.478 56.8619 251.482 56.6104 251.634 56.4544C252.046 56.0512 252.258 54.1783 252.358 53.2766C252.38 53.0728 252.553 52.9211 252.757 52.9211C252.891 52.9341 253 52.9905 253.069 53.0772C253.134 53.1595 253.164 53.2592 253.151 53.3633C252.939 55.2492 252.705 56.5237 252.193 57.0266L252.202 57.031Z" fill="#FFBF68"/>
<path d="M187.35 34.3183L182.607 27.9584L184.385 26.7055C186.496 25.1882 190.081 24.3731 190.081 24.3731C190.979 24.139 191.482 23.8485 191.898 23.5321C191.629 23.2936 191.339 23.0292 191.026 22.7517C191.143 22.2965 191.208 21.7373 191.247 21.139C191.109 21.2734 190.957 21.4034 190.792 21.5335C190.38 21.85 189.869 22.0104 189.349 22.0104H179.694V24.4251C180.604 24.4251 181.151 24.4988 181.324 24.6419C181.497 24.785 181.584 24.9671 181.584 25.1795C181.584 25.5437 181.12 26.0682 180.192 26.7532L175.337 30.2388V9.22122L164.828 10.8383V13.2531C166.194 13.2531 167.061 13.4698 167.425 13.9034C167.789 14.3369 167.971 15.1302 167.971 16.2834V35.2244C167.971 36.4253 167.776 37.2316 167.39 37.6392C167.004 38.0467 166.146 38.2548 164.828 38.2548V40.6695H177.821V38.2548C176.802 38.2071 176.135 37.9643 175.814 37.5134C175.493 37.0669 175.337 36.3039 175.337 35.2244V33.2432L177.275 31.8515L180.375 36.0221C180.89 36.7201 181.151 37.184 181.151 37.4137C181.151 37.9773 180.665 38.2591 179.69 38.2591V40.6739H191.724V38.2591C191.148 38.2591 190.558 37.986 189.96 37.4397C189.357 36.8935 188.49 35.853 187.35 34.3183Z" fill="#457B9D"/>
<path d="M140.711 34.5004C140.446 34.6868 140.152 34.8949 139.844 35.1117C139.467 34.9166 138.985 34.7475 138.465 34.5958C138.647 34.8992 138.868 35.5408 139.011 36.0004C139.154 36.4599 139.115 36.9628 138.829 37.3443C138.6 37.6521 138.279 37.8039 137.871 37.8039C137.082 37.8039 136.688 37.1493 136.688 35.8443V27.1824C136.688 26.0899 136.571 25.2228 136.337 24.5855C136.102 23.9482 135.621 23.3413 134.902 22.7604C134.178 22.1838 133.228 21.7893 132.053 21.5768C130.874 21.3644 129.413 21.256 127.666 21.256C124.536 21.256 122.034 21.7502 120.166 22.7387C118.297 23.7271 117.361 24.928 117.361 26.3413C117.361 26.9656 117.617 27.5075 118.124 27.9714C118.631 28.4353 119.32 28.6651 120.188 28.6651C121.146 28.6651 121.852 28.4483 122.307 28.0148C122.763 27.5812 123.066 26.8876 123.218 25.9295C123.43 24.5335 124.492 23.8312 126.409 23.8312C127.198 23.8312 127.883 24.0003 128.459 24.3428C129.036 24.6852 129.326 25.4569 129.326 26.6578V28.3442C124.753 29.8963 121.592 31.3053 119.845 32.5842C118.098 33.8588 117.222 35.3284 117.222 36.9845C117.222 38.155 117.66 39.1348 118.531 39.9238C119.403 40.7129 120.716 41.1074 122.464 41.1074C123.786 41.1074 125.052 40.908 126.257 40.5048C127.466 40.1016 128.624 39.499 129.734 38.6926C130.705 40.301 132.591 41.1074 135.387 41.1074C136.922 41.1074 138.24 40.7345 139.341 39.9889C140.403 39.2692 140.971 38.168 141.049 36.6854C141.049 35.8487 140.98 35.207 140.711 34.496V34.5004ZM129.326 36.2302C128.854 36.7331 128.368 37.1102 127.865 37.3703C127.362 37.6305 126.838 37.7562 126.292 37.7562C125.667 37.7562 125.169 37.5264 124.787 37.0625C124.406 36.5987 124.219 36.0784 124.219 35.5018C124.219 34.7432 124.54 34.0061 125.186 33.2908C125.832 32.5755 127.211 31.7778 129.322 30.8977V36.2302H129.326Z" fill="#457B9D"/>
<path d="M163.454 32.5842C163.033 32.7706 162.569 32.9743 162.075 33.1911C161.603 32.8096 160.983 32.4454 160.302 32.0813C160.497 32.6189 160.64 33.2301 160.705 33.9455C160.788 34.8472 160.532 35.7446 159.964 36.4513C158.923 37.7475 157.514 38.3935 155.741 38.3935C153.968 38.3935 152.737 37.7519 151.922 36.4686C151.107 35.1854 150.704 33.0784 150.704 30.1434C150.704 28.0018 151.042 26.3934 151.718 25.3225C152.394 24.2517 153.409 23.7141 154.762 23.7141C155.429 23.7141 155.902 23.8529 156.175 24.126C156.448 24.3991 156.652 24.8543 156.79 25.4916C157.246 27.6506 158.303 28.7301 159.96 28.7301C160.796 28.7301 161.477 28.4396 162.002 27.8544C162.526 27.2691 162.786 26.5884 162.786 25.8124C162.786 24.4468 162.123 23.3456 160.792 22.5089C159.461 21.6722 157.658 21.256 155.377 21.256C151.701 21.256 148.705 22.2228 146.399 24.152C144.088 26.0812 142.935 28.626 142.935 31.7865C142.935 34.9469 143.993 37.1536 146.113 38.8617C148.233 40.5698 150.821 41.4282 153.873 41.4282C156.105 41.4282 158.061 40.9513 159.743 40.0019C161.421 39.0524 162.582 37.7042 163.22 35.957C163.22 35.957 163.831 33.9628 163.458 32.5842H163.454Z" fill="#457B9D"/>
<path d="M115.501 40.314C115.284 39.9889 115.05 39.6334 114.799 39.2606C115.046 38.814 115.263 38.2461 115.462 37.6305C115.141 37.8126 114.777 37.9773 114.361 38.116C114.044 38.2201 113.702 38.2678 113.368 38.2504C112.302 38.2027 112.189 37.9903 111.877 37.6131C111.521 37.1796 111.339 36.3863 111.339 35.2331V22.0147H100.9V24.4295C102.222 24.4295 103.063 24.6506 103.418 25.0884C103.774 25.5306 103.956 26.3197 103.956 27.4599V34.6174C103.241 35.5886 102.56 36.3212 101.905 36.8068C101.251 37.2923 100.631 37.5351 100.037 37.5351C99.2479 37.5351 98.6713 37.275 98.3028 36.7591C97.9387 36.2432 97.7566 35.3935 97.7566 34.2056V22.0104H87.5686V24.4251C88.7088 24.4251 89.4631 24.6376 89.836 25.0624C90.2088 25.4873 90.3952 26.285 90.3952 27.4555V34.6131C90.3952 37.2707 91.0802 39.0741 92.4588 40.0149C93.8331 40.9557 95.3635 41.4282 97.0499 41.4282C98.3722 41.4282 99.6078 41.1508 100.752 40.5958C101.897 40.0409 102.968 39.2172 103.956 38.1247V41.4282C107.407 40.9123 109.952 40.6522 112.748 40.6522C112.804 40.6522 114.656 40.6045 115.501 40.314Z" fill="#457B9D"/>
<path d="M218.022 34.5004C217.758 34.6868 217.463 34.8949 217.155 35.1117C216.778 34.9166 216.297 34.7475 215.777 34.5958C215.959 34.8992 216.18 35.5408 216.323 36.0004C216.466 36.4599 216.427 36.9628 216.141 37.3443C215.911 37.6521 215.59 37.8039 215.183 37.8039C214.394 37.8039 213.999 37.1493 213.999 35.8443V27.1824C213.999 26.0899 213.882 25.2228 213.648 24.5855C213.414 23.9482 212.933 23.3413 212.213 22.7604C211.489 22.1838 210.54 21.7893 209.365 21.5768C208.186 21.3644 206.725 21.256 204.977 21.256C201.847 21.256 199.346 21.7502 197.477 22.7387C195.609 23.7271 194.672 24.928 194.672 26.3413C194.672 26.9656 194.928 27.5075 195.435 27.9714C195.943 28.4353 196.632 28.6651 197.499 28.6651C198.457 28.6651 199.164 28.4483 199.619 28.0148C200.074 27.5812 200.378 26.8876 200.529 25.9295C200.742 24.5335 201.804 23.8312 203.72 23.8312C204.509 23.8312 205.194 24.0003 205.771 24.3428C206.347 24.6852 206.638 25.4569 206.638 26.6578V28.3442C202.064 29.8963 198.904 31.3053 197.157 32.5842C195.409 33.8588 194.534 35.3284 194.534 36.9845C194.534 38.155 194.972 39.1348 195.843 39.9238C196.714 40.7129 198.028 41.1074 199.775 41.1074C201.097 41.1074 202.363 40.908 203.568 40.5048C204.778 40.1016 205.936 39.499 207.045 38.6926C208.017 40.301 209.902 41.1074 212.699 41.1074C214.233 41.1074 215.551 40.7345 216.652 39.9889C217.715 39.2692 218.283 38.168 218.361 36.6854C218.361 35.8487 218.291 35.207 218.022 34.496V34.5004ZM206.634 36.2302C206.161 36.7331 205.675 37.1102 205.173 37.3703C204.67 37.6305 204.145 37.7562 203.599 37.7562C202.975 37.7562 202.476 37.5264 202.094 37.0625C201.713 36.5987 201.527 36.0784 201.527 35.5018C201.527 34.7432 201.847 34.0061 202.493 33.2908C203.139 32.5755 204.518 31.7778 206.629 30.8977V36.2302H206.634Z" fill="#457B9D"/>
<path d="M81.2304 12.4857C81.716 13.3571 84.4039 16.9511 84.9458 18.0652C85.0628 18.4034 85.2536 18.8543 85.6047 19.5783C86.3591 18.6071 85.4226 17.9525 86.0036 17.0551C86.4848 17.0551 86.836 16.8904 87.0571 16.5739C86.6149 15.9149 86.177 15.2646 85.7348 14.6143L82.4053 11.74L81.2261 12.4814L81.2304 12.4857Z" fill="#457B9D"/>
<path d="M82.8952 11.6923C85.3359 12.2082 86.4154 11.7964 87.6813 11.3932C87.2955 12.0608 86.9053 12.6678 86.5065 13.123C86.7059 13.6215 86.8923 14.0941 87.0657 14.5233C85.1105 14.7704 83.1986 14.6663 81.5555 12.0955L82.8995 11.6923H82.8952Z" fill="#1D3557"/>
<path d="M67.1406 6.56799C66.9499 7.63881 66.2519 8.43218 66.2692 9.06513C66.3083 12.8108 76.5309 15.7025 80.5844 14.5363C81.2694 14.3369 81.8417 13.8687 82.1841 13.2444C82.4963 12.6678 82.7217 12.1605 82.8951 11.6967C75.4341 11.3889 69.1739 10.149 67.1406 6.57233V6.56799Z" fill="#457B9D"/>
<path d="M239.499 22.4786C238.832 21.6679 237.852 21.2604 236.56 21.2604C235.268 21.2604 233.968 21.6506 232.845 22.4352C231.722 23.2199 230.716 24.3905 229.836 25.9555C229.775 24.0566 229.533 22.4916 229.108 21.2604L219.648 23.2676V25.6824C220.983 25.6824 221.833 25.8992 222.189 26.3327C222.544 26.7662 222.726 27.5596 222.726 28.7128V35.2331C222.726 36.3733 222.553 37.1623 222.202 37.6045C221.85 38.0467 221.018 38.2634 219.696 38.2634V40.6782L233.53 40.6652C234.535 40.6479 235.138 40.4831 235.797 40.2317C235.567 39.8979 235.316 39.5337 235.051 39.1435C235.303 38.6753 235.52 38.0857 235.719 37.4397C235.207 37.8169 234.106 38.2851 233.075 38.2591C231.813 38.2591 231.007 38.0337 230.66 37.5871C230.309 37.1406 230.135 36.3516 230.135 35.2287V33.1998C230.135 30.785 230.382 28.9729 230.877 27.7633C231.371 26.5538 232.112 25.9512 233.101 25.9512C233.738 25.9512 234.332 26.2546 234.878 26.8616C235.424 27.4859 235.866 27.8934 236.2 28.0928C236.534 28.2922 236.959 28.3876 237.475 28.3876C238.433 28.3876 239.174 28.0668 239.708 27.4295C240.241 26.7922 240.505 26.0249 240.505 25.1275C240.505 24.1694 240.171 23.285 239.504 22.4743L239.499 22.4786Z" fill="#457B9D"/>
<path d="M50.5754 25.0494C53.7402 26.8962 56.8009 28.2792 59.7749 29.2026C59.6319 27.9107 59.5582 26.4714 59.5582 24.8803C59.5582 20.4757 60.1955 17.2589 61.4744 15.2386C62.3848 13.795 63.6334 12.8802 65.2114 12.464C64.4441 11.5883 63.9455 10.5955 63.8415 9.48566C60.1911 10.0536 57.1607 11.5449 54.7547 13.9597C51.7199 17.0074 50.1549 20.6707 50.0465 24.9367C50.2243 24.915 50.4107 24.9497 50.5798 25.0451L50.5754 25.0494Z" fill="#457B9D"/>
<path d="M74.8966 29.6838C78.0743 28.8081 81.1524 27.2821 84.1438 25.0971C84.2782 24.9974 84.4342 24.9454 84.5903 24.9367C84.5036 21.8239 83.6669 19.0363 82.0715 16.5826C81.8114 16.7083 81.5469 16.8167 81.2695 16.8947C80.4457 17.1331 79.466 17.2502 78.3561 17.2502C77.0469 17.2502 75.4731 17.0768 73.8561 16.73C74.7058 18.8412 75.1307 21.7112 75.1307 25.3355C75.1307 26.9483 75.0526 28.3963 74.9052 29.6838H74.8966Z" fill="#457B9D"/>
<path d="M84.0917 29.4844C84.3084 28.6564 84.4645 27.811 84.5382 26.9439C81.3214 29.194 78.0136 30.7417 74.6017 31.5827C74.4196 32.4845 74.1855 33.2735 73.9037 33.9671C77.4326 33.1998 80.8358 31.7084 84.0917 29.4888V29.4844Z" fill="#457B9D"/>
<path d="M89.1553 45.486C89.9356 44.0987 89.1293 43.2794 89.1033 42.0785C88.5137 42.3516 87.794 42.8111 87.3041 44.6623C87.2217 44.9745 87.2001 45.3083 87.2608 45.6248C87.2911 45.7765 87.2738 45.9282 87.1827 46.054C87.109 46.158 87.0006 46.2794 86.8706 46.3661C83.7925 48.1089 80.2072 47.0034 76.4528 44.9268C76.3271 44.8748 76.08 44.7577 76.08 44.7577C73.1623 43.4961 70.9687 42.8675 69.4947 42.8675C69.3429 42.8675 69.1305 42.8892 68.8574 42.9369L72.343 40.7736C76.2014 39.8631 79.2101 37.9643 81.3691 35.077C82.2318 33.9238 82.9124 32.7186 83.4327 31.4613C80.1205 33.4946 76.6783 34.8298 73.1103 35.4628C71.775 37.3747 69.7938 38.3328 67.1709 38.3328C64.5481 38.3328 62.7489 37.2793 61.4744 35.1767C61.4657 35.168 61.4613 35.155 61.457 35.142C58.1015 34.405 54.6636 33.1174 51.1433 31.2966C51.5161 32.246 51.9844 33.1694 52.5523 34.0625C54.23 36.6984 56.415 38.5669 59.1029 39.668C61.7908 40.7692 64.2923 41.3198 66.603 41.3198C66.1608 41.6103 65.5712 41.9571 64.8255 42.3689C62.879 43.4788 61.4744 44.4022 60.6073 45.1392C59.7402 45.8762 59.3067 46.5482 59.3067 47.1551C59.3067 47.58 59.4454 47.9485 59.7272 48.2606C60.009 48.5728 60.3558 48.7288 60.7634 48.7288C61.3703 48.7288 62.1897 48.1826 63.2258 47.0858C64.3183 45.9456 65.5495 45.3776 66.9195 45.3776C67.8603 45.3776 68.7577 45.6074 69.6074 46.0626C70.4571 46.5178 71.5063 47.3329 72.7505 48.4991C73.6306 49.3314 74.4673 50.0164 75.2563 50.5713C75.4254 50.7014 75.7852 50.9355 75.7895 50.9355C76.6002 51.4211 77.5237 51.7072 78.4774 51.7809C83.0945 52.1364 86.5801 50.6624 88.2752 47.2158C88.3402 47.0771 88.4096 46.9687 88.4963 46.9167C88.7304 46.7389 89.3027 46.9644 89.7536 46.9037C91.4183 46.7303 91.9039 45.8805 92.3851 45.0178C90.82 44.7013 89.9877 45.0959 89.151 45.4817L89.1553 45.486Z" fill="#FFBF68"/>
<path d="M60.7374 33.6203C60.4599 32.879 60.2301 32.0423 60.0524 31.1015C56.8356 30.1781 53.5147 28.7344 50.0898 26.7662C50.1635 27.7026 50.324 28.613 50.5537 29.5018C54.0306 31.418 57.4295 32.7879 60.7374 33.6203Z" fill="#457B9D"/>
</g>
<path d="M2.256 69.0626V71.3826L2.128 72.6226C2.10133 72.7933 2.05067 72.9266 1.976 73.0226C1.90667 73.1133 1.792 73.1586 1.632 73.1586C1.488 73.1586 1.376 73.1133 1.296 73.0226C1.22133 72.9266 1.17067 72.7933 1.144 72.6226L1.016 71.3826V69.0626H2.256ZM4.92 69.0626V71.3826L4.792 72.6226C4.76533 72.7933 4.71467 72.9266 4.64 73.0226C4.57067 73.1133 4.456 73.1586 4.296 73.1586C4.152 73.1586 4.04 73.1133 3.96 73.0226C3.88533 72.9266 3.83467 72.7933 3.808 72.6226L3.68 71.3826V69.0626H4.92ZM14.3891 79.2626L14.3811 80.5266H7.31708V69.0626H14.3811V70.3266H8.86908V74.1346H13.3331V75.3506H8.86908V79.2626H14.3891ZM15.9279 80.5266V72.4226H16.7839C16.9866 72.4226 17.1119 72.5213 17.1599 72.7186L17.2639 73.5506C17.5626 73.1826 17.8986 72.8813 18.2719 72.6466C18.6452 72.412 19.0772 72.2946 19.5679 72.2946C20.1119 72.2946 20.5519 72.4466 20.8879 72.7506C21.2292 73.0546 21.4746 73.4653 21.6239 73.9826C21.7412 73.6893 21.8906 73.436 22.0719 73.2226C22.2586 73.0093 22.4666 72.8333 22.6959 72.6946C22.9252 72.556 23.1679 72.4546 23.4239 72.3906C23.6852 72.3266 23.9492 72.2946 24.2159 72.2946C24.6426 72.2946 25.0212 72.364 25.3519 72.5026C25.6879 72.636 25.9706 72.8333 26.1999 73.0946C26.4346 73.356 26.6132 73.6786 26.7359 74.0626C26.8586 74.4413 26.9199 74.876 26.9199 75.3666V80.5266H25.4879V75.3666C25.4879 74.732 25.3492 74.252 25.0719 73.9266C24.7946 73.596 24.3946 73.4306 23.8719 73.4306C23.6372 73.4306 23.4132 73.4733 23.1999 73.5586C22.9919 73.6386 22.8079 73.7586 22.6479 73.9186C22.4879 74.0786 22.3599 74.2813 22.2639 74.5266C22.1732 74.7666 22.1279 75.0466 22.1279 75.3666V80.5266H20.6959V75.3666C20.6959 74.716 20.5652 74.2306 20.3039 73.9106C20.0426 73.5906 19.6612 73.4306 19.1599 73.4306C18.8079 73.4306 18.4826 73.5266 18.1839 73.7186C17.8852 73.9053 17.6106 74.1613 17.3599 74.4866V80.5266H15.9279ZM30.4474 78.5746C30.7087 78.9266 30.994 79.1746 31.3034 79.3186C31.618 79.4626 31.962 79.5346 32.3354 79.5346C33.098 79.5346 33.682 79.2653 34.0874 78.7266C34.4927 78.188 34.6954 77.3853 34.6954 76.3186C34.6954 75.3266 34.514 74.5986 34.1514 74.1346C33.794 73.6653 33.282 73.4306 32.6154 73.4306C32.1514 73.4306 31.746 73.5373 31.3994 73.7506C31.058 73.964 30.7407 74.2653 30.4474 74.6546V78.5746ZM30.4474 73.5906C30.7887 73.196 31.1727 72.8813 31.5994 72.6466C32.0314 72.412 32.5274 72.2946 33.0874 72.2946C33.562 72.2946 33.9887 72.3853 34.3674 72.5666C34.7514 72.748 35.0767 73.012 35.3434 73.3586C35.61 73.7 35.8127 74.116 35.9514 74.6066C36.0954 75.0973 36.1674 75.6493 36.1674 76.2626C36.1674 76.9186 36.0874 77.516 35.9274 78.0546C35.7674 78.5933 35.5354 79.0546 35.2314 79.4386C34.9327 79.8173 34.5674 80.1133 34.1354 80.3266C33.7034 80.5346 33.218 80.6386 32.6794 80.6386C32.146 80.6386 31.6954 80.54 31.3274 80.3426C30.9647 80.14 30.6474 79.8546 30.3754 79.4866L30.3034 80.2226C30.2607 80.4253 30.138 80.5266 29.9354 80.5266H29.0154V68.7426H30.4474V73.5906ZM42.2917 76.8786C41.6357 76.9 41.0757 76.9533 40.6117 77.0386C40.153 77.1186 39.777 77.2253 39.4837 77.3586C39.1957 77.492 38.985 77.6493 38.8517 77.8306C38.7237 78.012 38.6597 78.2146 38.6597 78.4386C38.6597 78.652 38.6943 78.836 38.7637 78.9906C38.833 79.1453 38.9263 79.2733 39.0437 79.3746C39.1663 79.4706 39.3077 79.5426 39.4677 79.5906C39.633 79.6333 39.809 79.6546 39.9957 79.6546C40.2463 79.6546 40.4757 79.6306 40.6837 79.5826C40.8917 79.5293 41.0863 79.4546 41.2677 79.3586C41.4543 79.2626 41.6303 79.148 41.7957 79.0146C41.9663 78.8813 42.1317 78.7293 42.2917 78.5586V76.8786ZM37.6917 73.5666C38.1397 73.1346 38.6223 72.812 39.1397 72.5986C39.657 72.3853 40.2303 72.2786 40.8597 72.2786C41.313 72.2786 41.7157 72.3533 42.0677 72.5026C42.4197 72.652 42.7157 72.86 42.9557 73.1266C43.1957 73.3933 43.377 73.716 43.4997 74.0946C43.6223 74.4733 43.6837 74.8893 43.6837 75.3426V80.5266H43.0517C42.913 80.5266 42.8063 80.5053 42.7317 80.4626C42.657 80.4146 42.5983 80.324 42.5557 80.1906L42.3957 79.4226C42.1823 79.62 41.9743 79.796 41.7717 79.9506C41.569 80.1 41.3557 80.228 41.1317 80.3346C40.9077 80.436 40.6677 80.5133 40.4117 80.5666C40.161 80.6253 39.881 80.6546 39.5717 80.6546C39.257 80.6546 38.961 80.612 38.6837 80.5266C38.4063 80.436 38.1637 80.3026 37.9557 80.1266C37.753 79.9506 37.5903 79.7293 37.4677 79.4626C37.3503 79.1906 37.2917 78.8706 37.2917 78.5026C37.2917 78.1826 37.3797 77.876 37.5557 77.5826C37.7317 77.284 38.017 77.02 38.4117 76.7906C38.8063 76.5613 39.321 76.3746 39.9557 76.2306C40.5903 76.0813 41.369 75.996 42.2917 75.9746V75.3426C42.2917 74.7133 42.1557 74.2386 41.8837 73.9186C41.6117 73.5933 41.2143 73.4306 40.6917 73.4306C40.3397 73.4306 40.0437 73.476 39.8037 73.5666C39.569 73.652 39.3637 73.7506 39.1877 73.8626C39.017 73.9693 38.8677 74.068 38.7397 74.1586C38.617 74.244 38.4943 74.2866 38.3717 74.2866C38.2757 74.2866 38.193 74.2626 38.1237 74.2146C38.0543 74.1613 37.9957 74.0973 37.9477 74.0226L37.6917 73.5666ZM47.136 74.0466C47.392 73.492 47.7067 73.06 48.08 72.7506C48.4533 72.436 48.9093 72.2786 49.448 72.2786C49.6187 72.2786 49.7813 72.2973 49.936 72.3346C50.096 72.372 50.2373 72.4306 50.36 72.5106L50.256 73.5746C50.224 73.708 50.144 73.7746 50.016 73.7746C49.9413 73.7746 49.832 73.7586 49.688 73.7266C49.544 73.6946 49.3813 73.6786 49.2 73.6786C48.944 73.6786 48.7147 73.716 48.512 73.7906C48.3147 73.8653 48.136 73.9773 47.976 74.1266C47.8213 74.2706 47.68 74.452 47.552 74.6706C47.4293 74.884 47.3173 75.1293 47.216 75.4066V80.5266H45.784V72.4226H46.6C46.7547 72.4226 46.8613 72.452 46.92 72.5106C46.9787 72.5693 47.0187 72.6706 47.04 72.8146L47.136 74.0466ZM52.9753 68.7426V75.6786H53.3433C53.45 75.6786 53.538 75.6653 53.6073 75.6386C53.682 75.6066 53.7593 75.5453 53.8393 75.4546L56.3993 72.7106C56.474 72.62 56.5513 72.5506 56.6313 72.5026C56.7167 72.4493 56.8287 72.4226 56.9673 72.4226H58.2553L55.2713 75.5986C55.1273 75.78 54.9727 75.9213 54.8073 76.0226C54.9033 76.0866 54.9887 76.1613 55.0633 76.2466C55.1433 76.3266 55.218 76.42 55.2873 76.5266L58.4553 80.5266H57.1833C57.0607 80.5266 56.954 80.508 56.8633 80.4706C56.778 80.428 56.7033 80.3533 56.6393 80.2466L53.9753 76.9266C53.8953 76.8146 53.8153 76.7426 53.7353 76.7106C53.6607 76.6733 53.5433 76.6546 53.3833 76.6546H52.9753V80.5266H51.5433V68.7426H52.9753ZM67.0405 72.2946C67.6325 72.2946 68.1658 72.3933 68.6405 72.5906C69.1151 72.788 69.5205 73.068 69.8565 73.4306C70.1925 73.7933 70.4485 74.2333 70.6245 74.7506C70.8058 75.2626 70.8965 75.836 70.8965 76.4706C70.8965 77.1106 70.8058 77.6866 70.6245 78.1986C70.4485 78.7106 70.1925 79.148 69.8565 79.5106C69.5205 79.8733 69.1151 80.1533 68.6405 80.3506C68.1658 80.5426 67.6325 80.6386 67.0405 80.6386C66.4431 80.6386 65.9045 80.5426 65.4245 80.3506C64.9498 80.1533 64.5445 79.8733 64.2085 79.5106C63.8725 79.148 63.6138 78.7106 63.4325 78.1986C63.2565 77.6866 63.1685 77.1106 63.1685 76.4706C63.1685 75.836 63.2565 75.2626 63.4325 74.7506C63.6138 74.2333 63.8725 73.7933 64.2085 73.4306C64.5445 73.068 64.9498 72.788 65.4245 72.5906C65.9045 72.3933 66.4431 72.2946 67.0405 72.2946ZM67.0405 79.5266C67.8405 79.5266 68.4378 79.26 68.8325 78.7266C69.2271 78.188 69.4245 77.4386 69.4245 76.4786C69.4245 75.5133 69.2271 74.7613 68.8325 74.2226C68.4378 73.684 67.8405 73.4146 67.0405 73.4146C66.6351 73.4146 66.2805 73.484 65.9765 73.6226C65.6778 73.7613 65.4271 73.9613 65.2245 74.2226C65.0271 74.484 64.8778 74.8066 64.7765 75.1906C64.6805 75.5693 64.6325 75.9986 64.6325 76.4786C64.6325 77.4386 64.8298 78.188 65.2245 78.7266C65.6245 79.26 66.2298 79.5266 67.0405 79.5266ZM73.9778 73.5986C74.1538 73.4013 74.3405 73.2226 74.5378 73.0626C74.7351 72.9026 74.9431 72.7666 75.1618 72.6546C75.3858 72.5373 75.6205 72.4493 75.8658 72.3906C76.1165 72.3266 76.3858 72.2946 76.6738 72.2946C77.1165 72.2946 77.5058 72.3693 77.8418 72.5186C78.1831 72.6626 78.4658 72.8706 78.6898 73.1426C78.9191 73.4093 79.0925 73.732 79.2098 74.1106C79.3271 74.4893 79.3858 74.908 79.3858 75.3666V80.5266H77.9538V75.3666C77.9538 74.7533 77.8125 74.2786 77.5298 73.9426C77.2525 73.6013 76.8285 73.4306 76.2578 73.4306C75.8365 73.4306 75.4418 73.532 75.0738 73.7346C74.7111 73.9373 74.3751 74.212 74.0658 74.5586V80.5266H72.6338V72.4226H73.4898C73.6925 72.4226 73.8178 72.5213 73.8658 72.7186L73.9778 73.5986ZM95.1358 69.0626V80.5266H94.3598C94.2372 80.5266 94.1332 80.5053 94.0478 80.4626C93.9678 80.42 93.8878 80.348 93.8078 80.2466L87.1758 71.6066C87.1865 71.74 87.1945 71.8706 87.1998 71.9986C87.2052 72.1266 87.2078 72.2466 87.2078 72.3586V80.5266H85.8478V69.0626H86.6478C86.7172 69.0626 86.7758 69.068 86.8238 69.0786C86.8718 69.084 86.9145 69.0973 86.9518 69.1186C86.9892 69.1346 87.0265 69.1613 87.0638 69.1986C87.1012 69.2306 87.1412 69.2733 87.1838 69.3266L93.8158 77.9586C93.8052 77.82 93.7945 77.6866 93.7838 77.5586C93.7785 77.4253 93.7758 77.3 93.7758 77.1826V69.0626H95.1358ZM102.836 75.5906C102.836 75.26 102.788 74.9586 102.692 74.6866C102.601 74.4093 102.465 74.172 102.284 73.9746C102.108 73.772 101.892 73.6173 101.636 73.5106C101.38 73.3986 101.089 73.3426 100.764 73.3426C100.081 73.3426 99.5398 73.5426 99.1398 73.9426C98.7451 74.3373 98.4998 74.8866 98.4038 75.5906H102.836ZM103.988 79.3906C103.812 79.604 103.601 79.7906 103.356 79.9506C103.11 80.1053 102.846 80.2333 102.564 80.3346C102.286 80.436 101.998 80.5106 101.7 80.5586C101.401 80.612 101.105 80.6386 100.812 80.6386C100.252 80.6386 99.7344 80.5453 99.2598 80.3586C98.7904 80.1666 98.3824 79.8893 98.0358 79.5266C97.6944 79.1586 97.4278 78.7053 97.2358 78.1666C97.0438 77.628 96.9478 77.0093 96.9478 76.3106C96.9478 75.7453 97.0331 75.2173 97.2038 74.7266C97.3798 74.236 97.6304 73.812 97.9558 73.4546C98.2811 73.092 98.6784 72.8093 99.1478 72.6066C99.6171 72.3986 100.145 72.2946 100.732 72.2946C101.217 72.2946 101.665 72.3773 102.076 72.5426C102.492 72.7026 102.849 72.9373 103.148 73.2466C103.452 73.5506 103.689 73.9293 103.86 74.3826C104.03 74.8306 104.116 75.3426 104.116 75.9186C104.116 76.1426 104.092 76.292 104.044 76.3666C103.996 76.4413 103.905 76.4786 103.772 76.4786H98.3558C98.3718 76.9906 98.4411 77.436 98.5638 77.8146C98.6918 78.1933 98.8678 78.5106 99.0918 78.7666C99.3158 79.0173 99.5824 79.2066 99.8918 79.3346C100.201 79.4573 100.548 79.5186 100.932 79.5186C101.289 79.5186 101.596 79.4786 101.852 79.3986C102.113 79.3133 102.337 79.2226 102.524 79.1266C102.71 79.0306 102.865 78.9426 102.988 78.8626C103.116 78.7773 103.225 78.7346 103.316 78.7346C103.433 78.7346 103.524 78.78 103.588 78.8706L103.988 79.3906ZM116.894 72.4226L114.27 80.5266H113.142C113.003 80.5266 112.907 80.436 112.854 80.2546L111.062 74.7586C111.019 74.636 110.985 74.5133 110.958 74.3906C110.931 74.2626 110.905 74.1373 110.878 74.0146C110.851 74.1373 110.825 74.2626 110.798 74.3906C110.771 74.5133 110.737 74.6386 110.694 74.7666L108.87 80.2546C108.822 80.436 108.715 80.5266 108.55 80.5266H107.478L104.854 72.4226H105.974C106.086 72.4226 106.179 72.452 106.254 72.5106C106.334 72.5693 106.387 72.6386 106.414 72.7186L107.966 77.9346C108.057 78.3186 108.129 78.6813 108.182 79.0226C108.23 78.8466 108.278 78.668 108.326 78.4866C108.379 78.3053 108.435 78.1213 108.494 77.9346L110.206 72.6866C110.233 72.6066 110.278 72.54 110.342 72.4866C110.411 72.4333 110.494 72.4066 110.59 72.4066H111.214C111.321 72.4066 111.409 72.4333 111.478 72.4866C111.547 72.54 111.595 72.6066 111.622 72.6866L113.294 77.9346C113.353 78.1213 113.406 78.3053 113.454 78.4866C113.502 78.668 113.547 78.8466 113.59 79.0226C113.617 78.8466 113.649 78.6706 113.686 78.4946C113.729 78.3133 113.774 78.1266 113.822 77.9346L115.406 72.7186C115.433 72.6333 115.483 72.564 115.558 72.5106C115.633 72.452 115.721 72.4226 115.822 72.4226H116.894ZM129.317 79.2626L129.309 80.5266H122.245V69.0626H129.309V70.3266H123.797V74.1346H128.261V75.3506H123.797V79.2626H129.317ZM137.73 80.5266H136.362C136.245 80.5266 136.151 80.4973 136.082 80.4386C136.018 80.3746 135.965 80.3053 135.922 80.2306L133.882 77.0546C133.861 77.1293 133.837 77.204 133.81 77.2786C133.789 77.348 133.757 77.412 133.714 77.4706L131.826 80.2306C131.773 80.3053 131.714 80.3746 131.65 80.4386C131.591 80.4973 131.509 80.5266 131.402 80.5266H130.13L132.97 76.3666L130.242 72.4226H131.61C131.727 72.4226 131.813 72.4413 131.866 72.4786C131.919 72.516 131.967 72.5693 132.01 72.6386L134.002 75.6786C134.045 75.524 134.111 75.3746 134.202 75.2306L135.946 72.6706C135.994 72.596 136.045 72.5373 136.098 72.4946C136.157 72.4466 136.226 72.4226 136.306 72.4226H137.618L134.89 76.2946L137.73 80.5266ZM140.406 78.5746C140.667 78.9266 140.953 79.1746 141.262 79.3186C141.571 79.4626 141.918 79.5346 142.302 79.5346C143.059 79.5346 143.641 79.2653 144.046 78.7266C144.451 78.188 144.654 77.42 144.654 76.4226C144.654 75.8946 144.606 75.4413 144.51 75.0626C144.419 74.684 144.286 74.3746 144.11 74.1346C143.934 73.8893 143.718 73.7106 143.462 73.5986C143.206 73.4866 142.915 73.4306 142.59 73.4306C142.126 73.4306 141.718 73.5373 141.366 73.7506C141.019 73.964 140.699 74.2653 140.406 74.6546V78.5746ZM140.334 73.6786C140.675 73.2573 141.07 72.9186 141.518 72.6626C141.966 72.4066 142.478 72.2786 143.054 72.2786C143.523 72.2786 143.947 72.3693 144.326 72.5506C144.705 72.7266 145.027 72.9906 145.294 73.3426C145.561 73.6893 145.766 74.1213 145.91 74.6386C146.054 75.156 146.126 75.7506 146.126 76.4226C146.126 77.02 146.046 77.5773 145.886 78.0946C145.726 78.6066 145.494 79.052 145.19 79.4306C144.891 79.804 144.523 80.1 144.086 80.3186C143.654 80.532 143.166 80.6386 142.622 80.6386C142.126 80.6386 141.699 80.556 141.342 80.3906C140.99 80.22 140.678 79.9853 140.406 79.6866V83.2706H138.974V72.4226H139.83C140.033 72.4226 140.158 72.5213 140.206 72.7186L140.334 73.6786ZM149.346 68.7426V80.5266H147.922V68.7426H149.346ZM155.002 72.2946C155.594 72.2946 156.128 72.3933 156.602 72.5906C157.077 72.788 157.482 73.068 157.818 73.4306C158.154 73.7933 158.41 74.2333 158.586 74.7506C158.768 75.2626 158.858 75.836 158.858 76.4706C158.858 77.1106 158.768 77.6866 158.586 78.1986C158.41 78.7106 158.154 79.148 157.818 79.5106C157.482 79.8733 157.077 80.1533 156.602 80.3506C156.128 80.5426 155.594 80.6386 155.002 80.6386C154.405 80.6386 153.866 80.5426 153.386 80.3506C152.912 80.1533 152.506 79.8733 152.17 79.5106C151.834 79.148 151.576 78.7106 151.394 78.1986C151.218 77.6866 151.13 77.1106 151.13 76.4706C151.13 75.836 151.218 75.2626 151.394 74.7506C151.576 74.2333 151.834 73.7933 152.17 73.4306C152.506 73.068 152.912 72.788 153.386 72.5906C153.866 72.3933 154.405 72.2946 155.002 72.2946ZM155.002 79.5266C155.802 79.5266 156.4 79.26 156.794 78.7266C157.189 78.188 157.386 77.4386 157.386 76.4786C157.386 75.5133 157.189 74.7613 156.794 74.2226C156.4 73.684 155.802 73.4146 155.002 73.4146C154.597 73.4146 154.242 73.484 153.938 73.6226C153.64 73.7613 153.389 73.9613 153.186 74.2226C152.989 74.484 152.84 74.8066 152.738 75.1906C152.642 75.5693 152.594 75.9986 152.594 76.4786C152.594 77.4386 152.792 78.188 153.186 78.7266C153.586 79.26 154.192 79.5266 155.002 79.5266ZM161.948 74.0466C162.204 73.492 162.518 73.06 162.892 72.7506C163.265 72.436 163.721 72.2786 164.26 72.2786C164.43 72.2786 164.593 72.2973 164.748 72.3346C164.908 72.372 165.049 72.4306 165.172 72.5106L165.068 73.5746C165.036 73.708 164.956 73.7746 164.828 73.7746C164.753 73.7746 164.644 73.7586 164.5 73.7266C164.356 73.6946 164.193 73.6786 164.012 73.6786C163.756 73.6786 163.526 73.716 163.324 73.7906C163.126 73.8653 162.948 73.9773 162.788 74.1266C162.633 74.2706 162.492 74.452 162.364 74.6706C162.241 74.884 162.129 75.1293 162.028 75.4066V80.5266H160.596V72.4226H161.412C161.566 72.4226 161.673 72.452 161.732 72.5106C161.79 72.5693 161.83 72.6706 161.852 72.8146L161.948 74.0466ZM170.622 76.8786C169.966 76.9 169.406 76.9533 168.942 77.0386C168.483 77.1186 168.107 77.2253 167.814 77.3586C167.526 77.492 167.315 77.6493 167.182 77.8306C167.054 78.012 166.99 78.2146 166.99 78.4386C166.99 78.652 167.025 78.836 167.094 78.9906C167.163 79.1453 167.257 79.2733 167.374 79.3746C167.497 79.4706 167.638 79.5426 167.798 79.5906C167.963 79.6333 168.139 79.6546 168.326 79.6546C168.577 79.6546 168.806 79.6306 169.014 79.5826C169.222 79.5293 169.417 79.4546 169.598 79.3586C169.785 79.2626 169.961 79.148 170.126 79.0146C170.297 78.8813 170.462 78.7293 170.622 78.5586V76.8786ZM166.022 73.5666C166.47 73.1346 166.953 72.812 167.47 72.5986C167.987 72.3853 168.561 72.2786 169.19 72.2786C169.643 72.2786 170.046 72.3533 170.398 72.5026C170.75 72.652 171.046 72.86 171.286 73.1266C171.526 73.3933 171.707 73.716 171.83 74.0946C171.953 74.4733 172.014 74.8893 172.014 75.3426V80.5266H171.382C171.243 80.5266 171.137 80.5053 171.062 80.4626C170.987 80.4146 170.929 80.324 170.886 80.1906L170.726 79.4226C170.513 79.62 170.305 79.796 170.102 79.9506C169.899 80.1 169.686 80.228 169.462 80.3346C169.238 80.436 168.998 80.5133 168.742 80.5666C168.491 80.6253 168.211 80.6546 167.902 80.6546C167.587 80.6546 167.291 80.612 167.014 80.5266C166.737 80.436 166.494 80.3026 166.286 80.1266C166.083 79.9506 165.921 79.7293 165.798 79.4626C165.681 79.1906 165.622 78.8706 165.622 78.5026C165.622 78.1826 165.71 77.876 165.886 77.5826C166.062 77.284 166.347 77.02 166.742 76.7906C167.137 76.5613 167.651 76.3746 168.286 76.2306C168.921 76.0813 169.699 75.996 170.622 75.9746V75.3426C170.622 74.7133 170.486 74.2386 170.214 73.9186C169.942 73.5933 169.545 73.4306 169.022 73.4306C168.67 73.4306 168.374 73.476 168.134 73.5666C167.899 73.652 167.694 73.7506 167.518 73.8626C167.347 73.9693 167.198 74.068 167.07 74.1586C166.947 74.244 166.825 74.2866 166.702 74.2866C166.606 74.2866 166.523 74.2626 166.454 74.2146C166.385 74.1613 166.326 74.0973 166.278 74.0226L166.022 73.5666ZM181.525 80.5266H180.101V73.6146H175.925V78.4786C175.925 78.82 176.008 79.0733 176.173 79.2386C176.338 79.404 176.552 79.4866 176.813 79.4866C176.962 79.4866 177.09 79.468 177.197 79.4306C177.309 79.388 177.405 79.3426 177.485 79.2946C177.565 79.2466 177.632 79.204 177.685 79.1666C177.744 79.124 177.794 79.1026 177.837 79.1026C177.912 79.1026 177.978 79.148 178.037 79.2386L178.453 79.9186C178.208 80.148 177.912 80.3293 177.565 80.4626C177.218 80.5906 176.861 80.6546 176.493 80.6546C175.853 80.6546 175.36 80.476 175.013 80.1186C174.672 79.7613 174.501 79.2466 174.501 78.5746V73.6146H173.525C173.44 73.6146 173.368 73.5906 173.309 73.5426C173.25 73.4893 173.221 73.4093 173.221 73.3026V72.7346L174.549 72.5586L174.877 70.0626C174.893 69.9826 174.928 69.9186 174.981 69.8706C175.04 69.8173 175.114 69.7906 175.205 69.7906H175.925V72.5826H181.525V80.5266ZM181.877 69.8226C181.877 69.9613 181.848 70.092 181.789 70.2146C181.736 70.332 181.661 70.436 181.565 70.5266C181.474 70.6173 181.368 70.6893 181.245 70.7426C181.122 70.796 180.992 70.8226 180.853 70.8226C180.714 70.8226 180.584 70.796 180.461 70.7426C180.344 70.6893 180.24 70.6173 180.149 70.5266C180.058 70.436 179.986 70.332 179.933 70.2146C179.88 70.092 179.853 69.9613 179.853 69.8226C179.853 69.684 179.88 69.5533 179.933 69.4306C179.986 69.3026 180.058 69.1933 180.149 69.1026C180.24 69.0066 180.344 68.932 180.461 68.8786C180.584 68.8253 180.714 68.7986 180.853 68.7986C180.992 68.7986 181.122 68.8253 181.245 68.8786C181.368 68.932 181.474 69.0066 181.565 69.1026C181.661 69.1933 181.736 69.3026 181.789 69.4306C181.848 69.5533 181.877 69.684 181.877 69.8226ZM187.212 72.2946C187.804 72.2946 188.337 72.3933 188.812 72.5906C189.286 72.788 189.692 73.068 190.028 73.4306C190.364 73.7933 190.62 74.2333 190.796 74.7506C190.977 75.2626 191.068 75.836 191.068 76.4706C191.068 77.1106 190.977 77.6866 190.796 78.1986C190.62 78.7106 190.364 79.148 190.028 79.5106C189.692 79.8733 189.286 80.1533 188.812 80.3506C188.337 80.5426 187.804 80.6386 187.212 80.6386C186.614 80.6386 186.076 80.5426 185.596 80.3506C185.121 80.1533 184.716 79.8733 184.38 79.5106C184.044 79.148 183.785 78.7106 183.604 78.1986C183.428 77.6866 183.34 77.1106 183.34 76.4706C183.34 75.836 183.428 75.2626 183.604 74.7506C183.785 74.2333 184.044 73.7933 184.38 73.4306C184.716 73.068 185.121 72.788 185.596 72.5906C186.076 72.3933 186.614 72.2946 187.212 72.2946ZM187.212 79.5266C188.012 79.5266 188.609 79.26 189.004 78.7266C189.398 78.188 189.596 77.4386 189.596 76.4786C189.596 75.5133 189.398 74.7613 189.004 74.2226C188.609 73.684 188.012 73.4146 187.212 73.4146C186.806 73.4146 186.452 73.484 186.148 73.6226C185.849 73.7613 185.598 73.9613 185.396 74.2226C185.198 74.484 185.049 74.8066 184.948 75.1906C184.852 75.5693 184.804 75.9986 184.804 76.4786C184.804 77.4386 185.001 78.188 185.396 78.7266C185.796 79.26 186.401 79.5266 187.212 79.5266ZM194.149 73.5986C194.325 73.4013 194.512 73.2226 194.709 73.0626C194.906 72.9026 195.114 72.7666 195.333 72.6546C195.557 72.5373 195.792 72.4493 196.037 72.3906C196.288 72.3266 196.557 72.2946 196.845 72.2946C197.288 72.2946 197.677 72.3693 198.013 72.5186C198.354 72.6626 198.637 72.8706 198.861 73.1426C199.09 73.4093 199.264 73.732 199.381 74.1106C199.498 74.4893 199.557 74.908 199.557 75.3666V80.5266H198.125V75.3666C198.125 74.7533 197.984 74.2786 197.701 73.9426C197.424 73.6013 197 73.4306 196.429 73.4306C196.008 73.4306 195.613 73.532 195.245 73.7346C194.882 73.9373 194.546 74.212 194.237 74.5586V80.5266H192.805V72.4226H193.661C193.864 72.4226 193.989 72.5213 194.037 72.7186L194.149 73.5986ZM206.378 73.7586C206.314 73.876 206.215 73.9346 206.082 73.9346C206.002 73.9346 205.911 73.9053 205.81 73.8466C205.709 73.788 205.583 73.724 205.434 73.6546C205.29 73.58 205.117 73.5133 204.914 73.4546C204.711 73.3906 204.471 73.3586 204.194 73.3586C203.954 73.3586 203.738 73.3906 203.546 73.4546C203.354 73.5133 203.189 73.596 203.05 73.7026C202.917 73.8093 202.813 73.9346 202.738 74.0786C202.669 74.2173 202.634 74.3693 202.634 74.5346C202.634 74.7426 202.693 74.916 202.81 75.0546C202.933 75.1933 203.093 75.3133 203.29 75.4146C203.487 75.516 203.711 75.6066 203.962 75.6866C204.213 75.7613 204.469 75.844 204.73 75.9346C204.997 76.02 205.255 76.116 205.506 76.2226C205.757 76.3293 205.981 76.4626 206.178 76.6226C206.375 76.7826 206.533 76.98 206.65 77.2146C206.773 77.444 206.834 77.7213 206.834 78.0466C206.834 78.42 206.767 78.7666 206.634 79.0866C206.501 79.4013 206.303 79.676 206.042 79.9106C205.781 80.14 205.461 80.3213 205.082 80.4546C204.703 80.588 204.266 80.6546 203.77 80.6546C203.205 80.6546 202.693 80.564 202.234 80.3826C201.775 80.196 201.386 79.9586 201.066 79.6706L201.402 79.1266C201.445 79.0573 201.495 79.004 201.554 78.9666C201.613 78.9293 201.687 78.9106 201.778 78.9106C201.874 78.9106 201.975 78.948 202.082 79.0226C202.189 79.0973 202.317 79.18 202.466 79.2706C202.621 79.3613 202.807 79.444 203.026 79.5186C203.245 79.5933 203.517 79.6306 203.842 79.6306C204.119 79.6306 204.362 79.596 204.57 79.5266C204.778 79.452 204.951 79.3533 205.09 79.2306C205.229 79.108 205.33 78.9666 205.394 78.8066C205.463 78.6466 205.498 78.476 205.498 78.2946C205.498 78.0706 205.437 77.8866 205.314 77.7426C205.197 77.5933 205.039 77.468 204.842 77.3666C204.645 77.26 204.418 77.1693 204.162 77.0946C203.911 77.0146 203.653 76.932 203.386 76.8466C203.125 76.7613 202.866 76.6653 202.61 76.5586C202.359 76.4466 202.135 76.308 201.938 76.1426C201.741 75.9773 201.581 75.7746 201.458 75.5346C201.341 75.2893 201.282 74.9933 201.282 74.6466C201.282 74.3373 201.346 74.0413 201.474 73.7586C201.602 73.4706 201.789 73.22 202.034 73.0066C202.279 72.788 202.581 72.6146 202.938 72.4866C203.295 72.3586 203.703 72.2946 204.162 72.2946C204.695 72.2946 205.173 72.38 205.594 72.5506C206.021 72.716 206.389 72.9453 206.698 73.2386L206.378 73.7586ZM223.384 72.4226L220.76 80.5266H219.632C219.493 80.5266 219.397 80.436 219.344 80.2546L217.552 74.7586C217.509 74.636 217.475 74.5133 217.448 74.3906C217.421 74.2626 217.395 74.1373 217.368 74.0146C217.341 74.1373 217.315 74.2626 217.288 74.3906C217.261 74.5133 217.227 74.6386 217.184 74.7666L215.36 80.2546C215.312 80.436 215.205 80.5266 215.04 80.5266H213.968L211.344 72.4226H212.464C212.576 72.4226 212.669 72.452 212.744 72.5106C212.824 72.5693 212.877 72.6386 212.904 72.7186L214.456 77.9346C214.547 78.3186 214.619 78.6813 214.672 79.0226C214.72 78.8466 214.768 78.668 214.816 78.4866C214.869 78.3053 214.925 78.1213 214.984 77.9346L216.696 72.6866C216.723 72.6066 216.768 72.54 216.832 72.4866C216.901 72.4333 216.984 72.4066 217.08 72.4066H217.704C217.811 72.4066 217.899 72.4333 217.968 72.4866C218.037 72.54 218.085 72.6066 218.112 72.6866L219.784 77.9346C219.843 78.1213 219.896 78.3053 219.944 78.4866C219.992 78.668 220.037 78.8466 220.08 79.0226C220.107 78.8466 220.139 78.6706 220.176 78.4946C220.219 78.3133 220.264 78.1266 220.312 77.9346L221.896 72.7186C221.923 72.6333 221.973 72.564 222.048 72.5106C222.123 72.452 222.211 72.4226 222.312 72.4226H223.384ZM226.206 72.4226V80.5266H224.782V72.4226H226.206ZM226.51 69.8786C226.51 70.0173 226.48 70.148 226.422 70.2706C226.368 70.388 226.294 70.4946 226.198 70.5906C226.107 70.6813 225.998 70.7533 225.87 70.8066C225.747 70.86 225.616 70.8866 225.478 70.8866C225.339 70.8866 225.208 70.86 225.086 70.8066C224.968 70.7533 224.864 70.6813 224.774 70.5906C224.683 70.4946 224.611 70.388 224.558 70.2706C224.504 70.148 224.478 70.0173 224.478 69.8786C224.478 69.74 224.504 69.6093 224.558 69.4866C224.611 69.3586 224.683 69.2493 224.774 69.1586C224.864 69.0626 224.968 68.988 225.086 68.9346C225.208 68.8813 225.339 68.8546 225.478 68.8546C225.616 68.8546 225.747 68.8813 225.87 68.9346C225.998 68.988 226.107 69.0626 226.198 69.1586C226.294 69.2493 226.368 69.3586 226.422 69.4866C226.48 69.6093 226.51 69.74 226.51 69.8786ZM230.965 80.6546C230.325 80.6546 229.831 80.476 229.485 80.1186C229.143 79.7613 228.973 79.2466 228.973 78.5746V73.6146H227.997C227.911 73.6146 227.839 73.5906 227.781 73.5426C227.722 73.4893 227.693 73.4093 227.693 73.3026V72.7346L229.021 72.5666L229.349 70.0626C229.365 69.9826 229.399 69.9186 229.453 69.8706C229.511 69.8173 229.586 69.7906 229.677 69.7906H230.397V72.5826H232.741V73.6146H230.397V78.4786C230.397 78.82 230.479 79.0733 230.645 79.2386C230.81 79.404 231.023 79.4866 231.285 79.4866C231.434 79.4866 231.562 79.468 231.669 79.4306C231.781 79.388 231.877 79.3426 231.957 79.2946C232.037 79.2466 232.103 79.204 232.157 79.1666C232.215 79.124 232.266 79.1026 232.309 79.1026C232.383 79.1026 232.45 79.148 232.509 79.2386L232.925 79.9186C232.679 80.148 232.383 80.3293 232.037 80.4626C231.69 80.5906 231.333 80.6546 230.965 80.6546ZM235.574 73.5026C235.921 73.1346 236.305 72.8413 236.726 72.6226C237.147 72.404 237.633 72.2946 238.182 72.2946C238.625 72.2946 239.014 72.3693 239.35 72.5186C239.691 72.6626 239.974 72.8706 240.198 73.1426C240.427 73.4093 240.601 73.732 240.718 74.1106C240.835 74.4893 240.894 74.908 240.894 75.3666V80.5266H239.462V75.3666C239.462 74.7533 239.321 74.2786 239.038 73.9426C238.761 73.6013 238.337 73.4306 237.766 73.4306C237.345 73.4306 236.95 73.532 236.582 73.7346C236.219 73.9373 235.883 74.212 235.574 74.5586V80.5266H234.142V68.7426H235.574V73.5026ZM248.236 74.7986C248.236 75.5026 248.332 76.1346 248.524 76.6946C248.716 77.2493 248.988 77.7213 249.34 78.1106C249.697 78.4946 250.127 78.7906 250.628 78.9986C251.129 79.2013 251.687 79.3026 252.3 79.3026C252.919 79.3026 253.479 79.2013 253.98 78.9986C254.481 78.7906 254.908 78.4946 255.26 78.1106C255.612 77.7213 255.884 77.2493 256.076 76.6946C256.268 76.1346 256.364 75.5026 256.364 74.7986C256.364 74.0946 256.268 73.4626 256.076 72.9026C255.884 72.3426 255.612 71.8706 255.26 71.4866C254.908 71.0973 254.481 70.7986 253.98 70.5906C253.479 70.3826 252.919 70.2786 252.3 70.2786C251.687 70.2786 251.129 70.3826 250.628 70.5906C250.127 70.7986 249.697 71.0973 249.34 71.4866C248.988 71.8706 248.716 72.3426 248.524 72.9026C248.332 73.4626 248.236 74.0946 248.236 74.7986ZM258.484 82.8946H257.204C257.012 82.8946 256.841 82.868 256.692 82.8146C256.543 82.7613 256.407 82.668 256.284 82.5346L254.276 80.3426C253.668 80.5453 253.009 80.6466 252.3 80.6466C251.457 80.6466 250.689 80.5053 249.996 80.2226C249.303 79.9346 248.708 79.532 248.212 79.0146C247.716 78.4973 247.332 77.8813 247.06 77.1666C246.788 76.4466 246.652 75.6573 246.652 74.7986C246.652 73.94 246.788 73.1533 247.06 72.4386C247.332 71.7186 247.716 71.1 248.212 70.5826C248.708 70.06 249.303 69.6546 249.996 69.3666C250.689 69.0786 251.457 68.9346 252.3 68.9346C253.143 68.9346 253.911 69.0786 254.604 69.3666C255.303 69.6546 255.9 70.06 256.396 70.5826C256.892 71.1 257.276 71.7186 257.548 72.4386C257.82 73.1533 257.956 73.94 257.956 74.7986C257.956 75.3373 257.9 75.8493 257.788 76.3346C257.681 76.82 257.524 77.2733 257.316 77.6946C257.108 78.1106 256.855 78.4893 256.556 78.8306C256.257 79.172 255.921 79.468 255.548 79.7186L258.484 82.8946ZM266.303 72.4226V80.5266H265.455C265.252 80.5266 265.124 80.428 265.071 80.2306L264.959 79.3586C264.607 79.748 264.212 80.0626 263.775 80.3026C263.338 80.5373 262.836 80.6546 262.271 80.6546C261.828 80.6546 261.436 80.5826 261.095 80.4386C260.759 80.2893 260.476 80.0813 260.247 79.8146C260.018 79.548 259.844 79.2253 259.727 78.8466C259.615 78.468 259.559 78.0493 259.559 77.5906V72.4226H260.983V77.5906C260.983 78.204 261.122 78.6786 261.399 79.0146C261.682 79.3506 262.111 79.5186 262.687 79.5186C263.108 79.5186 263.5 79.42 263.863 79.2226C264.231 79.02 264.57 78.7426 264.879 78.3906V72.4226H266.303ZM272.884 76.8786C272.228 76.9 271.668 76.9533 271.204 77.0386C270.745 77.1186 270.369 77.2253 270.076 77.3586C269.788 77.492 269.577 77.6493 269.444 77.8306C269.316 78.012 269.252 78.2146 269.252 78.4386C269.252 78.652 269.287 78.836 269.356 78.9906C269.425 79.1453 269.519 79.2733 269.636 79.3746C269.759 79.4706 269.9 79.5426 270.06 79.5906C270.225 79.6333 270.401 79.6546 270.588 79.6546C270.839 79.6546 271.068 79.6306 271.276 79.5826C271.484 79.5293 271.679 79.4546 271.86 79.3586C272.047 79.2626 272.223 79.148 272.388 79.0146C272.559 78.8813 272.724 78.7293 272.884 78.5586V76.8786ZM268.284 73.5666C268.732 73.1346 269.215 72.812 269.732 72.5986C270.249 72.3853 270.823 72.2786 271.452 72.2786C271.905 72.2786 272.308 72.3533 272.66 72.5026C273.012 72.652 273.308 72.86 273.548 73.1266C273.788 73.3933 273.969 73.716 274.092 74.0946C274.215 74.4733 274.276 74.8893 274.276 75.3426V80.5266H273.644C273.505 80.5266 273.399 80.5053 273.324 80.4626C273.249 80.4146 273.191 80.324 273.148 80.1906L272.988 79.4226C272.775 79.62 272.567 79.796 272.364 79.9506C272.161 80.1 271.948 80.228 271.724 80.3346C271.5 80.436 271.26 80.5133 271.004 80.5666C270.753 80.6253 270.473 80.6546 270.164 80.6546C269.849 80.6546 269.553 80.612 269.276 80.5266C268.999 80.436 268.756 80.3026 268.548 80.1266C268.345 79.9506 268.183 79.7293 268.06 79.4626C267.943 79.1906 267.884 78.8706 267.884 78.5026C267.884 78.1826 267.972 77.876 268.148 77.5826C268.324 77.284 268.609 77.02 269.004 76.7906C269.399 76.5613 269.913 76.3746 270.548 76.2306C271.183 76.0813 271.961 75.996 272.884 75.9746V75.3426C272.884 74.7133 272.748 74.2386 272.476 73.9186C272.204 73.5933 271.807 73.4306 271.284 73.4306C270.932 73.4306 270.636 73.476 270.396 73.5666C270.161 73.652 269.956 73.7506 269.78 73.8626C269.609 73.9693 269.46 74.068 269.332 74.1586C269.209 74.244 269.087 74.2866 268.964 74.2866C268.868 74.2866 268.785 74.2626 268.716 74.2146C268.647 74.1613 268.588 74.0973 268.54 74.0226L268.284 73.5666ZM282.016 73.8626C281.974 73.9213 281.931 73.9666 281.888 73.9986C281.846 74.0306 281.787 74.0466 281.712 74.0466C281.632 74.0466 281.544 74.0146 281.448 73.9506C281.352 73.8813 281.232 73.8066 281.088 73.7266C280.95 73.6466 280.776 73.5746 280.568 73.5106C280.366 73.4413 280.115 73.4066 279.816 73.4066C279.416 73.4066 279.064 73.4786 278.76 73.6226C278.456 73.7613 278.2 73.964 277.992 74.2306C277.79 74.4973 277.635 74.82 277.528 75.1986C277.427 75.5773 277.376 76.0013 277.376 76.4706C277.376 76.9613 277.432 77.3986 277.544 77.7826C277.656 78.1613 277.814 78.4813 278.016 78.7426C278.224 78.9986 278.472 79.196 278.76 79.3346C279.054 79.468 279.382 79.5346 279.744 79.5346C280.091 79.5346 280.376 79.4946 280.6 79.4146C280.824 79.3293 281.008 79.236 281.152 79.1346C281.302 79.0333 281.424 78.9426 281.52 78.8626C281.622 78.7773 281.72 78.7346 281.816 78.7346C281.934 78.7346 282.024 78.78 282.088 78.8706L282.488 79.3906C282.312 79.6093 282.112 79.796 281.888 79.9506C281.664 80.1053 281.422 80.236 281.16 80.3426C280.904 80.444 280.635 80.5186 280.352 80.5666C280.07 80.6146 279.782 80.6386 279.488 80.6386C278.982 80.6386 278.51 80.5453 278.072 80.3586C277.64 80.172 277.264 79.9026 276.944 79.5506C276.624 79.1933 276.374 78.756 276.192 78.2386C276.011 77.7213 275.92 77.132 275.92 76.4706C275.92 75.868 276.003 75.3106 276.168 74.7986C276.339 74.2866 276.584 73.8466 276.904 73.4786C277.23 73.1053 277.627 72.8146 278.096 72.6066C278.571 72.3986 279.115 72.2946 279.728 72.2946C280.299 72.2946 280.8 72.388 281.232 72.5746C281.67 72.756 282.056 73.0146 282.392 73.3506L282.016 73.8626ZM285.38 68.7426V75.6786H285.748C285.855 75.6786 285.943 75.6653 286.012 75.6386C286.087 75.6066 286.164 75.5453 286.244 75.4546L288.804 72.7106C288.879 72.62 288.956 72.5506 289.036 72.5026C289.121 72.4493 289.233 72.4226 289.372 72.4226H290.66L287.676 75.5986C287.532 75.78 287.377 75.9213 287.212 76.0226C287.308 76.0866 287.393 76.1613 287.468 76.2466C287.548 76.3266 287.623 76.42 287.692 76.5266L290.86 80.5266H289.588C289.465 80.5266 289.359 80.508 289.268 80.4706C289.183 80.428 289.108 80.3533 289.044 80.2466L286.38 76.9266C286.3 76.8146 286.22 76.7426 286.14 76.7106C286.065 76.6733 285.948 76.6546 285.788 76.6546H285.38V80.5266H283.948V68.7426H285.38ZM296.975 75.5906C296.975 75.26 296.927 74.9586 296.831 74.6866C296.74 74.4093 296.604 74.172 296.423 73.9746C296.247 73.772 296.031 73.6173 295.775 73.5106C295.519 73.3986 295.228 73.3426 294.903 73.3426C294.22 73.3426 293.679 73.5426 293.279 73.9426C292.884 74.3373 292.639 74.8866 292.543 75.5906H296.975ZM298.127 79.3906C297.951 79.604 297.74 79.7906 297.495 79.9506C297.25 80.1053 296.986 80.2333 296.703 80.3346C296.426 80.436 296.138 80.5106 295.839 80.5586C295.54 80.612 295.244 80.6386 294.951 80.6386C294.391 80.6386 293.874 80.5453 293.399 80.3586C292.93 80.1666 292.522 79.8893 292.175 79.5266C291.834 79.1586 291.567 78.7053 291.375 78.1666C291.183 77.628 291.087 77.0093 291.087 76.3106C291.087 75.7453 291.172 75.2173 291.343 74.7266C291.519 74.236 291.77 73.812 292.095 73.4546C292.42 73.092 292.818 72.8093 293.287 72.6066C293.756 72.3986 294.284 72.2946 294.871 72.2946C295.356 72.2946 295.804 72.3773 296.215 72.5426C296.631 72.7026 296.988 72.9373 297.287 73.2466C297.591 73.5506 297.828 73.9293 297.999 74.3826C298.17 74.8306 298.255 75.3426 298.255 75.9186C298.255 76.1426 298.231 76.292 298.183 76.3666C298.135 76.4413 298.044 76.4786 297.911 76.4786H292.495C292.511 76.9906 292.58 77.436 292.703 77.8146C292.831 78.1933 293.007 78.5106 293.231 78.7666C293.455 79.0173 293.722 79.2066 294.031 79.3346C294.34 79.4573 294.687 79.5186 295.071 79.5186C295.428 79.5186 295.735 79.4786 295.991 79.3986C296.252 79.3133 296.476 79.2226 296.663 79.1266C296.85 79.0306 297.004 78.9426 297.127 78.8626C297.255 78.7773 297.364 78.7346 297.455 78.7346C297.572 78.7346 297.663 78.78 297.727 78.8706L298.127 79.3906ZM301.287 74.0466C301.543 73.492 301.858 73.06 302.231 72.7506C302.605 72.436 303.061 72.2786 303.599 72.2786C303.77 72.2786 303.933 72.2973 304.087 72.3346C304.247 72.372 304.389 72.4306 304.511 72.5106L304.407 73.5746C304.375 73.708 304.295 73.7746 304.167 73.7746C304.093 73.7746 303.983 73.7586 303.839 73.7266C303.695 73.6946 303.533 73.6786 303.351 73.6786C303.095 73.6786 302.866 73.716 302.663 73.7906C302.466 73.8653 302.287 73.9773 302.127 74.1266C301.973 74.2706 301.831 74.452 301.703 74.6706C301.581 74.884 301.469 75.1293 301.367 75.4066V80.5266H299.935V72.4226H300.751C300.906 72.4226 301.013 72.452 301.071 72.5106C301.13 72.5693 301.17 72.6706 301.191 72.8146L301.287 74.0466ZM310.368 73.7586C310.304 73.876 310.205 73.9346 310.072 73.9346C309.992 73.9346 309.901 73.9053 309.8 73.8466C309.699 73.788 309.573 73.724 309.424 73.6546C309.28 73.58 309.107 73.5133 308.904 73.4546C308.701 73.3906 308.461 73.3586 308.184 73.3586C307.944 73.3586 307.728 73.3906 307.536 73.4546C307.344 73.5133 307.179 73.596 307.04 73.7026C306.907 73.8093 306.803 73.9346 306.728 74.0786C306.659 74.2173 306.624 74.3693 306.624 74.5346C306.624 74.7426 306.683 74.916 306.8 75.0546C306.923 75.1933 307.083 75.3133 307.28 75.4146C307.477 75.516 307.701 75.6066 307.952 75.6866C308.203 75.7613 308.459 75.844 308.72 75.9346C308.987 76.02 309.245 76.116 309.496 76.2226C309.747 76.3293 309.971 76.4626 310.168 76.6226C310.365 76.7826 310.523 76.98 310.64 77.2146C310.763 77.444 310.824 77.7213 310.824 78.0466C310.824 78.42 310.757 78.7666 310.624 79.0866C310.491 79.4013 310.293 79.676 310.032 79.9106C309.771 80.14 309.451 80.3213 309.072 80.4546C308.693 80.588 308.256 80.6546 307.76 80.6546C307.195 80.6546 306.683 80.564 306.224 80.3826C305.765 80.196 305.376 79.9586 305.056 79.6706L305.392 79.1266C305.435 79.0573 305.485 79.004 305.544 78.9666C305.603 78.9293 305.677 78.9106 305.768 78.9106C305.864 78.9106 305.965 78.948 306.072 79.0226C306.179 79.0973 306.307 79.18 306.456 79.2706C306.611 79.3613 306.797 79.444 307.016 79.5186C307.235 79.5933 307.507 79.6306 307.832 79.6306C308.109 79.6306 308.352 79.596 308.56 79.5266C308.768 79.452 308.941 79.3533 309.08 79.2306C309.219 79.108 309.32 78.9666 309.384 78.8066C309.453 78.6466 309.488 78.476 309.488 78.2946C309.488 78.0706 309.427 77.8866 309.304 77.7426C309.187 77.5933 309.029 77.468 308.832 77.3666C308.635 77.26 308.408 77.1693 308.152 77.0946C307.901 77.0146 307.643 76.932 307.376 76.8466C307.115 76.7613 306.856 76.6653 306.6 76.5586C306.349 76.4466 306.125 76.308 305.928 76.1426C305.731 75.9773 305.571 75.7746 305.448 75.5346C305.331 75.2893 305.272 74.9933 305.272 74.6466C305.272 74.3373 305.336 74.0413 305.464 73.7586C305.592 73.4706 305.779 73.22 306.024 73.0066C306.269 72.788 306.571 72.6146 306.928 72.4866C307.285 72.3586 307.693 72.2946 308.152 72.2946C308.685 72.2946 309.163 72.38 309.584 72.5506C310.011 72.716 310.379 72.9453 310.688 73.2386L310.368 73.7586ZM314.213 69.0626V73.6386C314.213 73.8786 314.208 74.1133 314.197 74.3426C314.186 74.572 314.173 74.804 314.157 75.0386C314.141 75.268 314.12 75.5053 314.093 75.7506C314.072 75.9906 314.045 76.2493 314.013 76.5266H313.053C313.021 76.2493 312.992 75.9906 312.965 75.7506C312.944 75.5053 312.925 75.268 312.909 75.0386C312.893 74.804 312.88 74.572 312.869 74.3426C312.858 74.1133 312.853 73.8786 312.853 73.6386V69.0626H314.213ZM312.509 79.6466C312.509 79.508 312.533 79.3773 312.581 79.2546C312.634 79.132 312.706 79.0253 312.797 78.9346C312.888 78.844 312.992 78.772 313.109 78.7186C313.232 78.6653 313.365 78.6386 313.509 78.6386C313.648 78.6386 313.776 78.6653 313.893 78.7186C314.016 78.772 314.122 78.844 314.213 78.9346C314.304 79.0253 314.376 79.132 314.429 79.2546C314.482 79.3773 314.509 79.508 314.509 79.6466C314.509 79.7906 314.482 79.924 314.429 80.0466C314.376 80.164 314.304 80.268 314.213 80.3586C314.122 80.4493 314.016 80.5186 313.893 80.5666C313.776 80.62 313.648 80.6466 313.509 80.6466C313.365 80.6466 313.232 80.62 313.109 80.5666C312.992 80.5186 312.888 80.4493 312.797 80.3586C312.706 80.268 312.634 80.164 312.581 80.0466C312.533 79.924 312.509 79.7906 312.509 79.6466Z" fill="#0B1828"/>
<defs>
<clipPath id="clip0_702_10581">
<rect width="216.332" height="58.5266" fill="white" transform="translate(49.8341)"/>
</clipPath>
</defs>
</svg>
