<svg width="96" height="96" viewBox="0 0 96 96" fill="none" xmlns="http://www.w3.org/2000/svg">
<path d="M41.3568 15.6232C43.0764 8.01034 53.9236 8.01034 55.6432 15.6232C56.7577 20.5571 62.4196 22.9023 66.6964 20.2016C73.2955 16.0344 80.9656 23.7045 76.7984 30.3036C74.0977 34.5804 76.4429 40.2423 81.3768 41.3568C88.9897 43.0764 88.9897 53.9236 81.3768 55.6432C76.4429 56.7577 74.0977 62.4196 76.7984 66.6964C80.9656 73.2955 73.2955 80.9656 66.6964 76.7984C62.4196 74.0977 56.7577 76.4429 55.6432 81.3768C53.9236 88.9897 43.0764 88.9897 41.3568 81.3768C40.2423 76.4429 34.5804 74.0977 30.3036 76.7984C23.7045 80.9656 16.0344 73.2955 20.2016 66.6964C22.9023 62.4196 20.5571 56.7577 15.6232 55.6432C8.01034 53.9236 8.01034 43.0764 15.6232 41.3568C20.5571 40.2423 22.9023 34.5804 20.2016 30.3036C16.0344 23.7045 23.7045 16.0344 30.3036 20.2016C34.5804 22.9023 40.2423 20.5571 41.3568 15.6232Z" fill="#FFBF68"/>
<path d="M39.5364 57.6678C41.6761 58.5923 44.0006 59.2989 46.9788 59.2263C47.5798 59.2131 48.1873 59.2065 48.7882 59.2527C52.2882 59.4971 55.4448 58.5395 58.2316 56.2811C58.7334 55.8716 59.1891 55.4094 59.5853 54.9009C68.4607 43.6085 57.5712 27.2908 42.343 31.7549C34.0488 34.5218 28.0262 47.8085 38.8232 57.2188C39.0346 57.4037 39.2789 57.5556 39.5364 57.6678Z" fill="#F5FDF8"/>
<path d="M39.4639 33.1879C34.1215 36.8001 30.7998 44.8368 34.7026 52.1604C33.0451 44.368 50.4656 33.8879 55.7882 35.2152C50.9939 31.986 44.628 30.5266 39.4639 33.1879Z" fill="#E53945"/>
<path d="M46.9788 59.2263C47.5798 59.2131 48.1873 59.2065 48.7882 59.2527C51.8325 59.4641 54.6127 58.7707 57.1155 57.1065C61.4277 51.5264 60.5957 41.4161 55.7948 35.2152C51.6674 42.1491 45.6779 49.5717 38.8298 57.2188C39.0412 57.4037 39.2855 57.5556 39.543 57.6678C41.6826 58.5923 44.0071 59.2989 46.9854 59.2263H46.9788Z" fill="#6397B0"/>
<path d="M55.7883 35.2152C58.7732 37.051 60.477 38.5831 61.5005 40.0293C60.8996 38.6755 60.0939 37.4142 59.1166 36.2784C58.1062 35.7699 56.9836 35.4331 55.7883 35.2086V35.2152Z" fill="#E53945"/>
<path d="M53.6289 32.2567C54.6459 33.3596 55.4383 34.3765 55.7883 35.2152C56.0723 34.8322 56.3496 34.6143 57.4723 34.6539C56.3364 33.6831 55.0487 32.8709 53.6289 32.2567Z" fill="#6397B0"/>
<path d="M57.1028 36.3892C57.3107 36.0291 56.8903 35.3972 56.1639 34.9778C55.4374 34.5584 54.68 34.5103 54.4721 34.8703C54.2642 35.2304 54.6846 35.8623 55.4111 36.2817C56.1375 36.7012 56.8949 36.7493 57.1028 36.3892Z" fill="#FFBF68"/>
<g style="mix-blend-mode:multiply">
<path d="M60.3579 37.9492C61.474 46.3557 58.4495 49.0368 54.3155 52.2198C52.6778 53.4811 50.7628 54.3396 48.7288 54.6962C44.0138 55.515 42.7128 57.0405 38.8232 57.2122C39.0346 57.3971 39.2789 57.549 39.5364 57.6612C41.676 58.5857 43.9939 59.2923 46.9656 59.2197C47.4543 59.2065 48.2599 59.2065 48.7486 59.2395C52.2618 59.4905 55.4316 58.5395 58.2249 56.2679C58.707 55.8716 59.1495 55.4292 59.5391 54.9339C63.8645 49.4792 63.5475 42.8425 60.3579 37.9359V37.9492Z" fill="#BAB2AE"/>
</g>
<path d="M29.042 54.1027C28.8863 54.6478 28.1137 54.6478 27.958 54.1027C27.8179 53.6126 27.5553 53.1663 27.1948 52.8058C26.8344 52.4454 26.3881 52.1828 25.898 52.0427C25.3527 51.8868 25.352 51.1138 25.8973 50.958C26.3874 50.8179 26.8337 50.5553 27.1942 50.1948C27.5546 49.8344 27.8172 49.3881 27.9573 48.898C28.1132 48.3527 28.8862 48.352 29.042 48.8973C29.1821 49.3874 29.4447 49.8337 29.8052 50.1942C30.1656 50.5546 30.6119 50.8172 31.102 50.9573C31.6473 51.1132 31.648 51.8862 31.1027 52.042C30.6126 52.1821 30.1663 52.4447 29.8058 52.8052C29.4454 53.1656 29.1821 53.6126 29.042 54.1027ZM34.6727 49.31C34.6277 49.4897 34.3723 49.4897 34.3273 49.31C34.2285 48.9144 34.024 48.5531 33.7357 48.2647C33.4475 47.9763 33.0862 47.7717 32.6907 47.6727C32.5109 47.6277 32.5109 47.3723 32.6907 47.3273C33.0862 47.2283 33.4475 47.0237 33.7357 46.7353C34.024 46.4469 34.2285 46.0856 34.3273 45.69C34.3723 45.5103 34.6277 45.5103 34.6727 45.69C34.7716 46.0857 34.9761 46.4471 35.2645 46.7355C35.5529 47.0239 35.9143 47.2284 36.31 47.3273C36.4897 47.3723 36.4897 47.6277 36.31 47.6727C35.9143 47.7716 35.5529 47.9761 35.2645 48.2645C34.9761 48.5529 34.7716 48.9143 34.6727 49.31ZM33.7627 57.2113C33.6786 57.4638 33.3214 57.4638 33.2373 57.2113C33.1637 56.9904 33.0396 56.7897 32.875 56.625C32.7103 56.4604 32.5096 56.3363 32.2887 56.2627C32.0362 56.1786 32.0362 55.8214 32.2887 55.7373C32.5096 55.6637 32.7103 55.5396 32.875 55.375C33.0396 55.2103 33.1637 55.0096 33.2373 54.7887C33.3214 54.5362 33.6786 54.5362 33.7627 54.7887C33.8363 55.0096 33.9604 55.2103 34.125 55.375C34.2897 55.5396 34.4904 55.6637 34.7113 55.7373C34.9638 55.8214 34.9638 56.1786 34.7113 56.2627C34.4904 56.3363 34.2897 56.4604 34.125 56.625C33.9604 56.7897 33.8363 56.9904 33.7627 57.2113Z" fill="#FFFDFB"/>
<path d="M57.8493 55.8199C57.8493 56.3989 57.3799 56.8682 56.801 56.8682H54.8209C54.5636 56.8682 54.355 57.0768 54.355 57.3341V59.4369C54.355 60.0941 53.8222 60.6269 53.1651 60.6269C52.5079 60.6269 51.9751 60.0941 51.9751 59.4369V57.3316C51.9751 57.0756 51.7677 56.8682 51.5117 56.8682H49.548C48.9691 56.8682 48.4998 56.3989 48.4998 55.8199C48.4998 55.241 48.9691 54.7716 49.548 54.7716H51.5117C51.7677 54.7716 51.9751 54.5642 51.9751 54.3082V52.2218C51.9751 51.5646 52.5079 51.0318 53.1651 51.0318C53.8222 51.0318 54.355 51.5646 54.355 52.2218V54.3057C54.355 54.563 54.5636 54.7716 54.8209 54.7716H56.801C57.3799 54.7716 57.8493 55.241 57.8493 55.8199Z" fill="#1D3557"/>
<path d="M65.7362 59.8922V61.6939H59.0602V59.8922H61.3123V53.9803C61.3123 53.8302 61.315 53.68 61.3204 53.5299C61.3257 53.3744 61.3338 53.2189 61.3445 53.0634L60.0093 54.1734C59.8913 54.2645 59.7734 54.3208 59.6554 54.3423C59.5428 54.3584 59.4355 54.3584 59.3337 54.3423C59.2318 54.3208 59.1406 54.286 59.0602 54.2377C58.9797 54.1841 58.9208 54.1305 58.8832 54.0769L58.095 53.0312L61.7467 49.9667H63.8058V59.8922H65.7362Z" fill="#1D3557"/>
</svg>
