<svg width="33" height="33" viewBox="0 0 33 33" fill="none" xmlns="http://www.w3.org/2000/svg">
<g id="Frame">
<path id="Vector" d="M22.0317 12.8535H28.8957L24.5218 8.47685C23.1136 7.06868 21.3596 6.05602 19.4359 5.54069C17.5123 5.02535 15.4869 5.0255 13.5634 5.54112C11.6399 6.05674 9.88595 7.06966 8.478 8.47805C7.07005 9.88643 6.05768 11.6407 5.54265 13.5644M4.1044 27.0105V20.1465M4.1044 20.1465H10.9684M4.1044 20.1465L8.4769 24.5231C9.88506 25.9313 11.6391 26.9439 13.5627 27.4593C15.4864 27.9746 17.5117 27.9745 19.4353 27.4588C21.3588 26.9432 23.1127 25.9303 24.5207 24.5219C25.9286 23.1135 26.941 21.3593 27.456 19.4356M28.8957 5.98948V12.8507" stroke="white" stroke-width="3.5" stroke-linecap="round" stroke-linejoin="round"/>
</g>
</svg>
