<svg width="96" height="96" viewBox="0 0 96 96" fill="none" xmlns="http://www.w3.org/2000/svg">
<path d="M41.3568 15.6232C43.0764 8.01034 53.9236 8.01034 55.6432 15.6232C56.7577 20.5571 62.4196 22.9023 66.6964 20.2016C73.2955 16.0344 80.9656 23.7045 76.7984 30.3036C74.0977 34.5804 76.4429 40.2423 81.3768 41.3568C88.9897 43.0764 88.9897 53.9236 81.3768 55.6432C76.4429 56.7577 74.0977 62.4196 76.7984 66.6964C80.9656 73.2955 73.2955 80.9656 66.6964 76.7984C62.4196 74.0977 56.7577 76.4429 55.6432 81.3768C53.9236 88.9897 43.0764 88.9897 41.3568 81.3768C40.2423 76.4429 34.5804 74.0977 30.3036 76.7984C23.7045 80.9656 16.0344 73.2955 20.2016 66.6964C22.9023 62.4196 20.5571 56.7577 15.6232 55.6432C8.01034 53.9236 8.01034 43.0764 15.6232 41.3568C20.5571 40.2423 22.9023 34.5804 20.2016 30.3036C16.0344 23.7045 23.7045 16.0344 30.3036 20.2016C34.5804 22.9023 40.2423 20.5571 41.3568 15.6232Z" fill="#FFBF68"/>
<g style="mix-blend-mode:multiply">
<path d="M39.1885 58.3919C39.2115 58.4033 39.2306 58.4148 39.2535 58.4263C39.3874 58.4951 39.525 58.5678 39.6665 58.6366C39.6933 58.6481 39.7162 58.6595 39.743 58.6748C39.8883 58.7437 40.0336 58.8125 40.1827 58.8813C40.1942 58.8851 40.2057 58.8928 40.2171 58.8966C40.3701 58.9654 40.523 59.0304 40.6836 59.0954C40.6951 59.0993 40.7066 59.1031 40.7142 59.1107C40.8748 59.1758 41.0393 59.2408 41.2037 59.3058C41.2228 59.3134 41.2457 59.3211 41.2649 59.3287C41.4331 59.3899 41.6014 59.4511 41.7734 59.5122C41.7849 59.5161 41.8002 59.5199 41.8117 59.5237C42.1749 59.6461 42.5497 59.7646 42.932 59.8717C42.9397 59.8717 42.9435 59.8717 42.9512 59.8755C43.1424 59.929 43.3374 59.9788 43.5362 60.0285C43.5439 60.0285 43.5515 60.0285 43.5592 60.0323C44.1671 60.1814 44.7942 60.3076 45.4405 60.4032C45.9299 60.4759 46.427 60.5332 46.9318 60.5714C46.9547 60.5714 46.9815 60.5714 47.0044 60.5753C47.4059 60.6059 47.8112 60.625 48.2242 60.6288C48.2357 60.6288 48.251 60.6288 48.2625 60.6288C48.4689 60.6288 48.6792 60.6288 48.8896 60.6288C48.8972 60.6288 48.9049 60.6288 48.9125 60.6288C49.3408 60.6212 49.7729 60.5982 50.2088 60.56C50.2164 60.56 50.2241 60.56 50.2317 60.56C50.6065 60.5294 50.9812 60.4873 51.3598 60.43C52.4266 60.277 53.5087 60.0285 54.5871 59.6728C55.9636 59.2216 57.3402 58.5907 58.6824 57.7533C60.2731 56.7629 61.8179 55.4858 63.2748 53.8568C61.5349 52.9888 59.841 52.7708 58.2006 53.3368C56.4416 53.0156 54.8318 53.0041 53.6273 53.8339C52.0022 53.6121 50.4459 53.3177 47.6392 54.4036C47.578 54.4266 47.513 54.4533 47.448 54.4801C47.3944 54.503 47.3409 54.5222 47.2874 54.5451C47.1077 54.6216 46.9203 54.6981 46.7291 54.786C45.3716 54.6407 43.8765 54.9772 42.2399 55.784C39.7506 56.7132 39.0662 57.4589 38.7603 58.1663C38.8941 58.2427 39.0279 58.3154 39.1694 58.3919H39.1885Z" fill="#BAB2AE"/>
</g>
<path d="M30.0038 43.479C32.1566 44.542 34.1756 44.5917 36.0225 43.4101C38.1256 43.609 40.0146 43.3451 41.3185 41.8271C43.4522 41.8997 45.4979 42.133 49.2874 39.116C50.8972 39.1083 52.6103 38.313 54.4227 36.7567C57.218 34.8563 57.9254 33.5561 58.1892 32.3861L50.6142 32.214L40.4123 36.0072L34.1412 38.6686L31.1854 41.808L30 43.479H30.0038Z" fill="#427B9D"/>
<path d="M44.4502 35.5178L47.601 39.3531L48.274 39.8731C48.599 39.6437 48.9355 39.3913 49.2912 39.1122C50.901 39.1045 52.6141 38.3092 54.4265 36.7529C53.4821 35.7205 51.6466 34.558 49.6429 33.3688L44.4502 35.5178Z" fill="white"/>
<path d="M44.8593 34.7607L41.0929 37.4985L40.5537 40.4964L41.3185 41.8271C43.4522 41.8997 45.4979 42.133 49.2873 39.116C47.9949 37.1964 46.5418 35.6899 44.8555 34.7645L44.8593 34.7607Z" fill="#E53945"/>
<path d="M41.3759 37.6209L37.8886 38.0033L35.3037 42.4083L36.0226 43.4102C38.1257 43.609 40.0147 43.3451 41.3186 41.8271C41.0394 40.2249 41.1197 38.8674 41.3721 37.6247L41.3759 37.6209Z" fill="white"/>
<path d="M33.1355 39.7431L31.193 41.8079L30.0076 43.479C32.1604 44.542 34.1794 44.5917 36.0263 43.4101C36.2289 41.502 37.1772 39.7699 38.4238 38.1141L33.1355 39.7431Z" fill="#427B9D"/>
<g style="mix-blend-mode:multiply">
<path d="M30.0038 43.479C32.1566 44.542 34.1756 44.5917 36.0225 43.4101C38.1256 43.609 40.0146 43.3451 41.3185 41.8271C43.4522 41.8997 45.4979 42.133 49.2874 39.116C50.8972 39.1083 52.6103 38.313 54.4227 36.7567C57.218 34.8563 57.9254 33.5561 58.1892 32.3861L50.6142 32.214L40.4123 36.0072L34.1412 38.6686L31.1854 41.808L30 43.479H30.0038Z" fill="#BAB2AE"/>
</g>
<path d="M50.228 55.6234L43.2839 36.9364L44.1214 36.4814L51.2795 55.1225C51.3866 55.4017 51.5702 55.654 51.8302 55.807C52.5261 56.2161 51.4554 56.6788 51.0769 56.8241C51.0004 56.8547 50.9201 56.8738 50.8398 56.8853C50.5721 56.9235 50.0177 56.9847 50.1362 56.7285C50.2968 56.3767 50.358 55.9867 50.2242 55.6234H50.228Z" fill="#204942"/>
<path d="M30.0042 43.4793C30.8722 43.5979 31.7096 43.0472 32.5164 41.686C34.7419 41.2692 36.3746 40.0073 37.9539 38.6728C40.8026 38.6078 43.3072 37.4874 45.5824 35.6405C48.7485 35.1663 51.5208 34.5775 52.9356 33.5833C54.8131 33.9045 56.6103 33.7401 58.1972 32.3864C51.4023 28.4402 38.3477 27.7481 30.008 43.4793H30.0042Z" fill="white"/>
<path d="M34.8831 36.5273C33.7283 38.5195 32.822 40.3243 32.5161 41.6856C34.7416 41.2688 36.3743 40.0069 37.9536 38.6724L40.0796 32.4014C38.3016 33.4032 36.5541 34.7568 34.8831 36.5273Z" fill="#E53945"/>
<path d="M43.1273 31.021C41.8961 31.4531 40.661 32.0304 39.4412 32.7799C38.7567 34.7607 38.2672 36.7261 37.9575 38.6724C40.8063 38.6074 43.3109 37.487 45.586 35.6401C45.0928 33.7665 44.8175 31.6595 43.1312 31.021H43.1273Z" fill="white"/>
<path d="M49.0004 30C47.0273 30.0153 44.9624 30.348 42.8899 31.1013C44.3009 32.5123 44.9089 34.08 45.578 35.6363C48.7442 35.1622 51.5164 34.5733 52.9313 33.5791C52.7133 32.5811 51.7917 31.4569 49.0004 30Z" fill="#427B9D"/>
<path d="M46.886 30.1377C50.8589 31.411 52.6255 32.539 52.9315 33.5791C54.809 33.9003 56.6061 33.7359 58.193 32.3822C55.2831 30.6921 51.2298 29.6023 46.886 30.1377Z" fill="white"/>
<path d="M36.042 54.1027C35.8863 54.6478 35.1137 54.6478 34.958 54.1027C34.8179 53.6126 34.5553 53.1663 34.1948 52.8058C33.8344 52.4454 33.3881 52.1828 32.898 52.0427C32.3527 51.8868 32.352 51.1138 32.8973 50.958C33.3874 50.8179 33.8337 50.5553 34.1942 50.1948C34.5546 49.8344 34.8172 49.3881 34.9573 48.898C35.1132 48.3527 35.8862 48.352 36.042 48.8973C36.1821 49.3874 36.4447 49.8337 36.8052 50.1942C37.1656 50.5546 37.6119 50.8172 38.102 50.9573C38.6473 51.1132 38.648 51.8862 38.1027 52.042C37.6126 52.1821 37.1663 52.4447 36.8058 52.8052C36.4454 53.1656 36.1821 53.6126 36.042 54.1027ZM41.6727 49.31C41.6277 49.4897 41.3723 49.4897 41.3273 49.31C41.2285 48.9144 41.024 48.5531 40.7357 48.2647C40.4475 47.9763 40.0862 47.7717 39.6907 47.6727C39.5109 47.6277 39.5109 47.3723 39.6907 47.3273C40.0862 47.2283 40.4475 47.0237 40.7357 46.7353C41.024 46.4469 41.2285 46.0856 41.3273 45.69C41.3723 45.5103 41.6277 45.5103 41.6727 45.69C41.7716 46.0857 41.9761 46.4471 42.2645 46.7355C42.5529 47.0239 42.9143 47.2284 43.31 47.3273C43.4897 47.3723 43.4897 47.6277 43.31 47.6727C42.9143 47.7716 42.5529 47.9761 42.2645 48.2645C41.9761 48.5529 41.7716 48.9143 41.6727 49.31ZM40.7627 57.2113C40.6786 57.4638 40.3214 57.4638 40.2373 57.2113C40.1637 56.9904 40.0396 56.7897 39.875 56.625C39.7103 56.4604 39.5096 56.3363 39.2887 56.2627C39.0362 56.1786 39.0362 55.8214 39.2887 55.7373C39.5096 55.6637 39.7103 55.5396 39.875 55.375C40.0396 55.2103 40.1637 55.0096 40.2373 54.7887C40.3214 54.5362 40.6786 54.5362 40.7627 54.7887C40.8363 55.0096 40.9604 55.2103 41.125 55.375C41.2897 55.5396 41.4904 55.6637 41.7113 55.7373C41.9638 55.8214 41.9638 56.1786 41.7113 56.2627C41.4904 56.3363 41.2897 56.4604 41.125 56.625C40.9604 56.7897 40.8363 56.9904 40.7627 57.2113Z" fill="#FFFDFB"/>
<path d="M57.8493 55.8199C57.8493 56.3989 57.3799 56.8682 56.801 56.8682H54.8209C54.5636 56.8682 54.355 57.0768 54.355 57.3341V59.4369C54.355 60.0941 53.8222 60.6269 53.1651 60.6269C52.5079 60.6269 51.9751 60.0941 51.9751 59.4369V57.3316C51.9751 57.0756 51.7677 56.8682 51.5117 56.8682H49.548C48.9691 56.8682 48.4998 56.3989 48.4998 55.8199C48.4998 55.241 48.9691 54.7716 49.548 54.7716H51.5117C51.7677 54.7716 51.9751 54.5642 51.9751 54.3082V52.2218C51.9751 51.5646 52.5079 51.0318 53.1651 51.0318C53.8222 51.0318 54.355 51.5646 54.355 52.2218V54.3057C54.355 54.563 54.5636 54.7716 54.8209 54.7716H56.801C57.3799 54.7716 57.8493 55.241 57.8493 55.8199Z" fill="#1D3557"/>
<path d="M65.7362 59.8922V61.6939H59.0602V59.8922H61.3123V53.9803C61.3123 53.8302 61.315 53.68 61.3204 53.5299C61.3257 53.3744 61.3338 53.2189 61.3445 53.0634L60.0093 54.1734C59.8913 54.2645 59.7734 54.3208 59.6554 54.3423C59.5428 54.3584 59.4355 54.3584 59.3337 54.3423C59.2318 54.3208 59.1406 54.286 59.0602 54.2377C58.9797 54.1841 58.9208 54.1305 58.8832 54.0769L58.095 53.0312L61.7467 49.9667H63.8058V59.8922H65.7362Z" fill="#1D3557"/>
</svg>
