<svg width="96" height="96" viewBox="0 0 96 96" fill="none" xmlns="http://www.w3.org/2000/svg">
<path d="M41.3568 15.6232C43.0764 8.01034 53.9236 8.01034 55.6432 15.6232C56.7577 20.5571 62.4196 22.9023 66.6964 20.2016C73.2955 16.0344 80.9656 23.7045 76.7984 30.3036C74.0977 34.5804 76.4429 40.2423 81.3768 41.3568C88.9897 43.0764 88.9897 53.9236 81.3768 55.6432C76.4429 56.7577 74.0977 62.4196 76.7984 66.6964C80.9656 73.2955 73.2955 80.9656 66.6964 76.7984C62.4196 74.0977 56.7577 76.4429 55.6432 81.3768C53.9236 88.9897 43.0764 88.9897 41.3568 81.3768C40.2423 76.4429 34.5804 74.0977 30.3036 76.7984C23.7045 80.9656 16.0344 73.2955 20.2016 66.6964C22.9023 62.4196 20.5571 56.7577 15.6232 55.6432C8.01034 53.9236 8.01034 43.0764 15.6232 41.3568C20.5571 40.2423 22.9023 34.5804 20.2016 30.3036C16.0344 23.7045 23.7045 16.0344 30.3036 20.2016C34.5804 22.9023 40.2423 20.5571 41.3568 15.6232Z" fill="#A8DADB"/>
<g clip-path="url(#clip0_979_19090)">
<path d="M39.7067 43.8395C30.9739 27.1648 61.3031 26.0862 52.9218 44.4228C54.336 45.0859 55.958 45.2457 57.7557 44.9981C58.0113 44.8383 58.2031 44.6465 58.3389 44.4228C58.7065 44.4707 58.8583 44.6945 58.9222 44.9981C59.6972 44.7024 60.3763 44.3509 60.7838 43.8475C60.9196 44.263 60.9995 44.6465 61.0155 44.9981C61.4549 44.8463 61.7825 44.5666 61.9503 44.0792C62.0702 45.845 62.214 47.1873 62.3578 48.2899C62.4377 54.2502 60.8477 57.9096 48.7352 59.2119C37.0941 60.4343 33.0992 49.4244 39.7147 43.8475L39.7067 43.8395Z" fill="#FFF578"/>
<g style="mix-blend-mode:multiply">
<path d="M49.3904 52.3806C52.3067 54.6817 56.3974 54.6737 59.2897 49.0409L49.3904 52.3806Z" fill="#BAB2AE"/>
</g>
<g style="mix-blend-mode:multiply">
<path d="M52.9217 44.4228C54.1681 41.6903 54.5516 39.3972 54.3438 37.5196C53.0255 43.6158 47.6883 44.4627 40.9609 43.488C44.9798 44.5666 48.9827 45.3336 52.9217 44.4228Z" fill="#BAB2AE"/>
</g>
<path d="M38.9875 35.0827C38.1966 34.5874 36.3589 34.6673 33.97 34.9309C33.7303 34.9549 33.6104 35.2425 33.7622 35.4263C35.2164 37.224 36.8623 38.4544 38.9796 38.2707C39.5229 38.1748 39.8425 37.6555 39.379 35.666C39.3231 35.4263 39.1873 35.2106 38.9796 35.0827H38.9875Z" fill="#FFBF68"/>
<path d="M51.0761 44.8143C52.0508 44.5107 52.9137 44.0553 53.6408 43.4241C54.1122 43.0166 54.8313 43.0646 55.2468 43.528C56.5251 44.9422 57.7795 46.2125 58.8821 46.636C59.1378 46.7319 59.3375 46.9396 59.4094 47.2033C60.3842 50.6469 53.7447 55.4168 49.3902 52.3807C48.9908 52.101 48.6951 51.6855 48.5593 51.2141C48.1678 49.8799 47.9521 48.4337 51.0761 44.8143Z" fill="#FFBF68"/>
<path d="M45.4595 35.5941C46.9216 35.3544 47.5848 35.9856 47.4489 37.5037" stroke="#0B1828" stroke-width="0.870888" stroke-miterlimit="10" stroke-linecap="round"/>
<path d="M38.0549 36.0716C38.2715 35.9956 38.4043 35.8125 38.3517 35.6626C38.2991 35.5127 38.0809 35.4528 37.8644 35.5288C37.6479 35.6048 37.5151 35.7879 37.5677 35.9378C37.6203 36.0877 37.8384 36.1476 38.0549 36.0716Z" fill="#F97B31"/>
<g style="mix-blend-mode:multiply">
<path d="M66.5285 60.73L66.4326 60.9857L70.1079 62.5517L74.6701 61.0656L66.5285 60.73Z" fill="#BAB2AE"/>
</g>
<path d="M60.696 62.5516L58.0354 65.0924L58.1473 66.0192L67.1997 65.2282L60.696 62.5516Z" fill="#BAB2AE"/>
<g style="mix-blend-mode:multiply">
<path d="M27.2426 58.341L24.8456 58.8364L23 61.1374L23.9028 62.2081L30.1429 61.6727L27.2426 58.341Z" fill="#BAB2AE"/>
</g>
<g style="mix-blend-mode:multiply">
<path d="M49.8536 64.7249C57.0683 64.7249 62.9169 63.8878 62.9169 62.8553C62.9169 61.8227 57.0683 60.9857 49.8536 60.9857C42.6389 60.9857 36.7903 61.8227 36.7903 62.8553C36.7903 63.8878 42.6389 64.7249 49.8536 64.7249Z" fill="#BAB2AE"/>
</g>
<path d="M35.4722 52.6683L43.7576 54.3142L46.7857 53.5871L47.2252 53.7309L49.8538 57.5181L60.1287 53.1556L63.9638 48.6973L64.1635 48.8411L62.2939 51.9412L59.3297 55.5925L49.2466 59.6114L42.3114 56.7431L38.716 54.9773L35.4722 52.6683Z" fill="#FFBF68"/>
<path d="M60.5202 53.2115L56.4933 52.6602L49.0548 57.7497L46.7857 53.5871L42.9027 54.5139L35.4722 52.6602C35.8876 54.3781 36.5668 56.0399 37.5575 57.55C45.3955 69.5667 63.78 62.9271 64.2434 50.5909C64.2434 50.0316 64.2194 49.4483 64.1715 48.8411L60.5282 53.2115H60.5202Z" fill="white"/>
<path d="M45.8269 59.1081C45.8428 58.4609 45.5792 57.8457 45.1637 57.3503C42.9266 54.6577 37.4855 53.7948 36.2791 55.1611C36.6306 55.992 37.0541 56.791 37.5494 57.558C37.869 58.0454 38.2046 58.5008 38.5561 58.9323C42.1196 61.6408 45.7629 61.6408 45.8189 59.1081H45.8269Z" fill="#FFBF68"/>
<path d="M56.4931 52.6603L51.3477 56.1758C55.0789 59.6114 58.6983 56.9668 60.512 53.2116L56.4931 52.6603Z" fill="#FFBF68"/>
<g style="mix-blend-mode:multiply">
<path d="M37.0859 56.799C37.2298 57.0547 37.3816 57.3023 37.5493 57.55C45.3873 69.5667 63.7719 62.9272 64.2353 50.5909C64.2353 50.4391 64.2353 50.2873 64.2353 50.1275C55.8859 61.2253 46.5858 60.2186 37.0939 56.799H37.0859Z" fill="#BAB2AE"/>
</g>
<path d="M24.3982 61.3452L24.4941 61.7446L30.1429 61.6727L33.2429 58.8364L24.3982 61.3452Z" fill="#FFBF68"/>
<path d="M24.3982 61.3451L25.9083 58.8124L29.6475 57.4781L33.2429 58.8364L30.1588 61.3451H24.3982Z" fill="white"/>
<path d="M27.2427 58.341C28.1775 59.148 29.8314 59.2039 30.7342 57.8856L29.6556 57.4781L27.2427 58.341Z" fill="#FFBF68"/>
<path d="M58.6663 64.9006L60.6957 62.5516L62.2457 62.2081L67.3671 64.9006H58.6663Z" fill="white"/>
<path d="M62.2458 62.2081L61.2471 62.4318C61.5986 63.846 63.5162 64.5251 64.8105 63.5583L62.2458 62.2081Z" fill="#FFBF68"/>
<path d="M58.6663 64.9006V65.5638L67.1994 65.2282L67.3671 64.9006H58.6663Z" fill="#FFBF68"/>
<path d="M66.5283 60.3544V60.7299L70.2835 62.1042L74.6699 61.0655V60.8897L70.6031 60.4343L66.5283 60.3544Z" fill="#FFBF68"/>
<path d="M66.5283 60.3544L69.5405 58.4688L74.6699 60.8897L70.3954 61.7686L66.5283 60.3544Z" fill="white"/>
</g>
<path d="M59.6786 42.3529L59.6786 42.353C58.8747 43.228 57.351 44.8861 56.2925 46.0376C55.7679 46.6083 55.293 47.152 54.9513 47.567C54.7797 47.7753 54.646 47.946 54.5573 48.0689C54.5567 48.0697 54.5562 48.0705 54.5556 48.0712C54.5753 48.078 54.5994 48.0853 54.6287 48.0928C54.9408 48.1732 55.5248 48.2069 56.6053 48.2069H58.7368H59.2368V48.7069V52.6258V53.1794H61.5H63.7632V52.6258V48.7069V48.2069H64.2632H66.2499C67.2727 48.2069 67.9071 48.164 68.2768 48.0778C68.3332 48.0647 68.3782 48.0516 68.414 48.0396C68.4139 48.0394 68.4138 48.0393 68.4137 48.0392C68.3083 47.8944 68.1516 47.6994 67.9554 47.4668C67.5647 47.0034 67.0403 46.4182 66.5116 45.8408C65.9839 45.2644 65.4558 44.6998 65.0593 44.2791C64.8612 44.0688 64.6961 43.8946 64.5806 43.7731L64.4466 43.6323L64.4114 43.5955L64.4025 43.5861L64.4002 43.5837L64.3997 43.5832L64.3996 43.583L64.7609 43.2374L64.3995 43.583L64.3911 43.5742L64.3831 43.565L64.3831 43.565L64.383 43.5648L64.3825 43.5643L64.3806 43.5621L64.3728 43.5531L64.3422 43.518L64.2275 43.3867C64.1295 43.2748 63.9918 43.1183 63.833 42.9398C63.5143 42.5815 63.1145 42.1389 62.781 41.7907C62.3944 41.3869 62.1112 41.0919 61.8923 40.8779C61.6865 40.6766 61.5634 40.5733 61.4861 40.5222C61.4616 40.5387 61.4249 40.5643 61.3712 40.6038M59.6786 42.3529L61.3711 40.6038L61.3712 40.6038M59.6786 42.3529C60.0778 41.9183 60.474 41.4991 60.79 41.1742M59.6786 42.3529L60.79 41.1742M61.3712 40.6038C61.3714 40.6036 61.3712 40.6038 61.3706 40.6043M61.3712 40.6038L61.3706 40.6043M63.7632 61.5564H64.2632V61.8518C64.2632 62.4282 64.168 62.692 63.9178 62.8105C63.433 63.0401 59.9078 63.0702 59.2672 62.8504C58.7994 62.6899 58.7368 62.5732 58.7368 61.8625V61.5564H59.2368M63.7632 61.5564V61.0564H61.5H59.2368V61.5564M63.7632 61.5564H61.5H59.2368M63.7632 61.5564V61.8518C63.7632 62.1247 63.7389 62.2641 63.7139 62.3334C63.7096 62.3454 63.7059 62.3533 63.7034 62.358M59.2368 61.5564V61.8625C59.2368 62.0376 59.241 62.1536 59.2506 62.2364C59.2548 62.2727 59.2594 62.2962 59.2629 62.3103M59.2629 62.3103C59.2856 62.3223 59.3345 62.3449 59.4294 62.3775C59.4578 62.3872 59.5398 62.406 59.6929 62.425C59.8367 62.443 60.0169 62.4581 60.2245 62.47C60.6391 62.4937 61.1436 62.5033 61.6467 62.499C62.1499 62.4947 62.6441 62.4765 63.0381 62.446C63.2356 62.4307 63.4017 62.4127 63.5283 62.3931C63.6321 62.377 63.6833 62.3633 63.6996 62.359C63.7012 62.3586 63.7025 62.3583 63.7034 62.358M59.2629 62.3103C59.2661 62.3233 59.2683 62.3285 59.2683 62.3285C59.2682 62.3285 59.2679 62.3277 59.2671 62.3263C59.2577 62.3088 59.2459 62.3002 59.2457 62.3002C59.2456 62.3002 59.2502 62.3036 59.2629 62.3103ZM63.7034 62.358C63.7012 62.3623 63.6999 62.364 63.6999 62.364C63.6999 62.3639 63.7003 62.3634 63.7011 62.3625C63.7021 62.3612 63.7032 62.3602 63.7041 62.3594C63.7041 62.3594 63.7042 62.3593 63.7042 62.3593C63.7059 62.3577 63.7071 62.357 63.7071 62.3569C63.7071 62.3569 63.7062 62.3575 63.7038 62.3586L63.7037 62.3586C63.7062 62.3574 63.7063 62.3573 63.7034 62.358ZM60.79 41.1742C60.9482 41.0117 61.0847 40.8744 61.1906 40.7714M60.79 41.1742L61.1906 40.7714M61.1906 40.7714C61.2437 40.7198 61.2873 40.6785 61.3211 40.6478M61.1906 40.7714L61.3211 40.6478M61.3211 40.6478C61.3521 40.6195 61.3673 40.6071 61.3706 40.6043M61.3211 40.6478L61.3706 40.6043M59.249 55.3044C59.2497 55.2974 59.2503 55.2909 59.251 55.2848C59.3433 55.2745 59.6728 55.2659 60.1761 55.2655C60.6723 55.2652 61.298 55.2725 61.9322 55.2875L63.7632 55.331V55.7229V56.103H61.5H59.2368V55.7248C59.2368 55.5324 59.2403 55.3999 59.249 55.3044ZM59.2368 59.3095V58.8297V58.35H61.5H63.7632V58.8297V59.3095H61.5H59.2368Z" fill="#668942" stroke="#668942"/>
<defs>
<clipPath id="clip0_979_19090">
<rect width="51.67" height="35.0193" fill="white" transform="translate(23 31)"/>
</clipPath>
</defs>
</svg>
