<svg width="96" height="96" viewBox="0 0 96 96" fill="none" xmlns="http://www.w3.org/2000/svg">
<path d="M41.3568 15.6232C43.0764 8.01034 53.9236 8.01034 55.6432 15.6232C56.7577 20.5571 62.4196 22.9023 66.6964 20.2016C73.2955 16.0344 80.9656 23.7045 76.7984 30.3036C74.0977 34.5804 76.4429 40.2423 81.3768 41.3568C88.9897 43.0764 88.9897 53.9236 81.3768 55.6432C76.4429 56.7577 74.0977 62.4196 76.7984 66.6964C80.9656 73.2955 73.2955 80.9656 66.6964 76.7984C62.4196 74.0977 56.7577 76.4429 55.6432 81.3768C53.9236 88.9897 43.0764 88.9897 41.3568 81.3768C40.2423 76.4429 34.5804 74.0977 30.3036 76.7984C23.7045 80.9656 16.0344 73.2955 20.2016 66.6964C22.9023 62.4196 20.5571 56.7577 15.6232 55.6432C8.01034 53.9236 8.01034 43.0764 15.6232 41.3568C20.5571 40.2423 22.9023 34.5804 20.2016 30.3036C16.0344 23.7045 23.7045 16.0344 30.3036 20.2016C34.5804 22.9023 40.2423 20.5571 41.3568 15.6232Z" fill="#FFBF68"/>
<g style="mix-blend-mode:multiply">
<path d="M42.9329 59.7785C37.0394 57.305 32.9885 52.0124 32.609 46.294L32.6043 46.223C32.591 45.9989 32.5834 45.7887 32.5804 45.5766L32.5784 45.4262C32.5764 45.2299 32.5829 45.0409 32.5908 44.8487C32.5908 44.8487 32.5957 44.7089 32.6 44.6532C32.6102 44.4734 32.6237 44.2951 32.6405 44.1181C32.6405 44.1181 32.6532 43.9509 32.6634 43.89C32.6834 43.7144 32.7081 43.5369 32.736 43.3607C32.736 43.3607 32.7604 43.2023 32.7665 43.1512C32.8096 42.8932 32.8583 42.6491 32.9164 42.4013C33.826 38.4163 36.1948 35.1472 39.592 33.1916C42.9268 31.2749 46.8467 30.869 50.6281 32.0535C51.1265 32.209 51.625 32.3914 52.1107 32.5953C57.877 35.0155 62.4917 40.7095 63.5956 46.7664L63.6149 46.8665C63.6474 47.045 63.6746 47.2175 63.6987 47.3886L63.7224 47.5787C63.7445 47.7452 63.7637 47.8913 63.775 48.0379C63.7859 48.1307 63.7903 48.2207 63.798 48.3121L63.8043 48.4067C63.8124 48.506 63.8192 48.6085 63.8274 48.7078C63.8344 48.8373 63.8382 48.9654 63.8419 49.0935L63.8455 49.1946C63.8483 49.261 63.8497 49.3306 63.8493 49.3956C63.8533 49.6235 63.8467 49.8584 63.8383 50.0887C63.7987 51.0689 63.6467 52.0249 63.3885 52.9325C63.3586 53.0312 63.324 53.1317 63.2778 53.2235C61.24 59.4034 54.1236 62.593 46.2296 60.821C45.4656 60.6499 44.7032 60.4295 43.9664 60.1663C43.9147 60.1523 43.8645 60.135 43.8142 60.1178C43.5173 60.0123 43.2179 59.8943 42.9278 59.7726L42.9329 59.7785ZM42.7305 44.3849C42.6912 44.5333 42.6596 44.6542 42.6387 44.7681C42.6141 44.8996 42.5953 45.0451 42.5793 45.2109C42.5785 45.2221 42.5765 45.2634 42.5724 45.2732C42.5639 45.3846 42.5584 45.5165 42.561 45.6748L42.5611 45.7477C42.5635 45.879 42.5724 46.0131 42.5878 46.1499L42.5968 46.2381C42.6141 46.3795 42.6369 46.5079 42.6611 46.6331L42.6874 46.7438C42.7162 46.8671 42.7463 46.9871 42.783 47.1098L42.8248 47.2386C42.858 47.333 42.8912 47.4274 42.9309 47.5246C42.9561 47.5927 42.9839 47.6542 43.0137 47.7204C43.051 47.805 43.0948 47.8924 43.1386 47.9798C43.173 48.0441 43.1989 48.101 43.2295 48.156C43.2818 48.2508 43.3354 48.3423 43.3903 48.4305C43.4261 48.4915 43.4651 48.5539 43.5073 48.6177C43.5656 48.7073 43.6284 48.795 43.6946 48.8841C43.7414 48.9459 43.7916 49.0092 43.8404 49.0757C43.8854 49.1329 43.9369 49.1928 43.9884 49.2528C44.0624 49.3414 44.1359 49.4221 44.2159 49.5055C44.2617 49.5515 44.3062 49.6009 44.3553 49.6483C44.4418 49.7345 44.5297 49.8174 44.6208 49.9016C44.6765 49.9518 44.7321 50.002 44.7891 50.0489C44.868 50.1166 44.9516 50.1823 45.0384 50.2494C45.1085 50.3018 45.1836 50.3602 45.2635 50.4167C45.3199 50.4557 45.3783 50.4994 45.438 50.5398C45.549 50.6132 45.6614 50.6834 45.7752 50.7503C45.8311 50.7815 45.8857 50.8159 45.9384 50.8457C46.0633 50.9134 46.1915 50.9826 46.3224 51.0452L46.4533 51.1078C46.5413 51.1447 46.6312 51.1863 46.7192 51.2232C46.7779 51.2479 46.8398 51.2739 46.8985 51.2985C47.2057 51.4159 47.5179 51.5125 47.8305 51.59C50.7305 52.2895 53.2805 51.2013 53.8967 49.0024L53.9156 48.9299C53.9283 48.8815 53.9409 48.8331 53.9503 48.7834C53.9588 48.7448 53.9931 48.5445 53.9931 48.5445C54.0063 48.458 54.0163 48.3702 54.0231 48.2811C54.0368 48.1296 54.0402 47.9662 54.038 47.7889L54.024 47.6028C54.0172 47.5003 54.0151 47.3959 54.0031 47.2874C53.9967 47.2387 53.9884 47.1853 53.9801 47.132L53.9703 47.055C53.9566 46.9688 53.9443 46.8793 53.9242 46.7903C53.904 46.7013 53.8852 46.6091 53.8618 46.5188C53.844 46.4423 53.8217 46.3677 53.8006 46.2899C53.7721 46.1936 53.7383 46.0912 53.7046 45.9889C53.6814 45.9255 53.6601 45.8667 53.6369 45.8033C53.5947 45.6936 53.5507 45.5792 53.502 45.4668L53.445 45.347C53.3841 45.218 53.3232 45.0889 53.2531 44.9636L53.2334 44.9285C52.6244 43.8218 51.7464 42.8628 50.6841 42.1601L50.6542 42.1399C50.5166 42.0477 50.373 41.9605 50.2266 41.8799L50.1544 41.842C50.021 41.7668 49.8817 41.6968 49.741 41.6301C49.6446 41.5858 49.5417 41.5388 49.4406 41.4964C49.2059 41.3979 48.9788 41.3179 48.7639 41.2545C47.3794 40.8536 45.9859 40.9857 44.8419 41.6289C43.8078 42.2108 43.0575 43.1765 42.7298 44.3501C42.7229 44.3664 42.7207 44.3808 42.7171 44.3985L42.7305 44.3849Z" fill="#BAB2AE"/>
</g>
<path d="M56.762 58.7546C52.8209 61.7778 45.1041 60.433 43.0778 56.5192" stroke="#E9F8ED" stroke-width="0.717633" stroke-miterlimit="10" stroke-linecap="round"/>
<path d="M37.6216 36.9729C39.4676 31.4601 43.9001 30.9473 49.4254 29.7583C50.9765 29.424 52.6964 29.9848 54.0256 31.2481C58.7303 35.5767 62.2412 38.4382 62.9646 43.8945" stroke="#E9F8ED" stroke-width="0.717633" stroke-miterlimit="10" stroke-linecap="round"/>
<path d="M37.7674 36.5702C33.3506 39.2289 32.4033 45.9892 36.0462 48.6913" stroke="#E9F8ED" stroke-width="0.717633" stroke-miterlimit="10" stroke-linecap="round"/>
<path d="M51.4274 32.6421C44.1655 30.3686 36.8892 34.6336 35.1707 42.1628C33.4554 49.6934 39.1067 57.3753 47.7968 59.3241C56.4868 61.273 63.7618 57.0113 64.0535 49.8034C64.3405 42.5973 58.6892 34.9155 51.4274 32.6421ZM48.6018 53.4051C43.9435 52.2819 40.7966 48.0052 41.5763 43.8545C42.3561 39.7038 46.4038 37.3311 50.6205 38.5565C54.8372 39.7818 57.9808 44.0572 57.6459 48.107C57.311 52.1569 53.2601 54.5283 48.6018 53.4051Z" fill="white"/>
<path d="M53.5698 33.5029C53.7656 35.7128 53.1833 37.5387 51.9195 39.0518C55.4509 40.695 57.9494 44.4887 57.6494 48.1084C57.6019 48.7058 57.4696 49.2675 57.2757 49.7842C59.5217 51.348 61.6979 52.4109 63.6522 52.3493C63.8797 51.5515 64.0181 50.701 64.0537 49.8034C64.3133 43.3296 59.7331 36.4845 53.5698 33.5029Z" fill="#E53945"/>
<path d="M47.4033 53.0363C43.4087 51.5284 40.8659 47.6394 41.5764 43.8546C41.6112 43.6621 41.659 43.4751 41.7101 43.2895C39.3173 43.1901 37.3268 42.2051 35.6084 40.6635C35.4361 41.147 35.2871 41.6481 35.1708 42.1629C33.6123 49.0002 38.095 55.9768 45.4768 58.6495C46.9158 57.2215 47.6612 55.418 47.4033 53.0363Z" fill="#E53945"/>
<g style="mix-blend-mode:multiply">
<path d="M47.805 53.523C49.0658 53.826 50.2845 53.8544 51.3999 53.6631C50.5081 53.7144 49.5666 53.6375 48.6021 53.4052C48.1078 53.2859 47.6345 53.1256 47.1754 52.9405C47.045 52.8858 46.91 52.833 46.781 52.775C46.6585 52.7198 46.5355 52.6566 46.4143 52.5981C46.288 52.5336 46.1636 52.4737 46.0387 52.406C45.9203 52.341 45.8047 52.2694 45.689 52.1978C45.5734 52.1263 45.4563 52.058 45.342 51.9832C45.2259 51.9038 45.1143 51.8224 45.0009 51.7365C44.8977 51.6625 44.7913 51.5872 44.6895 51.51C44.5023 51.3624 44.3224 51.2064 44.1485 51.0452C44.0555 50.9563 43.9638 50.8642 43.8754 50.7734C43.7669 50.6665 43.6584 50.5596 43.5605 50.4457C43.4819 50.359 43.4106 50.2639 43.3333 50.174C43.242 50.0628 43.1525 49.9562 43.0658 49.8432C42.9945 49.7481 42.9279 49.6511 42.8612 49.5541C42.7824 49.4405 42.7035 49.3269 42.6307 49.2082C42.5687 49.1093 42.5127 49.0053 42.4553 48.9045C42.3871 48.7839 42.3221 48.6646 42.2618 48.5434C42.209 48.4408 42.1609 48.3362 42.116 48.233C42.0617 48.1067 42.0073 47.9804 41.9576 47.8522C41.9174 47.7471 41.8771 47.642 41.8415 47.5351C41.7965 47.405 41.7574 47.2697 41.7202 47.1391C41.6911 47.0349 41.6634 46.9274 41.6389 46.8213C41.6091 46.6823 41.5825 46.5446 41.5573 46.4037C41.5393 46.3003 41.5214 46.1969 41.5081 46.0916C41.4889 45.9455 41.4789 45.7957 41.469 45.6458C41.4641 45.5479 41.4526 45.4473 41.451 45.3507C41.4479 45.1846 41.4545 45.0225 41.4626 44.8572C41.4666 44.7745 41.4641 44.6891 41.4714 44.6078C41.4913 44.3593 41.5238 44.1084 41.5707 43.8597C41.8067 42.5939 42.3643 41.4938 43.1357 40.606C42.0852 41.5377 41.3251 42.8097 41.0376 44.3261C40.2761 48.3234 43.3049 52.4432 47.8004 53.5249L47.805 53.523Z" fill="#BAB2AE"/>
</g>
<g style="mix-blend-mode:multiply">
<path d="M51.9542 39.0702C52.1438 39.1574 52.3293 39.2544 52.5101 39.3533C52.5414 39.3703 52.5726 39.3872 52.6038 39.4042C52.7964 39.5118 52.9848 39.6292 53.1718 39.7499C53.1881 39.7567 53.1984 39.7687 53.2134 39.7788C54.6139 40.7078 55.7793 41.9868 56.5686 43.4222C56.5742 43.4361 56.5845 43.4481 56.5902 43.462C56.6839 43.6316 56.7669 43.8083 56.848 43.9804C56.874 44.0373 56.8981 44.0896 56.924 44.1465C56.9911 44.2973 57.0521 44.4533 57.1132 44.6092C57.144 44.6912 57.1747 44.7731 57.2023 44.8537C57.2511 44.993 57.2967 45.131 57.3363 45.2742C57.3654 45.3784 57.3945 45.4826 57.4204 45.5855C57.4524 45.7101 57.4831 45.838 57.5105 45.9645C57.5346 46.0897 57.5555 46.2134 57.5732 46.3359C57.5916 46.4471 57.6101 46.5584 57.6207 46.6702C57.6385 46.8195 57.6438 46.9713 57.6538 47.1212C57.6582 47.2112 57.6672 47.2993 57.6697 47.3847C57.6729 47.6237 57.6668 47.8665 57.6463 48.1072C57.6348 48.2442 57.6201 48.3799 57.5988 48.5128C57.5899 48.5704 57.5792 48.6234 57.5717 48.6778C57.5607 48.7498 57.545 48.8237 57.5307 48.8944C57.5136 48.9716 57.4965 49.0488 57.4762 49.1246C57.4663 49.1664 57.4545 49.2036 57.4446 49.2455C57.3949 49.4278 57.3303 49.6001 57.2657 49.7723L57.2727 49.7829C59.6233 43.1593 54.0498 38.2244 49.2704 38.2849L49.2736 38.2863C49.7192 38.3391 50.1668 38.4235 50.6176 38.5552C51.0763 38.6864 51.5191 38.8646 51.9523 39.0655L51.9542 39.0702Z" fill="#BAB2AE"/>
</g>
<path d="M29.042 54.1027C28.8863 54.6478 28.1137 54.6478 27.958 54.1027C27.8179 53.6126 27.5553 53.1663 27.1948 52.8058C26.8344 52.4454 26.3881 52.1828 25.898 52.0427C25.3527 51.8868 25.352 51.1138 25.8973 50.958C26.3874 50.8179 26.8337 50.5553 27.1942 50.1948C27.5546 49.8344 27.8172 49.3881 27.9573 48.898C28.1132 48.3527 28.8862 48.352 29.042 48.8973C29.1821 49.3874 29.4447 49.8337 29.8052 50.1942C30.1656 50.5546 30.6119 50.8172 31.102 50.9573C31.6473 51.1132 31.648 51.8862 31.1027 52.042C30.6126 52.1821 30.1663 52.4447 29.8058 52.8052C29.4454 53.1656 29.1821 53.6126 29.042 54.1027ZM34.6727 49.31C34.6277 49.4897 34.3723 49.4897 34.3273 49.31C34.2285 48.9144 34.024 48.5531 33.7357 48.2647C33.4475 47.9763 33.0862 47.7717 32.6907 47.6727C32.5109 47.6277 32.5109 47.3723 32.6907 47.3273C33.0862 47.2283 33.4475 47.0237 33.7357 46.7353C34.024 46.4469 34.2285 46.0856 34.3273 45.69C34.3723 45.5103 34.6277 45.5103 34.6727 45.69C34.7716 46.0857 34.9761 46.4471 35.2645 46.7355C35.5529 47.0239 35.9143 47.2284 36.31 47.3273C36.4897 47.3723 36.4897 47.6277 36.31 47.6727C35.9143 47.7716 35.5529 47.9761 35.2645 48.2645C34.9761 48.5529 34.7716 48.9143 34.6727 49.31ZM33.7627 57.2113C33.6786 57.4638 33.3214 57.4638 33.2373 57.2113C33.1637 56.9904 33.0396 56.7897 32.875 56.625C32.7103 56.4604 32.5096 56.3363 32.2887 56.2627C32.0362 56.1786 32.0362 55.8214 32.2887 55.7373C32.5096 55.6637 32.7103 55.5396 32.875 55.375C33.0396 55.2103 33.1637 55.0096 33.2373 54.7887C33.3214 54.5362 33.6786 54.5362 33.7627 54.7887C33.8363 55.0096 33.9604 55.2103 34.125 55.375C34.2897 55.5396 34.4904 55.6637 34.7113 55.7373C34.9638 55.8214 34.9638 56.1786 34.7113 56.2627C34.4904 56.3363 34.2897 56.4604 34.125 56.625C33.9604 56.7897 33.8363 56.9904 33.7627 57.2113Z" fill="#FFFDFB"/>
<path d="M57.8493 55.8199C57.8493 56.3989 57.3799 56.8682 56.801 56.8682H54.8209C54.5636 56.8682 54.355 57.0768 54.355 57.3341V59.4369C54.355 60.0941 53.8222 60.6269 53.1651 60.6269C52.5079 60.6269 51.9751 60.0941 51.9751 59.4369V57.3316C51.9751 57.0756 51.7677 56.8682 51.5117 56.8682H49.548C48.9691 56.8682 48.4998 56.3989 48.4998 55.8199C48.4998 55.241 48.9691 54.7716 49.548 54.7716H51.5117C51.7677 54.7716 51.9751 54.5642 51.9751 54.3082V52.2218C51.9751 51.5646 52.5079 51.0318 53.1651 51.0318C53.8222 51.0318 54.355 51.5646 54.355 52.2218V54.3057C54.355 54.563 54.5636 54.7716 54.8209 54.7716H56.801C57.3799 54.7716 57.8493 55.241 57.8493 55.8199Z" fill="#1D3557"/>
<path d="M65.7362 59.8922V61.6939H59.0602V59.8922H61.3123V53.9803C61.3123 53.8302 61.315 53.68 61.3204 53.5299C61.3257 53.3744 61.3338 53.2189 61.3445 53.0634L60.0093 54.1734C59.8913 54.2645 59.7734 54.3208 59.6554 54.3423C59.5428 54.3584 59.4355 54.3584 59.3337 54.3423C59.2318 54.3208 59.1406 54.286 59.0602 54.2377C58.9797 54.1841 58.9208 54.1305 58.8832 54.0769L58.095 53.0312L61.7467 49.9667H63.8058V59.8922H65.7362Z" fill="#1D3557"/>
</svg>
