<svg width="393" height="852" viewBox="0 0 393 852" fill="none" xmlns="http://www.w3.org/2000/svg">
<rect width="393" height="852" fill="#457B9D"/>
<g clip-path="url(#clip0_1084_21705)">
<path d="M291.113 736C290.628 735.12 290.385 734.565 290.385 734.336C290.385 733.759 290.983 733.447 292.184 733.399V731.006H280.08V733.399C280.826 733.46 281.35 733.607 281.654 733.841C281.957 734.075 282.412 734.765 283.019 735.905L283.384 736.59L291.447 750.428L295.098 743.223L291.109 735.996L291.113 736Z" fill="white"/>
<path d="M296.992 731.01V733.403C298.284 733.403 298.93 733.807 298.93 734.613C298.93 734.916 298.665 735.645 298.132 736.802L295.102 743.232L291.452 750.437C291.209 751.798 290.68 753.203 290.073 754.62C289.882 755.067 289.583 755.457 289.197 755.748L287.381 757.126C287.025 757.395 286.605 757.56 286.162 757.603L280.934 758.123C281.723 759.593 282.074 761.297 282.035 763.209C282.018 763.985 282.699 764.592 283.466 764.475C286.041 764.089 287.97 765.043 289.488 766.855C290.008 767.479 290.914 767.492 291.404 766.842C292.457 765.459 292.934 762.428 292.691 757.33C292.678 757.031 292.665 756.732 292.683 756.433C292.795 754.542 293.567 752.869 294.165 751.161L300.027 739C301.332 736.295 302.173 734.708 302.546 734.236C302.918 733.763 303.551 733.486 304.449 733.39V730.997H296.996L296.992 731.01ZM283.331 759.584C283.292 759.597 283.253 759.602 283.214 759.602C283.037 759.602 282.881 759.489 282.829 759.316C282.764 759.103 282.885 758.878 283.097 758.817C284.077 758.522 284.962 758.383 285.798 758.383C286.054 758.383 286.31 758.396 286.561 758.427C286.782 758.453 286.938 758.652 286.917 758.869C286.895 759.077 286.726 759.225 286.514 759.225C286.254 759.199 286.028 759.186 285.798 759.186C285.04 759.186 284.233 759.316 283.327 759.589L283.331 759.584ZM289.28 759.511C287.949 760.226 286.696 760.898 285.95 762.368C285.881 762.502 285.742 762.589 285.59 762.589C285.53 762.589 285.464 762.576 285.408 762.545C285.313 762.498 285.239 762.415 285.209 762.311C285.174 762.207 285.183 762.099 285.23 762.003C286.089 760.313 287.45 759.58 288.889 758.808C289.353 758.561 289.821 758.31 290.272 758.024C290.337 757.985 290.411 757.963 290.489 757.963C290.628 757.963 290.754 758.032 290.827 758.149C290.884 758.24 290.901 758.349 290.879 758.453C290.858 758.557 290.793 758.648 290.702 758.704C290.229 759.003 289.743 759.264 289.275 759.515L289.28 759.511ZM290.368 766.031C290.29 766.105 290.19 766.144 290.086 766.144C289.982 766.144 289.878 766.1 289.8 766.022C289.644 765.862 289.648 765.61 289.8 765.454C290.212 765.051 290.424 763.178 290.524 762.277C290.545 762.073 290.719 761.921 290.923 761.921C291.057 761.934 291.165 761.99 291.235 762.077C291.3 762.16 291.33 762.259 291.317 762.363C291.105 764.249 290.871 765.524 290.359 766.027L290.368 766.031Z" fill="white"/>
<path d="M225.516 743.318L220.773 736.958L222.551 735.706C224.662 734.188 228.247 733.373 228.247 733.373C229.145 733.139 229.648 732.849 230.064 732.532C229.795 732.294 229.505 732.029 229.192 731.752C229.309 731.297 229.374 730.737 229.414 730.139C229.275 730.273 229.123 730.403 228.958 730.533C228.546 730.85 228.035 731.01 227.515 731.01H217.86V733.425C218.77 733.425 219.317 733.499 219.49 733.642C219.663 733.785 219.75 733.967 219.75 734.179C219.75 734.544 219.286 735.068 218.358 735.753L213.503 739.239V718.221L202.994 719.838V722.253C204.36 722.253 205.227 722.47 205.591 722.903C205.955 723.337 206.137 724.13 206.137 725.283V744.224C206.137 745.425 205.942 746.232 205.556 746.639C205.17 747.047 204.312 747.255 202.994 747.255V749.67H215.987V747.255C214.968 747.207 214.301 746.964 213.98 746.513C213.659 746.067 213.503 745.304 213.503 744.224V742.243L215.441 740.852L218.541 745.022C219.056 745.72 219.317 746.184 219.317 746.414C219.317 746.977 218.831 747.259 217.856 747.259V749.674H229.89V747.259C229.314 747.259 228.724 746.986 228.126 746.44C227.523 745.893 226.656 744.853 225.516 743.318Z" fill="white"/>
<path d="M178.877 743.5C178.612 743.687 178.318 743.895 178.01 744.112C177.633 743.917 177.151 743.747 176.631 743.596C176.813 743.899 177.034 744.541 177.177 745C177.321 745.46 177.281 745.963 176.995 746.344C176.766 746.652 176.445 746.804 176.037 746.804C175.248 746.804 174.854 746.149 174.854 744.844V736.182C174.854 735.09 174.737 734.223 174.503 733.586C174.268 732.948 173.787 732.341 173.068 731.76C172.344 731.184 171.394 730.789 170.219 730.577C169.04 730.364 167.579 730.256 165.832 730.256C162.702 730.256 160.2 730.75 158.332 731.739C156.463 732.727 155.527 733.928 155.527 735.341C155.527 735.966 155.783 736.508 156.29 736.971C156.797 737.435 157.486 737.665 158.354 737.665C159.312 737.665 160.018 737.448 160.474 737.015C160.929 736.581 161.232 735.888 161.384 734.929C161.596 733.534 162.658 732.831 164.575 732.831C165.364 732.831 166.049 733 166.625 733.343C167.202 733.685 167.492 734.457 167.492 735.658V737.344C162.919 738.896 159.758 740.305 158.011 741.584C156.264 742.859 155.388 744.328 155.388 745.985C155.388 747.155 155.826 748.135 156.697 748.924C157.569 749.713 158.882 750.107 160.63 750.107C161.952 750.107 163.218 749.908 164.423 749.505C165.633 749.102 166.79 748.499 167.9 747.693C168.871 749.301 170.757 750.107 173.553 750.107C175.088 750.107 176.406 749.735 177.507 748.989C178.569 748.269 179.137 747.168 179.215 745.685C179.215 744.849 179.146 744.207 178.877 743.496V743.5ZM167.492 745.23C167.02 745.733 166.534 746.11 166.031 746.37C165.528 746.63 165.004 746.756 164.458 746.756C163.833 746.756 163.335 746.526 162.953 746.063C162.572 745.599 162.385 745.078 162.385 744.502C162.385 743.743 162.706 743.006 163.352 742.291C163.998 741.575 165.377 740.778 167.488 739.898V745.23H167.492Z" fill="white"/>
<path d="M201.62 741.584C201.199 741.771 200.735 741.974 200.241 742.191C199.768 741.81 199.148 741.445 198.468 741.081C198.663 741.619 198.806 742.23 198.871 742.945C198.953 743.847 198.698 744.745 198.13 745.451C197.089 746.748 195.68 747.393 193.907 747.393C192.134 747.393 190.903 746.752 190.088 745.469C189.273 744.185 188.869 742.078 188.869 739.143C188.869 737.002 189.208 735.393 189.884 734.323C190.56 733.252 191.575 732.714 192.927 732.714C193.595 732.714 194.067 732.853 194.341 733.126C194.614 733.399 194.817 733.854 194.956 734.492C195.411 736.651 196.469 737.73 198.125 737.73C198.962 737.73 199.643 737.44 200.167 736.854C200.692 736.269 200.952 735.588 200.952 734.812C200.952 733.447 200.289 732.346 198.958 731.509C197.627 730.672 195.823 730.256 193.543 730.256C189.867 730.256 186.871 731.223 184.564 733.152C182.254 735.081 181.101 737.626 181.101 740.786C181.101 743.947 182.158 746.154 184.278 747.862C186.398 749.57 188.987 750.428 192.039 750.428C194.271 750.428 196.226 749.951 197.909 749.002C199.586 748.052 200.748 746.704 201.385 744.957C201.385 744.957 201.997 742.963 201.624 741.584H201.62Z" fill="white"/>
<path d="M153.667 749.314C153.45 748.989 153.216 748.633 152.964 748.261C153.212 747.814 153.428 747.246 153.628 746.63C153.307 746.813 152.943 746.977 152.527 747.116C152.21 747.22 151.868 747.268 151.534 747.25C150.467 747.203 150.355 746.99 150.042 746.613C149.687 746.18 149.505 745.386 149.505 744.233V731.015H139.065V733.429C140.388 733.429 141.229 733.651 141.584 734.088C141.94 734.531 142.122 735.32 142.122 736.46V743.617C141.407 744.589 140.726 745.321 140.071 745.807C139.417 746.292 138.797 746.535 138.203 746.535C137.414 746.535 136.837 746.275 136.469 745.759C136.104 745.243 135.922 744.393 135.922 743.206V731.01H125.734V733.425C126.875 733.425 127.629 733.638 128.002 734.062C128.375 734.487 128.561 735.285 128.561 736.456V743.613C128.561 746.271 129.246 748.074 130.625 749.015C131.999 749.956 133.529 750.428 135.216 750.428C136.538 750.428 137.774 750.151 138.918 749.596C140.063 749.041 141.133 748.217 142.122 747.125V750.428C145.573 749.912 148.118 749.652 150.914 749.652C150.97 749.652 152.821 749.605 153.667 749.314Z" fill="white"/>
<path d="M256.188 743.5C255.924 743.687 255.629 743.895 255.321 744.112C254.944 743.917 254.463 743.747 253.943 743.596C254.125 743.899 254.346 744.541 254.489 745C254.632 745.46 254.593 745.963 254.307 746.344C254.077 746.652 253.756 746.804 253.349 746.804C252.56 746.804 252.165 746.149 252.165 744.844V736.182C252.165 735.09 252.048 734.223 251.814 733.586C251.58 732.948 251.099 732.341 250.379 731.76C249.655 731.184 248.706 730.789 247.531 730.577C246.352 730.364 244.891 730.256 243.143 730.256C240.013 730.256 237.512 730.75 235.643 731.739C233.775 732.727 232.838 733.928 232.838 735.341C232.838 735.966 233.094 736.508 233.601 736.971C234.109 737.435 234.798 737.665 235.665 737.665C236.623 737.665 237.33 737.448 237.785 737.015C238.24 736.581 238.544 735.888 238.695 734.929C238.908 733.534 239.97 732.831 241.886 732.831C242.675 732.831 243.36 733 243.937 733.343C244.513 733.685 244.804 734.457 244.804 735.658V737.344C240.23 738.896 237.07 740.305 235.323 741.584C233.575 742.859 232.7 744.328 232.7 745.985C232.7 747.155 233.138 748.135 234.009 748.924C234.88 749.713 236.194 750.107 237.941 750.107C239.263 750.107 240.529 749.908 241.734 749.505C242.944 749.102 244.102 748.499 245.211 747.693C246.183 749.301 248.068 750.107 250.865 750.107C252.399 750.107 253.717 749.735 254.818 748.989C255.881 748.269 256.449 747.168 256.527 745.685C256.527 744.849 256.457 744.207 256.188 743.496V743.5ZM244.8 745.23C244.327 745.733 243.841 746.11 243.339 746.37C242.836 746.63 242.311 746.756 241.765 746.756C241.141 746.756 240.642 746.526 240.26 746.063C239.879 745.599 239.693 745.078 239.693 744.502C239.693 743.743 240.013 743.006 240.659 742.291C241.305 741.575 242.684 740.778 244.795 739.898V745.23H244.8Z" fill="white"/>
<path d="M119.396 721.486C119.882 722.357 122.57 725.951 123.112 727.065C123.229 727.403 123.42 727.854 123.771 728.578C124.525 727.607 123.589 726.953 124.17 726.055C124.651 726.055 125.002 725.89 125.223 725.574C124.781 724.915 124.343 724.265 123.901 723.614L120.571 720.74L119.392 721.481L119.396 721.486Z" fill="white"/>
<path d="M121.061 720.692C123.502 721.208 124.582 720.796 125.847 720.393C125.462 721.061 125.071 721.668 124.673 722.123C124.872 722.622 125.058 723.094 125.232 723.523C123.277 723.77 121.365 723.666 119.722 721.096L121.066 720.692H121.061Z" fill="white"/>
<path d="M105.307 715.568C105.116 716.639 104.418 717.432 104.435 718.065C104.474 721.811 114.697 724.703 118.751 723.536C119.436 723.337 120.008 722.869 120.35 722.244C120.662 721.668 120.888 721.161 121.061 720.697C113.6 720.389 107.34 719.149 105.307 715.572V715.568Z" fill="white"/>
<path d="M277.665 731.479C276.998 730.668 276.018 730.26 274.726 730.26C273.434 730.26 272.133 730.651 271.011 731.435C269.888 732.22 268.882 733.39 268.002 734.956C267.941 733.057 267.698 731.492 267.274 730.26L257.814 732.268V734.682C259.149 734.682 259.999 734.899 260.354 735.333C260.71 735.766 260.892 736.56 260.892 737.713V744.233C260.892 745.373 260.719 746.162 260.367 746.604C260.016 747.047 259.184 747.263 257.862 747.263V749.678L271.696 749.665C272.701 749.648 273.304 749.483 273.963 749.232C273.733 748.898 273.482 748.534 273.217 748.144C273.469 747.675 273.686 747.086 273.885 746.44C273.373 746.817 272.272 747.285 271.24 747.259C269.979 747.259 269.172 747.034 268.826 746.587C268.474 746.141 268.301 745.352 268.301 744.229V742.2C268.301 739.785 268.548 737.973 269.042 736.763C269.537 735.554 270.278 734.951 271.266 734.951C271.904 734.951 272.498 735.255 273.044 735.862C273.59 736.486 274.032 736.893 274.366 737.093C274.7 737.292 275.125 737.388 275.641 737.388C276.599 737.388 277.34 737.067 277.873 736.43C278.407 735.792 278.671 735.025 278.671 734.127C278.671 733.169 278.337 732.285 277.67 731.474L277.665 731.479Z" fill="white"/>
<path d="M88.7413 734.049C91.9061 735.896 94.9668 737.279 97.9408 738.203C97.7978 736.911 97.7241 735.471 97.7241 733.88C97.7241 729.476 98.3614 726.259 99.6403 724.239C100.551 722.795 101.799 721.88 103.377 721.464C102.61 720.588 102.111 719.595 102.007 718.486C98.357 719.054 95.3266 720.545 92.9205 722.96C89.8858 726.007 88.3208 729.671 88.2124 733.937C88.3901 733.915 88.5766 733.95 88.7456 734.045L88.7413 734.049Z" fill="white"/>
<path d="M113.062 738.684C116.24 737.808 119.318 736.282 122.31 734.097C122.444 733.997 122.6 733.945 122.756 733.937C122.669 730.824 121.833 728.036 120.237 725.583C119.977 725.708 119.713 725.817 119.435 725.895C118.612 726.133 117.632 726.25 116.522 726.25C115.213 726.25 113.639 726.077 112.022 725.73C112.872 727.841 113.297 730.711 113.297 734.336C113.297 735.948 113.219 737.396 113.071 738.684H113.062Z" fill="white"/>
<path d="M122.258 738.484C122.475 737.656 122.631 736.811 122.704 735.944C119.488 738.194 116.18 739.742 112.768 740.583C112.586 741.484 112.352 742.273 112.07 742.967C115.599 742.2 119.002 740.708 122.258 738.489V738.484Z" fill="white"/>
<path d="M127.322 754.486C128.102 753.099 127.296 752.279 127.27 751.078C126.68 751.352 125.96 751.811 125.47 753.662C125.388 753.974 125.366 754.308 125.427 754.625C125.457 754.776 125.44 754.928 125.349 755.054C125.275 755.158 125.167 755.279 125.037 755.366C121.959 757.109 118.373 756.003 114.619 753.927C114.493 753.875 114.246 753.758 114.246 753.758C111.329 752.496 109.135 751.868 107.661 751.868C107.509 751.868 107.297 751.889 107.024 751.937L110.509 749.774C114.368 748.863 117.376 746.964 119.535 744.077C120.398 742.924 121.079 741.719 121.599 740.461C118.287 742.495 114.845 743.83 111.277 744.463C109.941 746.375 107.96 747.333 105.337 747.333C102.714 747.333 100.915 746.279 99.6406 744.177C99.6319 744.168 99.6276 744.155 99.6233 744.142C96.2677 743.405 92.8298 742.117 89.3096 740.297C89.6824 741.246 90.1506 742.169 90.7185 743.062C92.3963 745.698 94.5813 747.567 97.2692 748.668C99.9571 749.769 102.459 750.32 104.769 750.32C104.327 750.61 103.737 750.957 102.992 751.369C101.045 752.479 99.6406 753.402 98.7735 754.139C97.9065 754.876 97.473 755.548 97.473 756.155C97.473 756.58 97.6117 756.948 97.8935 757.261C98.1753 757.573 98.5221 757.729 98.9296 757.729C99.5366 757.729 100.356 757.183 101.392 756.086C102.485 754.946 103.716 754.378 105.086 754.378C106.027 754.378 106.924 754.607 107.774 755.063C108.623 755.518 109.673 756.333 110.917 757.499C111.797 758.331 112.634 759.016 113.423 759.571C113.592 759.701 113.951 759.936 113.956 759.936C114.766 760.421 115.69 760.707 116.644 760.781C121.261 761.136 124.746 759.662 126.441 756.216C126.507 756.077 126.576 755.969 126.663 755.917C126.897 755.739 127.469 755.964 127.92 755.904C129.585 755.73 130.07 754.881 130.551 754.018C128.986 753.701 128.154 754.096 127.317 754.482L127.322 754.486Z" fill="white"/>
<path d="M98.9034 742.62C98.6259 741.879 98.3961 741.042 98.2184 740.102C95.0016 739.178 91.6808 737.734 88.2559 735.766C88.3296 736.703 88.49 737.613 88.7197 738.502C92.1967 740.418 95.5955 741.788 98.9034 742.62Z" fill="white"/>
</g>
<g clip-path="url(#clip1_1084_21705)">
<path d="M233.638 403.86C224.574 394.349 207.483 385.669 192.372 375.391C192.245 375.263 192.181 375.11 192.206 374.931C191.861 374.931 191.682 375.711 191.503 376.516C191.401 377.002 191.414 377.513 191.554 377.986L191.695 378.446C191.848 378.945 192.078 379.405 192.411 379.814C201.346 390.68 225.469 397.724 231.298 409.676L235.913 408.551C235.53 407.005 234.941 405.228 233.638 403.86Z" fill="#FFBF68"/>
<g style="mix-blend-mode:multiply">
<path d="M231.298 409.676L235.913 408.551C235.53 407.005 234.941 405.228 233.638 403.86C233.139 403.336 232.615 402.812 232.065 402.3C228.051 400.83 224.216 399.628 220.918 399.258C225.546 402.415 229.393 405.79 231.298 409.676Z" fill="#BAB2AE"/>
</g>
<g style="mix-blend-mode:multiply">
<path d="M197.563 378.83C195.811 377.705 194.085 376.567 192.372 375.404C192.245 375.276 192.181 375.122 192.206 374.944C191.861 374.944 191.682 375.723 191.503 376.529C191.401 377.014 191.414 377.526 191.554 377.999L191.695 378.459C191.848 378.958 192.078 379.418 192.411 379.827C195.044 383.035 199.007 385.912 203.43 388.673L197.563 378.842V378.83Z" fill="#BAB2AE"/>
</g>
<path d="M192.143 457.205C192.232 459.366 192.219 461.347 191.861 462.817C191.58 464.006 190.8 464.978 189.727 465.54C184.255 468.404 176.802 465.182 173.261 472.482C172.763 473.517 173.453 474.757 174.604 474.859C176.176 474.987 177.991 474.655 179.474 474.834C180.625 474.974 181.583 475.831 181.839 476.969C182.772 480.932 183.885 483.437 185.291 484.536C185.802 484.946 186.543 484.971 187.093 484.6C191.069 481.89 185.661 477.94 199.685 473.722C200.439 473.492 201.002 472.661 200.835 471.894C200.644 471.063 199.877 470.321 199.199 469.541C199.046 469.362 199.161 469.081 199.391 469.081C199.915 469.068 200.478 468.915 200.541 468.685C202.344 466.294 197.154 465.4 197.537 462.395L198.637 458.228L192.13 457.205H192.143Z" fill="#FFBF68"/>
<path d="M177.991 471.037C179.704 469.426 181.353 468.608 184.715 469.337" stroke="#F97B31" stroke-width="1.62351" stroke-miterlimit="10" stroke-linecap="round"/>
<path d="M191.887 468.212C189.829 468.442 187.847 468.928 187.413 474.987" stroke="#F97B31" stroke-width="1.62351" stroke-miterlimit="10" stroke-linecap="round"/>
<path d="M194.533 467.355C196.016 467.79 197.563 468.135 197.972 469.823" stroke="#F97B31" stroke-width="1.62351" stroke-miterlimit="10" stroke-linecap="round"/>
<path d="M164.824 370.188C164.274 368.628 162.945 367.465 161.36 367.031C151.631 364.359 150.033 353.633 152.36 344.046C153.868 334.113 175.907 321.905 187.604 338.868C190.915 343.675 192.36 349.543 191.976 355.385C191.03 369.6 190.749 382.984 193.037 393.147C199.8 396.381 207.086 390.475 217.875 397.673C218.962 398.401 220.1 399.028 221.301 399.526C231.758 403.86 240.528 414.751 245.117 421.91C245.974 423.252 247.418 424.16 249.003 424.288C250.997 424.454 253.337 424.147 255.906 423.546C257.811 423.099 259.588 424.748 259.268 426.678C258.118 433.658 252.416 441.047 235.056 452.667C224.881 459.481 212.877 461.961 196.987 459.289C172.967 456.336 135.179 438.184 162.063 381.553C162.74 380.134 163.533 378.779 164.287 377.411C165.501 375.186 165.744 372.796 164.824 370.201V370.188Z" fill="white"/>
<path d="M227.399 454.112L230.672 452.987C231.528 452.693 232.398 453.345 232.372 454.252C232.219 459.8 228.639 464.479 228.294 470.206C228.256 470.756 228.294 471.331 228.307 471.881C228.754 481.417 227.86 487.08 225.904 489.675C224.983 490.89 223.296 490.864 222.312 489.701C219.474 486.313 215.869 484.524 211.049 485.252C209.618 485.47 208.339 484.332 208.365 482.875C208.441 479.295 207.777 476.112 206.307 473.364L216.086 472.392C216.917 472.315 217.71 471.996 218.361 471.497L221.762 468.915C222.478 468.365 223.04 467.637 223.398 466.806C225.009 463.035 226.326 459.315 226.236 455.812C226.211 455.058 226.684 454.367 227.399 454.125V454.112Z" fill="#FFBF68"/>
<path d="M210.589 474.987C212.635 474.374 214.693 474.041 216.764 474.271" stroke="#F97B31" stroke-width="1.62351" stroke-miterlimit="10" stroke-linecap="round"/>
<path d="M224.191 473.402C220.777 475.575 217.032 476.598 215.025 480.561" stroke="#F97B31" stroke-width="1.62351" stroke-miterlimit="10" stroke-linecap="round"/>
<path d="M225.009 481.213C224.677 484.127 224.293 486.774 223.437 487.605" stroke="#F97B31" stroke-width="1.62351" stroke-miterlimit="10" stroke-linecap="round"/>
<path d="M155.3 365.56C152.245 365.982 149.586 366.545 147.489 367.273C146.735 367.542 146.633 368.552 147.31 368.961C151.516 371.454 158.279 368.974 164.172 365.893C164.287 364.295 164.236 362.39 163.827 359.808L155.287 365.56H155.3Z" fill="#FFBF68"/>
<path d="M167.074 364.947C170.283 363.771 171.791 362.301 172.034 360.613C169.132 360.652 166.32 361.598 163.84 364.576C153.741 364.717 148.781 356.855 145.355 346.577C144.652 345.017 143.514 344.122 142.248 343.816L140.088 346.117L138.541 344.506C136.56 345.72 134.962 348.303 135 351.972C135.039 355.129 136.381 358.133 138.528 360.447C146.339 368.846 155.3 371.262 164.172 365.893C166.294 367.529 169.324 367.734 172.558 366.775C170.986 365.65 169.196 364.96 167.074 364.947Z" fill="#E53945"/>
<path d="M152.168 350.041C152.283 350.041 152.398 350.054 152.513 350.067C153.511 350.131 154.508 349.913 155.377 349.428C155.658 349.261 155.965 349.121 156.297 348.993C157.294 348.609 158.407 349.044 158.995 349.926C160.797 352.649 162.293 355.487 163.558 358.376C164.21 359.872 163.712 361.636 162.344 362.531C157.064 366.008 147.873 367.721 141.226 366.238C140.804 366.148 140.497 365.778 140.471 365.343C140.267 362.288 143.386 358.977 150.174 354.771C150.276 353.672 150.379 352.56 150.506 351.435C150.596 350.591 151.337 349.977 152.181 350.028L152.168 350.041Z" fill="#FFBF68"/>
<path d="M189.266 336.81C189.88 338.574 193.676 346.066 194.316 348.29C194.431 348.955 194.622 349.849 195.044 351.281C196.744 349.734 195.236 348.226 196.591 346.756C197.473 346.909 198.176 346.718 198.688 346.206C198.087 344.851 197.486 343.509 196.885 342.179L191.682 335.762L189.266 336.798V336.81Z" fill="#457B9D"/>
<path d="M191.669 335.187C196.003 336.925 199.033 337.219 201.487 336.887C200.554 337.999 199.646 338.984 198.764 339.699C198.969 340.684 199.161 341.617 199.34 342.461C195.658 342.282 192.168 341.476 189.969 336.209L191.669 335.2V335.187Z" fill="#1D3557"/>
<path d="M161.846 327.402C161.565 329.421 160.325 330.955 160.401 332.132C160.747 339.124 180.075 343.777 187.566 341.31C188.832 340.888 189.867 339.968 190.468 338.779C191.005 337.68 191.389 336.708 191.683 335.826C177.71 335.8 165.924 333.947 161.859 327.402H161.846Z" fill="#457B9D"/>
<path d="M159.43 322.071C160.619 319.156 178.094 318.965 180.97 321.381C181.187 321.572 181.468 321.687 181.75 321.751C185.559 322.646 197.448 330.623 196.093 332.221C196.054 332.259 196.016 332.311 195.991 332.362C195.339 333.551 194.674 334.471 193.984 335.085C193.6 335.417 193.14 335.647 192.641 335.762C184.076 337.769 178.976 335.097 172.354 334.675C165.796 333.717 164.121 331.198 161.871 327.632C161.641 327.274 161.552 326.839 161.616 326.417L161.782 325.331C159.877 324.781 158.624 323.925 159.417 322.071H159.43Z" fill="white"/>
<path d="M162.19 325.177C173.095 328.092 187.655 335.596 193.804 333.41" stroke="#457B9D" stroke-width="0.805361" stroke-miterlimit="10" stroke-linecap="round"/>
<path d="M178.886 333.18C183.846 335.417 188.333 337.002 191.043 336.171" stroke="#457B9D" stroke-width="0.805361" stroke-miterlimit="10" stroke-linecap="round"/>
<path d="M166.435 330.623C166.345 330.649 166.269 330.661 166.179 330.687C166.179 330.661 166.192 330.623 166.205 330.598C166.243 330.457 166.294 330.316 166.358 330.188C166.397 330.112 166.435 330.048 166.486 329.984C166.691 330.201 166.844 330.431 166.972 330.687C166.882 330.661 166.793 330.649 166.691 330.636C166.691 330.636 166.691 330.636 166.691 330.649C166.754 330.828 166.857 331.007 166.997 331.173C167.1 331.288 167.227 331.39 167.381 331.454C167.419 331.467 167.47 331.48 167.509 331.492C167.585 331.505 167.649 331.454 167.649 331.377C167.649 331.313 167.649 331.249 167.649 331.198C167.649 330.7 167.675 330.188 167.675 329.677C167.675 329.677 167.675 329.677 167.675 329.652C167.675 329.652 167.662 329.652 167.649 329.652C167.509 329.626 167.368 329.588 167.24 329.562C167.227 329.562 167.215 329.562 167.215 329.562C167.164 329.639 167.048 329.664 166.959 329.613C166.857 329.562 166.806 329.447 166.806 329.358C166.806 329.255 166.895 329.191 166.997 329.191C167.087 329.191 167.176 329.255 167.215 329.358C167.215 329.37 167.227 329.37 167.24 329.383C167.381 329.409 167.509 329.447 167.649 329.473C167.649 329.473 167.662 329.473 167.675 329.473C167.675 329.473 167.675 329.473 167.675 329.46C167.675 329.345 167.675 329.217 167.675 329.102C167.675 329.089 167.675 329.076 167.662 329.076C167.534 328.987 167.458 328.833 167.47 328.68C167.483 328.539 167.585 328.437 167.726 328.437C167.892 328.437 168.058 328.565 168.11 328.744C168.173 328.923 168.097 329.089 167.943 329.14C167.918 329.14 167.918 329.153 167.918 329.179C167.918 329.294 167.918 329.409 167.918 329.524C167.918 329.524 167.918 329.524 167.918 329.549H167.931C168.071 329.575 168.212 329.613 168.352 329.639C168.352 329.639 168.365 329.639 168.378 329.639C168.429 329.562 168.531 329.537 168.634 329.588C168.736 329.639 168.813 329.754 168.8 329.869C168.8 329.971 168.723 330.048 168.621 330.035C168.531 330.035 168.429 329.958 168.391 329.869C168.391 329.869 168.378 329.856 168.365 329.843C168.225 329.818 168.084 329.779 167.943 329.741C167.943 329.741 167.943 329.741 167.931 329.741C167.931 329.741 167.931 329.754 167.931 329.767C167.931 330.342 167.931 330.904 167.905 331.467C167.905 331.556 167.969 331.646 168.071 331.659C168.237 331.697 168.378 331.684 168.506 331.62C168.646 331.556 168.749 331.441 168.825 331.313C168.851 331.275 168.864 331.237 168.889 331.198C168.787 331.173 168.698 331.147 168.608 331.122C168.621 331.032 168.979 330.674 169.119 330.636C169.132 330.674 169.158 330.713 169.171 330.738C169.234 330.879 169.286 331.019 169.324 331.16C169.35 331.262 169.375 331.365 169.388 331.467C169.388 331.467 169.388 331.48 169.388 331.492C169.298 331.428 169.222 331.365 169.132 331.301C169.119 331.339 169.107 331.377 169.094 331.416C168.979 331.722 168.774 331.927 168.467 332.042C168.352 332.08 168.237 332.106 168.122 332.119C167.994 332.144 167.867 332.183 167.764 332.234C167.752 332.234 167.739 332.234 167.713 332.234C167.573 332.093 167.419 331.965 167.253 331.863C166.908 331.62 166.652 331.326 166.499 330.955C166.46 330.853 166.435 330.764 166.409 330.661C166.409 330.661 166.409 330.661 166.409 330.649L166.435 330.623ZM167.982 328.782C167.982 328.68 167.905 328.591 167.815 328.578C167.726 328.552 167.649 328.616 167.649 328.718C167.649 328.808 167.726 328.91 167.815 328.923C167.905 328.936 167.982 328.885 167.982 328.782Z" fill="#FFBF68"/>
<path d="M167.981 328.782C167.981 328.872 167.905 328.936 167.815 328.923C167.726 328.897 167.649 328.808 167.649 328.718C167.649 328.629 167.726 328.565 167.815 328.578C167.905 328.603 167.981 328.693 167.981 328.782Z" fill="white"/>
<path d="M157.259 353.288C157.54 352.311 157.322 351.391 156.773 351.232C156.223 351.074 155.55 351.738 155.269 352.715C154.987 353.692 155.205 354.612 155.754 354.77C156.304 354.929 156.977 354.265 157.259 353.288Z" fill="#F97B31"/>
<path d="M158.752 389.453C157.563 395.525 157.857 397.852 160.401 400.089C155.058 403.157 154.687 406.749 154.354 410.367C160.094 409.088 162.306 406.532 164.543 403.975C163.993 409.817 167.918 411.364 169.81 415.378C171.51 413.422 173.427 410.494 171.651 402.057C176.483 402.53 179.896 400.216 182.325 397.136C176.994 394.694 171.063 394.668 164.645 396.688C163.073 393.262 161.181 390.667 158.752 389.466V389.453Z" fill="#457B9D"/>
<path d="M165.552 399.59C166.393 399.59 167.074 398.949 167.074 398.158C167.074 397.368 166.393 396.727 165.552 396.727C164.712 396.727 164.031 397.368 164.031 398.158C164.031 398.949 164.712 399.59 165.552 399.59Z" stroke="#1D3557" stroke-width="0.805361" stroke-miterlimit="10"/>
<path d="M164.172 398.759C162.306 399.833 160.797 401.623 159.493 403.821" stroke="#1D3557" stroke-width="0.805361" stroke-miterlimit="10" stroke-linecap="round"/>
<path d="M164.53 399.207C163.827 399.846 163.328 400.626 163.303 401.763" stroke="#1D3557" stroke-width="0.805361" stroke-miterlimit="10" stroke-linecap="round"/>
<path d="M165.552 399.59C165.808 400.868 165.885 401.917 165.552 402.402" stroke="#1D3557" stroke-width="0.805361" stroke-miterlimit="10" stroke-linecap="round"/>
<path d="M166.588 399.207C167.291 401.111 167.534 402.863 167.074 404.397" stroke="#1D3557" stroke-width="0.805361" stroke-miterlimit="10" stroke-linecap="round"/>
<path d="M167.176 398.286C170.717 398.964 174.13 399.577 179.448 399.143" stroke="#1D3557" stroke-width="0.805361" stroke-miterlimit="10" stroke-linecap="round"/>
<path d="M158.918 392.93C160.286 394.592 162.024 396.024 164.466 397.161" stroke="#1D3557" stroke-width="0.805361" stroke-miterlimit="10" stroke-linecap="round"/>
<path d="M164.287 377.398C162.778 382.857 163.533 388.571 164.747 394.681C164.837 395.154 165.386 395.372 165.77 395.103C167.419 393.978 169.976 392.623 175.051 390.642C176.853 389.939 178.528 388.916 179.959 387.612C184.638 383.406 188.908 380.236 191.286 373.525C191.286 372.937 191.286 372.336 191.286 371.697V370.29C193.242 369.293 196.655 378.919 200.017 391.038C200.209 391.728 199.915 392.47 199.288 392.815C181.775 402.709 163.264 400.229 157.588 391.345C157.243 390.808 157.077 390.169 157.154 389.529C157.959 382.371 160.056 377.513 164.274 377.385L164.287 377.398Z" fill="#457B9D"/>
<g style="mix-blend-mode:multiply">
<path d="M179.039 388.392C177.825 389.325 176.495 390.092 175.064 390.642C173.939 391.076 172.954 391.485 172.06 391.856C173.504 393.965 176.022 396.445 179.078 399.104C182.018 398.9 185.112 398.363 188.256 397.468C185.38 394.387 182.312 391.37 179.039 388.392Z" fill="#BAB2AE"/>
</g>
<path d="M164.709 394.489C164.633 394.106 164.556 393.722 164.492 393.339C161.488 391.089 159.826 387.638 158.496 384.135C158.445 384.007 158.343 383.93 158.228 383.892C158.126 384.237 158.036 384.595 157.947 384.953C159.391 388.647 161.27 392.24 164.709 394.477V394.489Z" fill="white"/>
<path d="M199.135 387.893C199.135 387.893 199.084 387.893 199.072 387.906C184.153 395.18 173.747 397.468 167.266 394.899C167.023 394.809 166.793 394.694 166.563 394.592C166.282 394.771 166.013 394.937 165.771 395.103C166.154 395.295 166.55 395.487 166.959 395.653C168.749 396.369 170.82 396.714 173.185 396.714C179.653 396.714 188.295 394.042 199.34 388.66C199.263 388.405 199.187 388.136 199.123 387.88L199.135 387.893Z" fill="white"/>
<path d="M200.03 391.051C199.991 390.923 199.953 390.795 199.928 390.667C199.915 390.667 199.902 390.667 199.889 390.667C176.074 399.922 164.607 399.347 157.614 388.52C157.55 388.417 157.435 388.353 157.333 388.341C157.282 388.673 157.243 389.005 157.205 389.351C161.053 395.078 166.166 397.839 173.236 397.992C173.466 397.992 173.683 397.992 173.926 397.992C180.343 397.992 188.474 395.96 200.094 391.447C200.094 391.306 200.094 391.166 200.055 391.025L200.03 391.051Z" fill="white"/>
<path d="M196.655 395.116C200.797 399.718 204.951 402.211 210.499 402.991" stroke="#F0FAEF" stroke-width="1.62351" stroke-miterlimit="10" stroke-linecap="round"/>
<path d="M173.834 349.222C174.105 347.571 173.297 346.064 172.029 345.856C170.761 345.647 169.513 346.817 169.242 348.468C168.971 350.119 169.779 351.627 171.047 351.835C172.315 352.043 173.563 350.874 173.834 349.222Z" fill="#0B1828"/>
<path d="M193.191 417.998C193.191 430.334 191.733 437.314 193.382 441.763C193.855 443.041 194.878 444.038 196.131 444.588C206.191 448.934 233.305 449.548 245.156 445.93C248.684 444.856 251.241 441.763 251.535 438.081C252.097 431.05 249.118 423.073 250.448 414.508C251.765 407.784 248.172 405.304 242.292 404.806C241.627 404.755 240.963 404.691 240.298 404.601C224.076 402.351 210.18 401.853 200.247 404.333C195.977 405.061 192.871 408.117 193.178 418.011L193.191 417.998Z" fill="#FFBF68"/>
<path d="M195.504 410.929C196.642 406.659 199.084 404.052 206.102 403.259C200.784 405.24 197.064 408.577 197.345 417.602H194.929C194.763 416.042 194.712 414.253 195.492 410.929H195.504Z" fill="#F6F7F9"/>
<path d="M198.611 412.45C199.685 409.165 201.948 406.493 206.575 405.828C202.651 407.657 200.196 411.261 200.043 417.589H198.176C198.049 416.388 198.01 415.007 198.611 412.438V412.45Z" fill="#F6F7F9"/>
<path d="M193.19 417.998H204.887" stroke="white" stroke-width="1.62351" stroke-miterlimit="10"/>
<g style="mix-blend-mode:multiply">
<path d="M195.376 407.184C194.98 407.72 194.635 408.347 194.341 409.075L196.207 418.305H200.26C200.349 412.872 198.892 409.894 195.364 407.184H195.376Z" fill="#BAB2AE"/>
</g>
<path d="M194.035 418.305H200.478L200.26 431.434C199.148 435.269 194.559 434.4 194.035 431.434V418.305Z" fill="#F97B31"/>
<path d="M210.206 406.685C205.553 412.169 204.44 429.593 206.383 436.982C206.882 438.887 208.506 440.357 210.538 440.881C217.825 442.747 235.223 443.693 246.012 443.016C250.576 442.734 254.143 439.27 254.258 435.064C254.437 428.634 252.289 420.351 252.148 414.636C251.867 410.073 248.889 407.554 243.903 406.557C242.689 406.314 241.436 406.212 240.196 406.161L214.156 405.113C212.635 405.049 211.126 405.598 210.193 406.711L210.206 406.685Z" fill="#F97B31"/>
<path d="M210.001 405.982C205.552 409.063 204.478 418.842 206.345 422.984C206.818 424.045 208.365 424.876 210.321 425.17C217.3 426.218 233.957 426.742 244.274 426.372C248.645 426.205 252.059 424.275 252.174 421.91C252.34 418.305 250.282 413.652 250.154 410.443C249.885 407.887 247.035 406.468 242.267 405.905C241.103 405.765 239.902 405.713 238.713 405.688L213.785 405.1C212.328 405.061 210.883 405.381 210.001 405.995V405.982Z" fill="#F89C22"/>
<path d="M208.863 406.685C204.21 412.169 203.098 429.593 205.041 436.982C205.539 438.887 207.163 440.357 209.195 440.881C216.482 442.747 233.88 443.693 244.67 443.016C249.233 442.734 252.8 439.27 252.915 435.064C253.094 428.634 250.946 420.351 250.806 414.636C250.524 410.073 247.546 407.554 242.56 406.557C241.346 406.314 240.093 406.212 238.853 406.161L212.813 405.113C211.292 405.049 209.783 405.598 208.85 406.711L208.863 406.685Z" stroke="white" stroke-width="1.62351" stroke-miterlimit="10"/>
<path d="M198.546 413.217C191.989 401.827 177.428 389.363 165.182 375.8C165.092 375.647 165.066 375.48 165.13 375.314C164.798 375.225 164.427 375.953 164.069 376.682C163.852 377.129 163.75 377.628 163.775 378.127L163.801 378.612C163.826 379.136 163.942 379.635 164.172 380.108C170.295 392.776 192.065 405.33 194.903 418.318H199.659C199.659 416.72 199.505 414.866 198.559 413.217H198.546Z" fill="#FFBF68"/>
<path d="M225.814 419.647C225.52 419.021 225.789 418.28 226.402 417.96C228.026 417.116 230.94 417.155 231.81 418.471C232.986 420.862 233.037 424.237 232.756 427.893C232.692 428.762 231.963 429.452 231.081 429.452H229.969C228.524 429.452 227.323 428.353 227.195 426.908C226.952 424.198 226.773 421.731 225.814 419.647Z" fill="#E53945"/>
</g>
<defs>
<clipPath id="clip0_1084_21705">
<rect width="216.332" height="58.5266" fill="white" transform="translate(88 709)"/>
</clipPath>
<clipPath id="clip1_1084_21705">
<rect width="124" height="172.577" fill="white" transform="translate(135 320)"/>
</clipPath>
</defs>
</svg>
