<svg width="96" height="96" viewBox="0 0 96 96" fill="none" xmlns="http://www.w3.org/2000/svg">
<path d="M41.3568 15.6232C43.0764 8.01034 53.9236 8.01034 55.6432 15.6232C56.7577 20.5571 62.4196 22.9023 66.6964 20.2016C73.2955 16.0344 80.9656 23.7045 76.7984 30.3036C74.0977 34.5804 76.4429 40.2423 81.3768 41.3568C88.9897 43.0764 88.9897 53.9236 81.3768 55.6432C76.4429 56.7577 74.0977 62.4196 76.7984 66.6964C80.9656 73.2955 73.2955 80.9656 66.6964 76.7984C62.4196 74.0977 56.7577 76.4429 55.6432 81.3768C53.9236 88.9897 43.0764 88.9897 41.3568 81.3768C40.2423 76.4429 34.5804 74.0977 30.3036 76.7984C23.7045 80.9656 16.0344 73.2955 20.2016 66.6964C22.9023 62.4196 20.5571 56.7577 15.6232 55.6432C8.01034 53.9236 8.01034 43.0764 15.6232 41.3568C20.5571 40.2423 22.9023 34.5804 20.2016 30.3036C16.0344 23.7045 23.7045 16.0344 30.3036 20.2016C34.5804 22.9023 40.2423 20.5571 41.3568 15.6232Z" fill="#A8DADB"/>
<path d="M35.3949 47.0607C34.4832 51.1721 35.1022 55.5143 37.3419 59.0482C44.59 70.4352 61.5623 64.1412 61.99 52.4539C61.99 45.7442 58.501 34.877 51.0278 31.6087C49.1933 30.8118 47.1111 30.858 45.3441 31.7935C40.876 34.1725 36.8805 40.3856 35.3836 47.0607H35.3949Z" fill="white"/>
<path d="M56.8465 36.4823C55.3834 34.4959 53.6052 32.8445 51.4893 31.8167C51.5118 34.3227 53.8753 36.3668 56.8465 36.4823Z" fill="#FFBF68"/>
<path d="M35.9126 45.0975C36.2165 45.9637 36.9818 46.5873 37.8935 46.7259C39.4016 46.9568 40.8985 47.0377 42.3841 46.4141C43.172 46.0792 43.6334 45.2477 43.5209 44.3815C43.3971 43.3768 43.1945 42.4298 42.8343 41.5752C42.733 41.3211 42.5529 41.1132 42.3391 40.9516C41.2699 40.2125 39.8743 39.7159 38.3662 39.3001C37.3645 41.0786 36.5316 43.0419 35.9239 45.086L35.9126 45.0975Z" fill="#FFBF68"/>
<path d="M44.9839 60.5148C44.9952 59.9028 44.7588 59.3138 44.3761 58.8403C42.3053 56.288 37.2856 55.4681 36.1714 56.7615C36.4978 57.5469 36.8804 58.3091 37.3419 59.0366C37.6345 59.4986 37.9496 59.9374 38.276 60.3416C41.5624 62.9054 44.9389 62.9054 44.9839 60.5148Z" fill="#FFBF68"/>
<path d="M48.0002 52.5579C47.8426 54.1285 48.3153 55.7107 49.317 56.9117C54.9557 63.6908 60.6056 54.1516 59.5589 48.8623C58.1858 41.6675 49.2157 40.6282 48.0002 52.5579Z" fill="#FFBF68"/>
<path d="M47.9778 41.4365C47.8428 43.5153 51.0054 44.4969 52.0746 42.0948C52.2321 41.7483 52.1871 41.3326 51.962 41.0323C50.8816 39.5887 49.6998 39.5887 48.428 40.605C48.1692 40.8129 48.0003 41.1131 47.9778 41.4481V41.4365Z" fill="#FFBF68"/>
<g style="mix-blend-mode:multiply">
<path d="M36.9143 58.3322C37.0494 58.5748 37.1957 58.8173 37.342 59.0482C44.5901 70.4352 61.5623 64.1412 61.99 52.454C61.99 52.3154 61.99 52.1653 61.99 52.0151C54.2805 62.5359 45.6931 61.5774 36.9143 58.3322Z" fill="#BAB2AE"/>
</g>
<path d="M65.7364 59.8922V61.6939H59.0604V59.8922H61.3126V53.9803C61.3126 53.8302 61.3153 53.68 61.3206 53.5299C61.326 53.3744 61.334 53.2189 61.3447 53.0634L60.0095 54.1734C59.8916 54.2645 59.7736 54.3208 59.6556 54.3423C59.543 54.3584 59.4358 54.3584 59.3339 54.3423C59.232 54.3208 59.1409 54.286 59.0604 54.2377C58.98 54.1841 58.921 54.1305 58.8835 54.0769L58.0952 53.0312L61.7469 49.9667H63.806V59.8922H65.7364Z" fill="#1D3557"/>
<path d="M57.849 55.8199C57.849 56.3989 57.3797 56.8682 56.8007 56.8682H54.8207C54.5633 56.8682 54.3548 57.0768 54.3548 57.3341V59.437C54.3548 60.0941 53.822 60.6269 53.1648 60.6269C52.5076 60.6269 51.9749 60.0941 51.9749 59.437V57.3316C51.9749 57.0757 51.7674 56.8682 51.5115 56.8682H49.5478C48.9688 56.8682 48.4995 56.3989 48.4995 55.8199C48.4995 55.241 48.9688 54.7717 49.5478 54.7717H51.5115C51.7674 54.7717 51.9749 54.5642 51.9749 54.3083V52.2218C51.9749 51.5646 52.5076 51.0319 53.1648 51.0319C53.822 51.0319 54.3548 51.5646 54.3548 52.2218V54.3058C54.3548 54.5631 54.5633 54.7717 54.8207 54.7717H56.8007C57.3797 54.7717 57.849 55.241 57.849 55.8199Z" fill="#1D3557"/>
</svg>
