<svg width="96" height="96" viewBox="0 0 96 96" fill="none" xmlns="http://www.w3.org/2000/svg">
<path d="M41.3568 15.6232C43.0764 8.01034 53.9236 8.01034 55.6432 15.6232C56.7577 20.5571 62.4196 22.9023 66.6964 20.2016C73.2955 16.0344 80.9656 23.7045 76.7984 30.3036C74.0977 34.5804 76.4429 40.2423 81.3768 41.3568C88.9897 43.0764 88.9897 53.9236 81.3768 55.6432C76.4429 56.7577 74.0977 62.4196 76.7984 66.6964C80.9656 73.2955 73.2955 80.9656 66.6964 76.7984C62.4196 74.0977 56.7577 76.4429 55.6432 81.3768C53.9236 88.9897 43.0764 88.9897 41.3568 81.3768C40.2423 76.4429 34.5804 74.0977 30.3036 76.7984C23.7045 80.9656 16.0344 73.2955 20.2016 66.6964C22.9023 62.4196 20.5571 56.7577 15.6232 55.6432C8.01034 53.9236 8.01034 43.0764 15.6232 41.3568C20.5571 40.2423 22.9023 34.5804 20.2016 30.3036C16.0344 23.7045 23.7045 16.0344 30.3036 20.2016C34.5804 22.9023 40.2423 20.5571 41.3568 15.6232Z" fill="#FFBF68"/>
<path d="M29.042 54.1027C28.8863 54.6478 28.1137 54.6478 27.958 54.1027C27.8179 53.6126 27.5553 53.1663 27.1948 52.8058C26.8344 52.4454 26.3881 52.1828 25.898 52.0427C25.3527 51.8868 25.352 51.1138 25.8973 50.958C26.3874 50.8179 26.8337 50.5553 27.1942 50.1948C27.5546 49.8344 27.8172 49.3881 27.9573 48.898C28.1132 48.3527 28.8862 48.352 29.042 48.8973C29.1821 49.3874 29.4447 49.8337 29.8052 50.1942C30.1656 50.5546 30.6119 50.8172 31.102 50.9573C31.6473 51.1132 31.648 51.8862 31.1027 52.042C30.6126 52.1821 30.1663 52.4447 29.8058 52.8052C29.4454 53.1656 29.1821 53.6126 29.042 54.1027ZM34.6727 49.31C34.6277 49.4897 34.3723 49.4897 34.3273 49.31C34.2285 48.9144 34.024 48.5531 33.7357 48.2647C33.4475 47.9763 33.0862 47.7717 32.6907 47.6727C32.5109 47.6277 32.5109 47.3723 32.6907 47.3273C33.0862 47.2283 33.4475 47.0237 33.7357 46.7353C34.024 46.4469 34.2285 46.0856 34.3273 45.69C34.3723 45.5103 34.6277 45.5103 34.6727 45.69C34.7716 46.0857 34.9761 46.4471 35.2645 46.7355C35.5529 47.0239 35.9143 47.2284 36.31 47.3273C36.4897 47.3723 36.4897 47.6277 36.31 47.6727C35.9143 47.7716 35.5529 47.9761 35.2645 48.2645C34.9761 48.5529 34.7716 48.9143 34.6727 49.31ZM33.7627 57.2113C33.6786 57.4638 33.3214 57.4638 33.2373 57.2113C33.1637 56.9904 33.0396 56.7897 32.875 56.625C32.7103 56.4604 32.5096 56.3363 32.2887 56.2627C32.0362 56.1786 32.0362 55.8214 32.2887 55.7373C32.5096 55.6637 32.7103 55.5396 32.875 55.375C33.0396 55.2103 33.1637 55.0096 33.2373 54.7887C33.3214 54.5362 33.6786 54.5362 33.7627 54.7887C33.8363 55.0096 33.9604 55.2103 34.125 55.375C34.2897 55.5396 34.4904 55.6637 34.7113 55.7373C34.9638 55.8214 34.9638 56.1786 34.7113 56.2627C34.4904 56.3363 34.2897 56.4604 34.125 56.625C33.9604 56.7897 33.8363 56.9904 33.7627 57.2113Z" fill="#FFFDFB"/>
<path d="M42.8138 58.5874C43.5995 59.1269 45.4407 59.637 46.3965 59.467C56.2179 52.0202 64.9429 45.5762 58.8917 36.816C58.2174 35.3384 56.9861 34.2829 55.4967 33.4327C54.6934 32.5121 53.6204 32.0372 52.4653 31.6971C51.9786 31.3511 51.4274 31.1107 50.6651 31.2515C49.3634 30.7706 47.9679 31.0286 46.5313 31.6091C45.3879 31.3922 44.2035 31.8202 43.0015 32.4476C31.8841 37.3613 38.9028 49.2233 42.8138 58.5874Z" fill="#F0FAEF"/>
<path d="M45.7688 59.4963C46.0033 59.508 46.2144 59.4963 46.3962 59.4669C56.2177 52.0202 64.9427 45.5762 58.8915 36.816C62.1927 43.2014 56.9448 51.1407 45.7688 59.4963Z" fill="#457B9D"/>
<path d="M44.6721 59.3263C44.6721 59.3263 44.7308 59.338 44.7601 59.3438C55.4904 49.54 59.976 39.525 55.5021 33.4327C54.6988 32.5121 53.6258 32.0372 52.4707 31.6971C55.7367 35.4674 52.1189 47.1593 44.678 59.3204L44.6721 59.3263Z" fill="#E53945"/>
<g style="mix-blend-mode:multiply">
<path d="M55.4961 33.4386C55.285 33.1982 55.0622 32.993 54.8159 32.8053C58.7914 40.4749 53.6843 48.121 46.5776 57.62C55.9769 48.379 59.7003 39.1732 55.4903 33.4386H55.4961Z" fill="#BAB2AE"/>
</g>
<path d="M50.6646 31.2573C49.3629 30.7765 47.9673 31.0345 46.5308 31.615C39.0137 37.59 41.4295 47.3763 43.9391 59.1152C44.1267 59.1797 44.3261 59.2383 44.5254 59.2911C44.2381 47.8395 44.9359 33.7845 50.6646 31.2573Z" fill="#457B9D"/>
<path d="M42.8133 58.5874C42.9716 58.6988 43.1769 58.8044 43.4056 58.9041C40.0516 49.2585 34.6219 38.2408 42.9951 32.4476C31.8778 37.3613 38.8965 49.2233 42.8075 58.5874H42.8133Z" fill="#E53945"/>
<path d="M43.2532 58.8337L43.4584 59.9947" stroke="#F97B31" stroke-width="0.158316" stroke-miterlimit="10" stroke-linecap="round"/>
<path d="M44.1328 59.0507L43.4116 59.983" stroke="#F97B31" stroke-width="0.158316" stroke-miterlimit="10" stroke-linecap="round"/>
<path d="M45.0652 59.2852L45.2763 60.4403" stroke="#F97B31" stroke-width="0.158316" stroke-miterlimit="10" stroke-linecap="round"/>
<path d="M45.9505 59.5021L45.2292 60.4286" stroke="#F97B31" stroke-width="0.158316" stroke-miterlimit="10" stroke-linecap="round"/>
<path d="M43.6989 58.9275L43.4468 59.9595" stroke="#F97B31" stroke-width="0.158316" stroke-miterlimit="10" stroke-linecap="round"/>
<path d="M45.5107 59.3731L45.2585 60.4051" stroke="#F97B31" stroke-width="0.158316" stroke-miterlimit="10" stroke-linecap="round"/>
<path d="M42.9541 60.2703L42.2915 61.531" stroke="#F97B31" stroke-width="0.310769" stroke-miterlimit="10" stroke-linecap="round"/>
<path d="M45.5811 60.9153V62.3401" stroke="#F97B31" stroke-width="0.310769" stroke-miterlimit="10" stroke-linecap="round"/>
<path d="M40.8315 54.049C41.5117 55.597 42.1977 57.1215 42.8134 58.5874C43.5991 59.1269 45.4403 59.637 46.3961 59.467C47.7388 58.4467 49.064 57.4441 50.3364 56.4531C47.0704 56.0778 43.9041 55.2628 40.8315 54.0432V54.049Z" fill="#C2EDEB"/>
<path d="M45.8234 60.8146C45.8621 60.6573 45.2128 60.3623 44.3732 60.1557C43.5337 59.949 42.8217 59.9089 42.783 60.0661C42.7443 60.2233 43.3935 60.5183 44.2331 60.725C45.0727 60.9317 45.7847 60.9718 45.8234 60.8146Z" stroke="#FFBF68" stroke-width="0.310769" stroke-miterlimit="10"/>
<path d="M45.8534 60.6764C45.8921 60.5191 45.2429 60.2241 44.4033 60.0174C43.5637 59.8108 42.8517 59.7707 42.813 59.9279C42.7743 60.0851 43.4235 60.3801 44.2631 60.5868C45.1027 60.7935 45.8147 60.8336 45.8534 60.6764Z" stroke="#C2EDEB" stroke-width="0.0762264" stroke-miterlimit="10"/>
<path d="M42.1156 61.4606C43.3235 61.9356 44.5256 62.2522 45.7276 62.3577C45.8742 62.3695 45.9622 62.5336 45.9211 62.7037L45.282 65.2895C45.1647 65.7703 44.7484 66.0752 44.3497 65.9755L41.6466 65.313C41.2478 65.2133 41.025 64.7501 41.1423 64.2692L41.7814 61.6776C41.8225 61.5075 41.9749 61.4078 42.1098 61.4606H42.1156Z" fill="#FFBF68"/>
<g style="mix-blend-mode:multiply">
<path d="M48.5126 57.8604C47.7855 58.4057 47.035 58.9451 46.2668 59.4904C46.3079 59.4904 46.3548 59.4787 46.39 59.4728C47.1053 58.9334 47.8148 58.3939 48.5126 57.8604Z" fill="#BAB2AE"/>
<path d="M58.8914 36.816C63.1073 43.2835 58.7213 49.7393 50.6707 56.1892C58.4868 50.0442 64.0337 44.2686 58.8914 36.816Z" fill="#BAB2AE"/>
</g>
<g style="mix-blend-mode:multiply">
<path d="M41.2832 55.0751C41.8109 56.2713 42.3328 57.4499 42.8136 58.5874C43.5993 59.1269 45.4405 59.637 46.3962 59.4669C47.1702 58.8806 47.9325 58.3001 48.683 57.7255C48.2784 57.9072 47.868 58.0656 47.4517 58.1887C45.6398 58.734 43.6814 58.1359 42.4618 56.6818C42.0631 56.2068 41.6702 55.6556 41.2773 55.0693L41.2832 55.0751Z" fill="#BAB2AE"/>
</g>
<g style="mix-blend-mode:multiply">
<path d="M45.7276 62.3577C45.669 62.3577 45.6162 62.346 45.5576 62.3401C45.4403 62.9264 45.2585 63.4483 45.0064 63.8998C44.6898 64.4685 44.0213 64.75 43.3939 64.5565C43.3822 64.5565 43.3705 64.5506 43.3529 64.5448C43.2767 64.5213 43.1946 64.5155 43.1125 64.5213C43.0245 64.5331 42.9424 64.5448 42.8779 64.5624C42.6493 64.621 42.4147 64.6034 42.2036 64.5037C41.9046 64.363 41.5762 64.1461 41.2361 63.9057L41.1482 64.2751C41.0309 64.7559 41.2537 65.2191 41.6524 65.3188L44.3555 65.9814C44.7543 66.081 45.1706 65.7703 45.2878 65.2953L45.927 62.7095C45.968 62.5394 45.8801 62.3753 45.7335 62.3635L45.7276 62.3577Z" fill="#BAB2AE"/>
</g>
<path d="M57.8493 55.8199C57.8493 56.3989 57.3799 56.8682 56.801 56.8682H54.8209C54.5636 56.8682 54.355 57.0768 54.355 57.3341V59.4369C54.355 60.0941 53.8222 60.6269 53.1651 60.6269C52.5079 60.6269 51.9751 60.0941 51.9751 59.4369V57.3316C51.9751 57.0756 51.7677 56.8682 51.5117 56.8682H49.548C48.9691 56.8682 48.4998 56.3989 48.4998 55.8199C48.4998 55.241 48.9691 54.7716 49.548 54.7716H51.5117C51.7677 54.7716 51.9751 54.5642 51.9751 54.3082V52.2218C51.9751 51.5646 52.5079 51.0318 53.1651 51.0318C53.8222 51.0318 54.355 51.5646 54.355 52.2218V54.3057C54.355 54.563 54.5636 54.7716 54.8209 54.7716H56.801C57.3799 54.7716 57.8493 55.241 57.8493 55.8199Z" fill="#1D3557"/>
<path d="M65.7362 59.8922V61.6939H59.0602V59.8922H61.3123V53.9803C61.3123 53.8302 61.315 53.68 61.3204 53.5299C61.3257 53.3744 61.3338 53.2189 61.3445 53.0634L60.0093 54.1734C59.8913 54.2645 59.7734 54.3208 59.6554 54.3423C59.5428 54.3584 59.4355 54.3584 59.3337 54.3423C59.2318 54.3208 59.1406 54.286 59.0602 54.2377C58.9797 54.1841 58.9208 54.1305 58.8832 54.0769L58.095 53.0312L61.7467 49.9667H63.8058V59.8922H65.7362Z" fill="#1D3557"/>
</svg>
