<svg width="285" height="284" viewBox="0 0 285 284" fill="none" xmlns="http://www.w3.org/2000/svg">
<path d="M122.847 46.2186C127.934 23.6973 160.024 23.6973 165.111 46.2186C168.408 60.8146 185.158 67.7526 197.81 59.763C217.332 47.4353 240.023 70.1259 227.695 89.6481C219.706 102.3 226.644 119.05 241.24 122.347C263.761 127.434 263.761 159.524 241.24 164.611C226.644 167.908 219.706 184.658 227.695 197.31C240.023 216.832 217.332 239.523 197.81 227.195C185.158 219.206 168.408 226.144 165.111 240.74C160.024 263.261 127.934 263.261 122.847 240.74C119.55 226.144 102.8 219.206 90.1479 227.195C70.6257 239.523 47.9351 216.832 60.2628 197.31C68.2525 184.658 61.3145 167.908 46.7184 164.611C24.1971 159.524 24.1971 127.434 46.7184 122.347C61.3145 119.05 68.2525 102.3 60.2628 89.6481C47.9351 70.1259 70.6257 47.4353 90.1479 59.763C102.8 67.7526 119.55 60.8146 122.847 46.2186Z" fill="#FFBF68"/>
<path d="M86.4159 160.054C85.9552 161.666 83.6698 161.666 83.2091 160.054C82.7947 158.604 82.0177 157.284 80.9514 156.217C79.8851 155.151 78.5648 154.374 77.1149 153.96C75.5018 153.498 75.4997 151.212 77.1129 150.751C78.5628 150.336 79.8832 149.559 80.9494 148.493C82.0157 147.427 82.7927 146.106 83.2071 144.657C83.6683 143.043 85.9551 143.041 86.4159 144.655C86.8303 146.104 87.6073 147.425 88.6736 148.491C89.7399 149.557 91.0602 150.334 92.5101 150.749C94.1232 151.21 94.1253 153.497 92.5121 153.958C91.0622 154.372 89.7418 155.149 88.6756 156.215C87.6093 157.282 86.8303 158.604 86.4159 160.054ZM103.073 145.875C102.94 146.407 102.185 146.407 102.052 145.875C101.759 144.705 101.154 143.636 100.302 142.783C99.4487 141.93 98.3801 141.324 97.2099 141.032C96.6781 140.899 96.6781 140.143 97.2099 140.01C98.3801 139.717 99.4487 139.112 100.302 138.259C101.154 137.405 101.759 136.337 102.052 135.166C102.185 134.635 102.94 134.635 103.073 135.166C103.366 136.337 103.971 137.406 104.824 138.259C105.677 139.112 106.747 139.717 107.917 140.01C108.449 140.143 108.449 140.899 107.917 141.032C106.747 141.324 105.677 141.929 104.824 142.783C103.971 143.636 103.366 144.705 103.073 145.875ZM100.381 169.25C100.132 169.997 99.0759 169.997 98.8271 169.25C98.6093 168.597 98.2422 168.003 97.7551 167.516C97.268 167.029 96.6742 166.662 96.0206 166.444C95.2737 166.195 95.2737 165.138 96.0206 164.89C96.6742 164.672 97.268 164.305 97.7551 163.818C98.2422 163.331 98.6093 162.737 98.8271 162.083C99.0759 161.336 100.132 161.336 100.381 162.083C100.599 162.737 100.966 163.331 101.453 163.818C101.94 164.305 102.534 164.672 103.188 164.89C103.935 165.138 103.935 166.195 103.188 166.444C102.534 166.662 101.94 167.029 101.453 167.516C100.966 168.003 100.599 168.597 100.381 169.25Z" fill="#FFFDFB"/>
<path d="M101.629 102.798C104.667 109.517 109.349 113.556 116.033 114.361C120.629 118.931 125.627 121.978 131.678 120.916C136.599 125.238 140.989 129.783 155.855 130.005C159.68 133.121 165.295 134.575 172.629 134.413C182.968 135.346 187.161 133.643 190.071 131.392L172.441 116.235L140.861 105.366L120.808 99.4606L107.688 101.147L101.621 102.798H101.629Z" fill="#E53945"/>
<path d="M151.379 112.057V127.29L151.961 129.832C153.177 129.926 154.469 129.986 155.855 130.003C159.68 133.118 165.294 134.573 172.628 134.41C172.406 130.123 170.318 123.79 167.879 117.064L151.379 112.057Z" fill="white"/>
<path d="M153.825 111.056L139.568 110.209L132.457 116.268L131.687 120.915C136.607 125.236 140.997 129.781 155.862 130.003C156.538 122.934 156.025 116.525 153.834 111.056H153.825Z" fill="#E53945"/>
<path d="M139.991 111.054L130.98 105.166L116.278 110.574L116.038 114.348C120.634 118.918 125.631 121.965 131.682 120.904C134.138 116.565 136.97 113.493 139.991 111.045V111.054Z" fill="white"/>
<path d="M116.321 100.04L107.695 101.153L101.628 102.804C104.666 109.522 109.347 113.561 116.031 114.366C120.224 110.232 125.846 107.982 132.033 106.476L116.321 100.04Z" fill="#E53945"/>
<g style="mix-blend-mode:multiply">
<path d="M101.629 102.798C104.667 109.517 109.349 113.556 116.033 114.361C120.629 118.931 125.627 121.978 131.678 120.916C136.599 125.238 140.989 129.783 155.855 130.005C159.68 133.121 165.295 134.575 172.629 134.413C182.968 135.346 187.161 133.643 190.071 131.392L172.441 116.235L140.861 105.366L120.808 99.4606L107.688 101.147L101.621 102.798H101.629Z" fill="#BAB2AE"/>
</g>
<path d="M125.929 170.979L145.852 113.152L148.727 113.699L129.403 171.843C129.112 172.716 129.061 173.675 129.377 174.539C130.233 176.858 126.784 175.874 125.612 175.489C125.372 175.412 125.141 175.301 124.927 175.172C124.217 174.745 122.779 173.812 123.567 173.427C124.636 172.905 125.535 172.1 125.929 170.979Z" fill="#204942"/>
<path d="M101.631 102.795C103.454 104.764 106.518 105.089 111.079 103.437C117.164 106.783 123.489 106.972 129.839 106.886C136.72 112.278 144.842 114.503 153.837 114.546C162.267 119.587 169.986 123.583 175.275 123.994C179.11 128.419 183.68 131.526 190.081 131.397C181.66 108.803 152.048 81.7503 101.631 102.812V102.795Z" fill="white"/>
<path d="M126.733 95.8139C120.108 98.2873 114.451 100.803 111.079 103.431C117.164 106.777 123.489 106.966 129.839 106.88L147.085 96.1477C140.922 95.0607 134.136 94.8639 126.733 95.8139Z" fill="#E53945"/>
<path d="M157.001 98.8062C153.244 97.4284 149.188 96.3929 144.832 95.7939C139.346 99.1571 134.366 102.863 129.839 106.876C136.719 112.267 144.84 114.492 153.835 114.535C156.308 109.127 159.765 103.607 157.01 98.8062H157.001Z" fill="white"/>
<path d="M172.921 107.835C168.215 104.027 162.669 100.792 156.285 98.5497C156.884 104.643 155.275 109.546 153.829 114.535C162.258 119.576 169.977 123.572 175.266 123.983C176.695 121.185 176.695 116.726 172.913 107.835H172.921Z" fill="#E53945"/>
<path d="M167.633 104.044C174.582 114.792 176.558 120.919 175.266 123.983C179.1 128.407 183.67 131.514 190.071 131.385C186.468 121.715 178.972 111.232 167.633 104.044Z" fill="white"/>
<path d="M171.636 165.134C171.636 166.847 170.248 168.235 168.535 168.235H162.678C161.916 168.235 161.299 168.852 161.299 169.613V175.834C161.299 177.778 159.723 179.354 157.779 179.354C155.835 179.354 154.259 177.778 154.259 175.834V169.606C154.259 168.849 153.645 168.235 152.888 168.235H147.079C145.366 168.235 143.978 166.847 143.978 165.134C143.978 163.421 145.366 162.033 147.079 162.033H152.888C153.645 162.033 154.259 161.419 154.259 160.662V154.489C154.259 152.545 155.835 150.969 157.779 150.969C159.723 150.969 161.299 152.545 161.299 154.489V160.654C161.299 161.416 161.916 162.033 162.678 162.033H168.535C170.248 162.033 171.636 163.421 171.636 165.134Z" fill="#1D3557"/>
<path d="M194.971 177.181V182.511H175.221V177.181H181.883V159.692C181.883 159.248 181.891 158.803 181.907 158.359C181.923 157.899 181.947 157.439 181.978 156.979L178.028 160.263C177.679 160.533 177.33 160.699 176.981 160.763C176.648 160.81 176.331 160.81 176.03 160.763C175.728 160.699 175.459 160.596 175.221 160.453C174.983 160.295 174.808 160.136 174.697 159.977L172.365 156.884L183.168 147.818H189.26V177.181H194.971Z" fill="#1D3557"/>
</svg>
