<svg width="96" height="96" viewBox="0 0 96 96" fill="none" xmlns="http://www.w3.org/2000/svg">
<path d="M41.3568 15.6232C43.0764 8.01034 53.9236 8.01034 55.6432 15.6232C56.7577 20.5571 62.4196 22.9023 66.6964 20.2016C73.2955 16.0344 80.9656 23.7045 76.7984 30.3036C74.0977 34.5804 76.4429 40.2423 81.3768 41.3568C88.9897 43.0764 88.9897 53.9236 81.3768 55.6432C76.4429 56.7577 74.0977 62.4196 76.7984 66.6964C80.9656 73.2955 73.2955 80.9656 66.6964 76.7984C62.4196 74.0977 56.7577 76.4429 55.6432 81.3768C53.9236 88.9897 43.0764 88.9897 41.3568 81.3768C40.2423 76.4429 34.5804 74.0977 30.3036 76.7984C23.7045 80.9656 16.0344 73.2955 20.2016 66.6964C22.9023 62.4196 20.5571 56.7577 15.6232 55.6432C8.01034 53.9236 8.01034 43.0764 15.6232 41.3568C20.5571 40.2423 22.9023 34.5804 20.2016 30.3036C16.0344 23.7045 23.7045 16.0344 30.3036 20.2016C34.5804 22.9023 40.2423 20.5571 41.3568 15.6232Z" fill="#FFBF68"/>
<path d="M46.8503 46.2666C50.3 44.5467 51.9635 40.8797 50.5657 38.0762C49.1679 35.2727 45.2383 34.3943 41.7885 36.1143C38.3388 37.8343 36.6754 41.5013 38.0731 44.3048C39.4709 47.1082 43.4006 47.9866 46.8503 46.2666Z" fill="#F1F3B1"/>
<path d="M44.3196 37.0037C40.8698 38.7229 39.2078 42.39 40.6068 45.1955C40.9994 45.9808 41.5979 46.6097 42.3221 47.0786C43.7592 47.2616 45.3526 47.0062 46.8583 46.2552C50.3081 44.5361 51.9701 40.869 50.5711 38.0634C50.1785 37.2782 49.58 36.6492 48.8557 36.1804C47.4186 35.9974 45.8253 36.2528 44.3196 37.0037Z" fill="#FFBF68"/>
<g style="mix-blend-mode:multiply">
<path d="M38.6702 45.1917L50.7196 38.418C50.6739 38.2998 50.6281 38.1778 50.5709 38.0634C50.2584 37.4345 49.8124 36.9084 49.2749 36.4815C45.3753 37.7128 42.0094 41.3912 38.6702 45.1917Z" fill="#BAB2AE"/>
</g>
<path d="M33.0247 54.4738C33.1048 55.1294 33.5012 55.705 34.0654 56.0404C43.923 61.8879 67.6559 43.5488 60.764 37.0724C53.1326 30.6455 32.2471 48.0583 33.0209 54.4738H33.0247Z" fill="#F1F3B1"/>
<path d="M61.9686 40.4955C61.9115 40.0075 61.7666 39.5463 61.5226 39.1194C61.1376 38.437 60.4858 37.9491 59.7653 37.6442C51.4401 34.1143 33.3831 49.0608 34.0959 54.9807C34.1722 55.6097 34.5534 56.1662 35.0985 56.4902C35.209 56.555 35.3272 56.616 35.4415 56.677C44.369 59.7532 61.1567 47.9249 61.9648 40.4993L61.9686 40.4955Z" fill="#E53945"/>
<path d="M61.4462 39.3748C61.4462 39.3748 61.4386 39.3596 61.4348 39.3519C61.1031 38.6391 60.497 38.0902 59.7995 37.7281C59.5174 37.5832 59.2239 37.4612 58.9189 37.3583C50.2811 35.0826 33.4096 49.2553 34.0957 54.9808C34.1301 55.259 34.2254 55.5182 34.3664 55.7546C42.7259 57.226 58.6673 48.4319 61.4386 41.7839C61.7588 41.0139 61.7931 40.1372 61.4462 39.3786V39.3748Z" fill="#FFBF68"/>
<path d="M50.5827 48.9924C53.5791 46.2389 55.0383 42.9512 53.8417 41.6491C52.6452 40.3469 49.2461 41.5235 46.2496 44.2769C43.2531 47.0304 41.794 50.3181 42.9905 51.6203C44.1871 52.9224 47.5862 51.7459 50.5827 48.9924Z" fill="#4E82A2"/>
<g style="mix-blend-mode:multiply">
<path d="M46.2485 44.2883C43.2523 47.0405 41.7923 50.3302 42.9893 51.63C43.3019 51.9693 43.7707 52.137 44.3387 52.1561C44.6437 47.7266 48.2535 43.3811 53.2586 41.2769C51.7567 40.7013 48.852 41.8982 46.2523 44.2883H46.2485Z" fill="#BAB2AE"/>
</g>
<path d="M29.042 54.1027C28.8863 54.6478 28.1137 54.6478 27.958 54.1027C27.8179 53.6126 27.5553 53.1663 27.1948 52.8058C26.8344 52.4454 26.3881 52.1828 25.898 52.0427C25.3527 51.8868 25.352 51.1138 25.8973 50.958C26.3874 50.8179 26.8337 50.5553 27.1942 50.1948C27.5546 49.8344 27.8172 49.3881 27.9573 48.898C28.1132 48.3527 28.8862 48.352 29.042 48.8973C29.1821 49.3874 29.4447 49.8337 29.8052 50.1942C30.1656 50.5546 30.6119 50.8172 31.102 50.9573C31.6473 51.1132 31.648 51.8862 31.1027 52.042C30.6126 52.1821 30.1663 52.4447 29.8058 52.8052C29.4454 53.1656 29.1821 53.6126 29.042 54.1027ZM34.6727 49.31C34.6277 49.4897 34.3723 49.4897 34.3273 49.31C34.2285 48.9144 34.024 48.5531 33.7357 48.2647C33.4475 47.9763 33.0862 47.7717 32.6907 47.6727C32.5109 47.6277 32.5109 47.3723 32.6907 47.3273C33.0862 47.2283 33.4475 47.0237 33.7357 46.7353C34.024 46.4469 34.2285 46.0856 34.3273 45.69C34.3723 45.5103 34.6277 45.5103 34.6727 45.69C34.7716 46.0857 34.9761 46.4471 35.2645 46.7355C35.5529 47.0239 35.9143 47.2284 36.31 47.3273C36.4897 47.3723 36.4897 47.6277 36.31 47.6727C35.9143 47.7716 35.5529 47.9761 35.2645 48.2645C34.9761 48.5529 34.7716 48.9143 34.6727 49.31ZM33.7627 57.2113C33.6786 57.4638 33.3214 57.4638 33.2373 57.2113C33.1637 56.9904 33.0396 56.7897 32.875 56.625C32.7103 56.4604 32.5096 56.3363 32.2887 56.2627C32.0362 56.1786 32.0362 55.8214 32.2887 55.7373C32.5096 55.6637 32.7103 55.5396 32.875 55.375C33.0396 55.2103 33.1637 55.0096 33.2373 54.7887C33.3214 54.5362 33.6786 54.5362 33.7627 54.7887C33.8363 55.0096 33.9604 55.2103 34.125 55.375C34.2897 55.5396 34.4904 55.6637 34.7113 55.7373C34.9638 55.8214 34.9638 56.1786 34.7113 56.2627C34.4904 56.3363 34.2897 56.4604 34.125 56.625C33.9604 56.7897 33.8363 56.9904 33.7627 57.2113Z" fill="#FFFDFB"/>
<path d="M57.8493 55.8199C57.8493 56.3989 57.3799 56.8682 56.801 56.8682H54.8209C54.5636 56.8682 54.355 57.0768 54.355 57.3341V59.4369C54.355 60.0941 53.8222 60.6269 53.1651 60.6269C52.5079 60.6269 51.9751 60.0941 51.9751 59.4369V57.3316C51.9751 57.0756 51.7677 56.8682 51.5117 56.8682H49.548C48.9691 56.8682 48.4998 56.3989 48.4998 55.8199C48.4998 55.241 48.9691 54.7716 49.548 54.7716H51.5117C51.7677 54.7716 51.9751 54.5642 51.9751 54.3082V52.2218C51.9751 51.5646 52.5079 51.0318 53.1651 51.0318C53.8222 51.0318 54.355 51.5646 54.355 52.2218V54.3057C54.355 54.563 54.5636 54.7716 54.8209 54.7716H56.801C57.3799 54.7716 57.8493 55.241 57.8493 55.8199Z" fill="#1D3557"/>
<path d="M65.7362 59.8922V61.6939H59.0602V59.8922H61.3123V53.9803C61.3123 53.8302 61.315 53.68 61.3204 53.5299C61.3257 53.3744 61.3338 53.2189 61.3445 53.0634L60.0093 54.1734C59.8913 54.2645 59.7734 54.3208 59.6554 54.3423C59.5428 54.3584 59.4355 54.3584 59.3337 54.3423C59.2318 54.3208 59.1406 54.286 59.0602 54.2377C58.9797 54.1841 58.9208 54.1305 58.8832 54.0769L58.095 53.0312L61.7467 49.9667H63.8058V59.8922H65.7362Z" fill="#1D3557"/>
</svg>
