<svg width="96" height="96" viewBox="0 0 96 96" fill="none" xmlns="http://www.w3.org/2000/svg">
<path d="M41.3568 15.6232C43.0764 8.01034 53.9236 8.01034 55.6432 15.6232C56.7577 20.5571 62.4196 22.9023 66.6964 20.2016C73.2955 16.0344 80.9656 23.7045 76.7984 30.3036C74.0977 34.5804 76.4429 40.2423 81.3768 41.3568C88.9897 43.0764 88.9897 53.9236 81.3768 55.6432C76.4429 56.7577 74.0977 62.4196 76.7984 66.6964C80.9656 73.2955 73.2955 80.9656 66.6964 76.7984C62.4196 74.0977 56.7577 76.4429 55.6432 81.3768C53.9236 88.9897 43.0764 88.9897 41.3568 81.3768C40.2423 76.4429 34.5804 74.0977 30.3036 76.7984C23.7045 80.9656 16.0344 73.2955 20.2016 66.6964C22.9023 62.4196 20.5571 56.7577 15.6232 55.6432C8.01034 53.9236 8.01034 43.0764 15.6232 41.3568C20.5571 40.2423 22.9023 34.5804 20.2016 30.3036C16.0344 23.7045 23.7045 16.0344 30.3036 20.2016C34.5804 22.9023 40.2423 20.5571 41.3568 15.6232Z" fill="#A8DADB"/>
<g clip-path="url(#clip0_979_19136)">
<g style="mix-blend-mode:multiply">
<path d="M51.1273 68.9199C58.2332 68.9199 63.9936 67.1431 63.9936 64.9512C63.9936 62.7594 58.2332 60.9825 51.1273 60.9825C44.0214 60.9825 38.261 62.7594 38.261 64.9512C38.261 67.1431 44.0214 68.9199 51.1273 68.9199Z" fill="#BAB2AE"/>
</g>
<path d="M47.8468 58.0353C47.9411 59.4008 48.1798 59.3453 48.0077 60.4776C47.9855 60.6441 47.8412 60.7551 47.6747 60.7607C46.0428 60.8162 44.7884 61.3268 43.6672 62.004C43.373 62.1816 43.3175 62.5924 43.5562 62.8366C43.9502 63.2418 44.2056 63.6914 44.3221 64.1854C44.3832 64.4463 44.6718 64.5795 44.9216 64.4907C45.9263 64.1299 46.7977 64.1132 47.5137 64.474C47.7302 64.585 47.9911 64.5351 48.1299 64.3408C48.8015 63.4305 49.7062 62.7034 49.6785 61.5933C49.7229 59.6616 49.4509 59.2453 49.3121 57.8077L47.8412 58.0353H47.8468Z" fill="#FFBF68"/>
<path d="M40.037 41.4C27.809 38.3805 40.8751 24.0766 46.1649 36.1714C46.2592 36.3823 46.3314 36.6043 46.3924 36.8208C46.892 38.6025 47.4471 39.9014 48.0632 40.684C48.3518 41.0504 48.7348 41.3279 49.1566 41.5333C52.4204 43.1096 57.8656 41.7719 61.3624 44.5139C61.8509 44.8969 62.4504 45.1356 63.072 45.1079C63.999 45.069 64.8538 44.7859 65.7696 44.5639C66.0416 54.9602 52.8256 63.9688 42.5736 56.0426C40.7586 54.6716 38.9269 52.69 41.1138 45.6407C41.4246 44.2531 41.3136 43.1929 40.8529 42.0828C40.7086 41.7386 40.4033 41.4777 40.0425 41.3889L40.037 41.4Z" fill="#FFF8BB"/>
<path d="M44.9714 62.6534C45.8928 62.1983 46.7754 61.8042 47.4914 61.6654" stroke="#F97B31" stroke-width="0.560612" stroke-miterlimit="10" stroke-linecap="round"/>
<path d="M47.5808 63.4916C47.7751 63.0642 48.0526 62.6201 48.3801 62.1594" stroke="#F97B31" stroke-width="0.560612" stroke-miterlimit="10" stroke-linecap="round"/>
<path d="M55.8507 57.1083C56.1726 56.4756 56.9608 56.2369 57.4382 56.7031C57.5492 56.8142 57.6047 56.9696 57.6047 57.1305C57.6158 59.5784 57.1385 61.0604 56.5501 62.9698C56.5168 63.0808 56.5001 63.2029 56.5057 63.3195C56.5889 65.1845 55.995 65.9838 54.9404 66.9385C54.7073 67.1494 54.3576 67.1216 54.1356 66.9052C53.4029 66.2002 52.3205 65.9172 51.0605 65.8506C50.8829 65.8395 50.7219 65.7395 50.6498 65.573C50.4611 65.1567 50.1225 64.8403 49.6007 64.6405C49.4453 64.5795 49.4176 64.3741 49.5563 64.2797C51.0217 63.3306 52.5981 62.6034 54.6185 62.3981C54.8627 62.3759 55.0681 62.2038 55.1236 61.9707C55.7175 59.5562 56.2892 59.0511 55.8119 57.5302C55.7675 57.3859 55.773 57.236 55.8396 57.1028L55.8507 57.1083Z" fill="#FFBF68"/>
<path d="M51.6326 64.474C52.443 63.98 53.2533 63.5248 54.1414 63.436" stroke="#F97B31" stroke-width="0.560612" stroke-miterlimit="10" stroke-linecap="round"/>
<path d="M54.3689 65.0346C54.7075 64.635 55.0516 64.3353 55.4346 64.3519" stroke="#F97B31" stroke-width="0.560612" stroke-miterlimit="10" stroke-linecap="round"/>
<path d="M36.0573 39.4962C36.0739 39.424 36.0906 39.3518 36.1072 39.2852C36.246 38.7968 36.7788 38.5526 37.2451 38.7468C37.8945 39.0133 38.7105 39.2297 39.7651 39.374C40.0037 39.4074 40.1425 39.6682 40.026 39.8847C38.605 42.5434 37.4616 44.1809 36.6345 44.6749C36.4236 44.8025 36.135 44.7359 36.0184 44.5195C35.4689 43.5481 36.8177 41.8496 36.1017 39.9846C36.0406 39.8292 36.0184 39.6627 36.0517 39.4962H36.0573Z" fill="#FFBF68"/>
<path d="M39.4227 36.8264C39.7269 36.6881 39.8274 36.2548 39.6472 35.8585C39.4671 35.4623 39.0744 35.2531 38.7702 35.3914C38.4661 35.5297 38.3655 35.9631 38.5457 36.3594C38.7259 36.7556 39.1185 36.9647 39.4227 36.8264Z" fill="#0B1828"/>
<path d="M37.6542 40.3896C37.7872 40.343 37.8285 40.1152 37.7464 39.8809C37.6642 39.6466 37.4897 39.4944 37.3567 39.5411C37.2236 39.5877 37.1823 39.8155 37.2645 40.0498C37.3466 40.2842 37.5211 40.4363 37.6542 40.3896Z" fill="#F97B31"/>
<path d="M40.5588 31.3811C41.0084 31.6031 43.1565 32.3358 43.7004 32.6411C43.8447 32.7466 44.0557 32.8798 44.4053 33.0796C44.4442 32.4635 43.8669 32.4524 43.8503 31.914C44.0501 31.7752 44.15 31.6087 44.15 31.4144C43.7781 31.2645 43.4118 31.1202 43.0399 30.9759L40.8252 30.7206L40.5532 31.3756L40.5588 31.3811Z" fill="#FFBF68"/>
<path d="M40.7144 30.6152C41.8801 30.1323 42.5184 29.6216 42.9291 29.0887C42.9569 29.4773 42.968 29.8381 42.9291 30.1434C43.1567 30.2932 43.3676 30.4375 43.5619 30.5652C42.8181 31.2257 41.9911 31.7308 40.5757 31.1258L40.7089 30.6096L40.7144 30.6152Z" fill="#F97B31"/>
<path d="M33.4929 34.7337C33.8204 35.1778 33.8704 35.7051 34.109 35.9216C35.4967 37.2038 40.1037 34.4618 41.0806 32.569C41.2471 32.2471 41.2749 31.8752 41.1583 31.531C41.0529 31.2147 40.9474 30.9593 40.8364 30.7318C38.1388 33.3683 35.5133 35.2333 33.4929 34.7337Z" fill="#F97B31"/>
<path d="M32.0223 34.162C31.7003 33.3793 35.0363 30.0434 36.0465 29.9657C36.1242 29.9602 36.2019 29.9324 36.2685 29.8935C37.1732 29.3496 40.9699 28.6447 41.0087 29.2053C41.0087 29.2219 41.0087 29.2386 41.0143 29.2497C41.1142 29.5994 41.1586 29.9046 41.1419 30.1544C41.1308 30.2932 41.0864 30.4209 41.0143 30.5374C39.7376 32.5412 38.2556 32.9852 36.8957 34.1564C35.4526 35.211 34.6533 35.039 33.5431 34.7781C33.4321 34.7503 33.3322 34.6837 33.2656 34.5949L33.0935 34.3507C32.6217 34.606 32.2221 34.6782 32.0223 34.1675V34.162Z" fill="white"/>
<path d="M33.1431 34.2397C35.7963 32.7466 40.0203 31.4477 40.7918 29.8658" stroke="#FFBF68" stroke-width="0.216474" stroke-miterlimit="10" stroke-linecap="round"/>
<path d="M37.8723 32.6355C39.2489 32.1304 40.4145 31.592 40.7808 30.9204" stroke="#FFBF68" stroke-width="0.216474" stroke-miterlimit="10" stroke-linecap="round"/>
<path d="M35.0473 34.5173C35.0473 34.5173 35.0307 34.5562 35.0196 34.5784C35.0196 34.5673 35.0085 34.5618 35.0029 34.5562C34.9807 34.5173 34.9585 34.4785 34.9419 34.4341C34.9308 34.4119 34.9252 34.3897 34.9197 34.3619C34.9974 34.373 35.0696 34.3952 35.1417 34.4341C35.1251 34.4452 35.1029 34.4618 35.0862 34.4729C35.1362 34.5007 35.1861 34.5229 35.2416 34.534C35.2805 34.5395 35.3193 34.5395 35.3526 34.5284C35.3637 34.5284 35.3693 34.5173 35.3804 34.5118C35.397 34.5007 35.3915 34.4785 35.3804 34.4563C35.3693 34.4396 35.3582 34.4285 35.3415 34.4119C35.2416 34.2898 35.1473 34.1732 35.0529 34.0566C35.0251 34.0788 34.9974 34.0955 34.9696 34.1177C34.9696 34.1177 34.9696 34.1177 34.9696 34.1233C34.9752 34.151 34.9641 34.1788 34.9363 34.1843C34.9086 34.1899 34.8808 34.1843 34.8642 34.1566C34.8475 34.1288 34.8475 34.1011 34.8642 34.0844C34.8808 34.0677 34.9086 34.0622 34.9308 34.0788C34.9308 34.0788 34.9308 34.0788 34.9363 34.0788C34.9641 34.0566 34.9918 34.04 35.0196 34.0178C34.9974 33.99 34.9752 33.9623 34.9585 33.9345C34.9585 33.9345 34.9585 33.9345 34.953 33.9345C34.9141 33.9401 34.8753 33.9234 34.8531 33.8846C34.8309 33.8513 34.8309 33.8069 34.8531 33.7791C34.8808 33.7458 34.9308 33.7403 34.9696 33.768C35.0085 33.7958 35.0251 33.8513 35.0085 33.8901V33.9012C35.0307 33.929 35.0473 33.9512 35.0696 33.9789C35.0973 33.9567 35.1251 33.9345 35.1528 33.9179C35.1528 33.9179 35.1528 33.9179 35.1528 33.9123C35.1473 33.8846 35.1528 33.8568 35.1806 33.8513C35.2028 33.8402 35.2361 33.8513 35.2527 33.879C35.2694 33.9012 35.2694 33.9345 35.2527 33.9567C35.2361 33.9734 35.2139 33.9789 35.1861 33.9678C35.1861 33.9678 35.1861 33.9678 35.1806 33.9678C35.1528 33.99 35.1251 34.0122 35.0973 34.0289C35.2028 34.1621 35.3138 34.2953 35.4248 34.4285C35.4414 34.4507 35.4692 34.4563 35.4858 34.4452C35.5136 34.423 35.5303 34.3897 35.5358 34.3453C35.5358 34.3009 35.5358 34.2565 35.5192 34.2065C35.5192 34.1954 35.508 34.1788 35.508 34.1677C35.4914 34.1788 35.4747 34.1954 35.4581 34.2065C35.4414 34.1788 35.4248 34.0289 35.4359 33.99C35.447 33.99 35.4525 34.0011 35.4636 34.0067C35.4969 34.0233 35.5303 34.0511 35.5636 34.0788C35.5858 34.0955 35.608 34.1177 35.6302 34.1399C35.6302 34.1399 35.6302 34.1399 35.6357 34.1455C35.6135 34.1455 35.5913 34.1455 35.5691 34.151C35.5747 34.1621 35.5802 34.1732 35.5858 34.1899C35.6302 34.2842 35.6468 34.3786 35.6302 34.4674C35.6246 34.5007 35.6135 34.5284 35.6024 34.5562C35.5913 34.5895 35.5802 34.6173 35.5802 34.6561C35.5802 34.6617 35.5802 34.6617 35.5691 34.6617C35.5192 34.6561 35.4747 34.6561 35.4248 34.6617C35.3249 34.6728 35.2194 34.6506 35.1195 34.5895C35.0918 34.5729 35.0696 34.5562 35.0418 34.5395L35.0473 34.5173ZM34.9474 33.7958C34.9474 33.7958 34.903 33.768 34.8864 33.7847C34.8697 33.8013 34.8642 33.8291 34.8864 33.8513C34.903 33.8735 34.9308 33.879 34.9474 33.8624C34.9641 33.8457 34.9696 33.818 34.9474 33.7958Z" fill="#FFBF68"/>
<path d="M34.9473 33.7958C34.9473 33.7958 34.964 33.8457 34.9473 33.8624C34.9307 33.879 34.9029 33.8679 34.8863 33.8513C34.8696 33.8291 34.8696 33.8013 34.8863 33.7847C34.9029 33.768 34.9307 33.7791 34.9473 33.7958Z" fill="white"/>
<path d="M40.7976 45.4131C41.0085 46.9285 41.2639 47.4502 42.0354 47.7666C41.0307 48.91 41.2361 49.7815 41.447 50.6529C42.6848 49.8925 43.0012 49.121 43.3176 48.3383C43.6562 49.7482 44.6997 49.7981 45.4657 50.5808C45.7043 49.9869 45.9208 49.1487 44.8274 47.3226C45.993 47.045 46.6091 46.2291 46.931 45.3132C45.4879 45.1689 44.1002 45.6407 42.7625 46.6287C42.1187 45.9516 41.4692 45.4964 40.8032 45.4131H40.7976Z" fill="#F97B31"/>
<path d="M43.1997 47.243C43.3968 47.1753 43.5051 46.97 43.4414 46.7845C43.3777 46.5989 43.1662 46.5033 42.9691 46.571C42.7719 46.6386 42.6637 46.8439 42.7274 47.0295C42.791 47.2151 43.0025 47.3106 43.1997 47.243Z" stroke="#1D3557" stroke-width="0.199822" stroke-miterlimit="10"/>
<path d="M42.8125 47.156C42.4629 47.5556 42.2519 48.0941 42.1243 48.7157" stroke="#1D3557" stroke-width="0.199822" stroke-miterlimit="10" stroke-linecap="round"/>
<path d="M42.9293 47.2336C42.8182 47.439 42.7627 47.661 42.846 47.9274" stroke="#1D3557" stroke-width="0.199822" stroke-miterlimit="10" stroke-linecap="round"/>
<path d="M43.2009 47.2391C43.3619 47.5167 43.4674 47.7553 43.4285 47.8941" stroke="#1D3557" stroke-width="0.199822" stroke-miterlimit="10" stroke-linecap="round"/>
<path d="M43.4119 47.067C43.7283 47.4556 43.9281 47.8441 43.9447 48.2382" stroke="#1D3557" stroke-width="0.199822" stroke-miterlimit="10" stroke-linecap="round"/>
<path d="M43.4729 46.8063C44.3554 46.6787 45.2047 46.551 46.4092 46.0181" stroke="#1D3557" stroke-width="0.199822" stroke-miterlimit="10" stroke-linecap="round"/>
<path d="M41.114 46.2124C41.5636 46.4899 42.0909 46.6898 42.7514 46.7564" stroke="#1D3557" stroke-width="0.199822" stroke-miterlimit="10" stroke-linecap="round"/>
<path d="M40.9698 42.3103C41.2584 43.6258 41.8468 44.8247 42.6183 46.1568C42.6794 46.2567 42.8237 46.2678 42.8903 46.1735C43.1845 45.7794 43.6729 45.2576 44.7053 44.3862C45.0717 44.0754 45.377 43.7035 45.6101 43.2872C46.365 41.9273 47.1087 40.8449 47.131 39.0854C47.081 38.9466 47.0366 38.8078 46.9811 38.658L46.8701 38.3305C47.2475 37.9419 48.8183 39.9179 50.5779 42.4823C50.6778 42.6266 50.6667 42.8265 50.5501 42.9597C47.2475 46.6786 42.7238 47.5833 40.6811 45.9626C40.559 45.8627 40.4647 45.7294 40.4314 45.574C40.0428 43.8367 40.1205 42.9375 40.9698 42.3214V42.3103Z" fill="#F97B31"/>
<path d="M42.5962 46.1124C42.5462 46.0292 42.5018 45.9459 42.4519 45.8627C41.5693 45.574 40.9032 44.9024 40.3093 44.1919C40.2871 44.1642 40.2594 44.1586 40.2261 44.1586C40.2261 44.2474 40.2372 44.3362 40.2427 44.4306C40.8755 45.1799 41.6026 45.8682 42.5906 46.1124H42.5962Z" fill="white"/>
<path d="M50.1117 41.8109C50.1117 41.8109 50.1006 41.8109 50.0951 41.822C47.1921 44.7194 44.9441 46.0904 43.2234 46.0071C43.1568 46.0071 43.0958 45.996 43.0347 45.9905C42.9847 46.0571 42.9348 46.1126 42.8904 46.1736C42.9958 46.1903 43.1013 46.2014 43.2123 46.2069C43.6897 46.2291 44.2003 46.1459 44.7554 45.9572C46.2652 45.441 48.0747 44.1199 50.2227 41.9774C50.1839 41.9219 50.145 41.8664 50.1062 41.8164L50.1117 41.8109Z" fill="white"/>
<path d="M50.5723 42.4768C50.5723 42.4768 50.5335 42.4213 50.5168 42.3936C50.5168 42.3936 50.5113 42.3936 50.5057 42.3936C45.6822 46.4677 42.9513 47.2503 40.448 45.2854C40.4258 45.2688 40.3925 45.2632 40.3647 45.2688C40.3814 45.352 40.398 45.4297 40.4147 45.513C41.7746 46.5454 43.19 46.7785 44.8552 46.2512C44.9107 46.2346 44.9607 46.2179 45.0162 46.1957C46.5148 45.6795 48.2522 44.5527 50.6112 42.5656C50.6001 42.5323 50.589 42.499 50.5668 42.4713L50.5723 42.4768Z" fill="white"/>
</g>
<path d="M59.6786 42.3529L59.6786 42.353C58.8747 43.228 57.351 44.8861 56.2925 46.0376C55.7679 46.6083 55.293 47.152 54.9513 47.567C54.7797 47.7753 54.646 47.946 54.5573 48.0689C54.5567 48.0697 54.5562 48.0705 54.5556 48.0712C54.5753 48.078 54.5994 48.0853 54.6287 48.0928C54.9408 48.1732 55.5248 48.2069 56.6053 48.2069H58.7368H59.2368V48.7069V52.6258V53.1794H61.5H63.7632V52.6258V48.7069V48.2069H64.2632H66.2499C67.2727 48.2069 67.9071 48.164 68.2768 48.0778C68.3332 48.0647 68.3782 48.0516 68.414 48.0396C68.4139 48.0394 68.4138 48.0393 68.4137 48.0392C68.3083 47.8944 68.1516 47.6994 67.9554 47.4668C67.5647 47.0034 67.0403 46.4182 66.5116 45.8408C65.9839 45.2644 65.4558 44.6998 65.0593 44.2791C64.8612 44.0688 64.6961 43.8946 64.5806 43.7731L64.4466 43.6323L64.4114 43.5955L64.4025 43.5861L64.4002 43.5837L64.3997 43.5832L64.3996 43.583L64.7609 43.2374L64.3995 43.583L64.3911 43.5742L64.3831 43.565L64.3831 43.565L64.383 43.5648L64.3825 43.5643L64.3806 43.5621L64.3728 43.5531L64.3422 43.518L64.2275 43.3867C64.1295 43.2748 63.9918 43.1183 63.833 42.9398C63.5143 42.5815 63.1145 42.1389 62.781 41.7907C62.3944 41.3869 62.1112 41.0919 61.8923 40.8779C61.6865 40.6766 61.5634 40.5733 61.4861 40.5222C61.4616 40.5387 61.4249 40.5643 61.3712 40.6038M59.6786 42.3529L61.3711 40.6038L61.3712 40.6038M59.6786 42.3529C60.0778 41.9183 60.474 41.4991 60.79 41.1742M59.6786 42.3529L60.79 41.1742M61.3712 40.6038C61.3714 40.6036 61.3712 40.6038 61.3706 40.6043M61.3712 40.6038L61.3706 40.6043M63.7632 61.5564H64.2632V61.8518C64.2632 62.4282 64.168 62.692 63.9178 62.8105C63.433 63.0401 59.9078 63.0702 59.2672 62.8504C58.7994 62.6899 58.7368 62.5732 58.7368 61.8625V61.5564H59.2368M63.7632 61.5564V61.0564H61.5H59.2368V61.5564M63.7632 61.5564H61.5H59.2368M63.7632 61.5564V61.8518C63.7632 62.1247 63.7389 62.2641 63.7139 62.3334C63.7096 62.3454 63.7059 62.3533 63.7034 62.358M59.2368 61.5564V61.8625C59.2368 62.0376 59.241 62.1536 59.2506 62.2364C59.2548 62.2727 59.2594 62.2962 59.2629 62.3103M59.2629 62.3103C59.2856 62.3223 59.3345 62.3449 59.4294 62.3775C59.4578 62.3872 59.5398 62.406 59.6929 62.425C59.8367 62.443 60.0169 62.4581 60.2245 62.47C60.6391 62.4937 61.1436 62.5033 61.6467 62.499C62.1499 62.4947 62.6441 62.4765 63.0381 62.446C63.2356 62.4307 63.4017 62.4127 63.5283 62.3931C63.6321 62.377 63.6833 62.3633 63.6996 62.359C63.7012 62.3586 63.7025 62.3583 63.7034 62.358M59.2629 62.3103C59.2661 62.3233 59.2683 62.3285 59.2683 62.3285C59.2682 62.3285 59.2679 62.3277 59.2671 62.3263C59.2577 62.3088 59.2459 62.3002 59.2457 62.3002C59.2456 62.3002 59.2502 62.3036 59.2629 62.3103ZM63.7034 62.358C63.7012 62.3623 63.6999 62.364 63.6999 62.364C63.6999 62.3639 63.7003 62.3634 63.7011 62.3625C63.7021 62.3612 63.7032 62.3602 63.7041 62.3594C63.7041 62.3594 63.7042 62.3593 63.7042 62.3593C63.7059 62.3577 63.7071 62.357 63.7071 62.3569C63.7071 62.3569 63.7062 62.3575 63.7038 62.3586L63.7037 62.3586C63.7062 62.3574 63.7063 62.3573 63.7034 62.358ZM60.79 41.1742C60.9482 41.0117 61.0847 40.8744 61.1906 40.7714M60.79 41.1742L61.1906 40.7714M61.1906 40.7714C61.2437 40.7198 61.2873 40.6785 61.3211 40.6478M61.1906 40.7714L61.3211 40.6478M61.3211 40.6478C61.3521 40.6195 61.3673 40.6071 61.3706 40.6043M61.3211 40.6478L61.3706 40.6043M59.249 55.3044C59.2497 55.2974 59.2503 55.2909 59.251 55.2848C59.3433 55.2745 59.6728 55.2659 60.1761 55.2655C60.6723 55.2652 61.298 55.2725 61.9322 55.2875L63.7632 55.331V55.7229V56.103H61.5H59.2368V55.7248C59.2368 55.5324 59.2403 55.3999 59.249 55.3044ZM59.2368 59.3095V58.8297V58.35H61.5H63.7632V58.8297V59.3095H61.5H59.2368Z" fill="#668942" stroke="#668942"/>
<defs>
<clipPath id="clip0_979_19136">
<rect width="33.7699" height="39.92" fill="white" transform="translate(32 29)"/>
</clipPath>
</defs>
</svg>
