<svg width="48" height="48" viewBox="0 0 48 48" fill="none" xmlns="http://www.w3.org/2000/svg">
<path d="M0.5 24C0.5 18.329 0.501062 14.1261 0.934881 10.8994C1.36677 7.68704 2.2193 5.51725 3.86827 3.86827C5.51725 2.2193 7.68704 1.36677 10.8994 0.934881C14.1261 0.501062 18.329 0.5 24 0.5C29.671 0.5 33.8739 0.501062 37.1006 0.934881C40.313 1.36677 42.4828 2.2193 44.1317 3.86827C45.7807 5.51725 46.6332 7.68704 47.0651 10.8994C47.4989 14.1261 47.5 18.329 47.5 24C47.5 29.671 47.4989 33.8739 47.0651 37.1006C46.6332 40.313 45.7807 42.4828 44.1317 44.1317C42.4828 45.7807 40.313 46.6332 37.1006 47.0651C33.8739 47.4989 29.671 47.5 24 47.5C18.329 47.5 14.1261 47.4989 10.8994 47.0651C7.68704 46.6332 5.51725 45.7807 3.86827 44.1317C2.2193 42.4828 1.36677 40.313 0.934881 37.1006C0.501062 33.8739 0.5 29.671 0.5 24Z" stroke="#457B9D"/>
<path d="M22.5 31.5L15 24M15 24L22.5 16.5M15 24H33" stroke="#457B9D" stroke-width="2" stroke-linecap="round" stroke-linejoin="round"/>
</svg>
