<svg width="393" height="852" viewBox="0 0 393 852" fill="none" xmlns="http://www.w3.org/2000/svg">
<g clip-path="url(#clip0_1119_8896)">
<rect width="393" height="852" fill="#FFF5E8"/>
<path d="M183.237 364.758L148.363 108.495C147.993 105.777 148.74 103 150.555 100.943C179.278 68.4005 211.611 80.3973 227.502 92.9229C229.855 94.7773 230.963 97.678 230.756 100.666C224.538 190.245 213.979 354.718 204.637 351.301C199.156 349.296 195.266 357.6 192.144 366.056C189.504 373.207 184.265 372.311 183.237 364.758Z" fill="url(#paint0_linear_1119_8896)" fill-opacity="0.3"/>
<path d="M174.793 472.751L139.338 718.452C138.927 721.294 139.736 724.199 141.705 726.289C170.79 757.163 203.463 745.875 219.673 733.925C222.178 732.078 223.373 729.062 223.144 725.957C216.809 639.857 206.077 482.416 196.579 485.692C190.964 487.629 186.989 479.544 183.8 471.372C181.086 464.418 175.859 465.363 174.793 472.751Z" fill="url(#paint1_linear_1119_8896)" fill-opacity="0.3"/>
<path d="M232.715 371.093L413.746 184.354C415.654 182.386 418.308 181.254 421.061 181.403C464.932 183.774 475.766 216.704 475.836 236.988C475.846 239.973 474.257 242.631 471.774 244.315C396.954 295.069 260.083 388.958 256.912 379.484C255.043 373.902 245.95 376.044 237.257 378.86C229.986 381.215 227.418 376.558 232.715 371.093Z" fill="url(#paint2_linear_1119_8896)" fill-opacity="0.3"/>
<path d="M139.163 448.232L-71.8484 603.254C-74.2604 605.026 -75.7789 607.778 -75.7831 610.753C-75.8476 656.309 -41.5327 673.223 -19.9266 676.855C-16.7391 677.391 -13.6273 676.089 -11.5334 673.648C47.2683 605.106 155.511 480.375 145.615 475.45C139.447 472.381 142.965 462.489 146.757 453.603C149.623 446.888 145.074 443.89 139.163 448.232Z" fill="url(#paint3_linear_1119_8896)" fill-opacity="0.3"/>
<path d="M142.503 382.685L-52.653 210.487C-54.72 208.663 -55.9675 206.067 -55.9203 203.327C-55.1713 159.824 -22.3813 147.859 -1.92511 147.023C1.09054 146.9 3.84221 148.381 5.64141 150.785C59.6504 222.954 159.482 354.909 150.046 358.405C144.481 360.467 146.993 369.401 150.163 377.908C152.813 385.018 148.216 387.726 142.503 382.685Z" fill="url(#paint4_linear_1119_8896)" fill-opacity="0.3"/>
<g filter="url(#filter0_f_1119_8896)">
<path d="M249.541 400.759L509.282 372.015C511.995 371.715 514.74 372.522 516.748 374.37C548.969 404.02 536.003 436.217 522.947 451.847C521.034 454.137 518.12 455.166 515.15 454.889C424.881 446.462 259.008 431.842 262.69 422.55C264.855 417.084 256.515 412.97 248.03 409.626C240.924 406.825 241.948 401.6 249.541 400.759Z" fill="url(#paint5_linear_1119_8896)" fill-opacity="0.3"/>
</g>
<path d="M249.541 400.759L509.282 372.015C511.995 371.715 514.74 372.522 516.748 374.37C548.969 404.02 536.003 436.217 522.947 451.847C521.034 454.137 518.12 455.166 515.15 454.889C424.881 446.462 259.008 431.842 262.69 422.55C264.855 417.084 256.515 412.97 248.03 409.626C240.924 406.825 241.948 401.6 249.541 400.759Z" fill="url(#paint6_linear_1119_8896)" fill-opacity="0.3"/>
<path d="M131.436 406.934L-113.269 366.064C-116.069 365.596 -118.96 366.319 -121.089 368.199C-152.696 396.122 -142.194 428.607 -130.634 444.871C-128.848 447.384 -125.889 448.629 -122.809 448.48C-36.575 444.322 121.176 437.557 118.13 428.117C116.344 422.579 124.386 418.872 132.569 415.938C139.634 413.405 138.837 408.17 131.436 406.934Z" fill="url(#paint7_linear_1119_8896)" fill-opacity="0.3"/>
<path d="M232.942 447.341L456.051 582.173C458.404 583.595 460.092 585.918 460.54 588.615C467.668 631.566 437.553 649.152 417.575 653.596C414.636 654.25 411.672 653.286 409.476 651.247C343.309 589.819 221.241 477.672 229.894 472.56C234.993 469.547 230.918 461.212 226.267 453.41C222.377 446.885 226.413 443.396 232.942 447.341Z" fill="url(#paint8_linear_1119_8896)" fill-opacity="0.3"/>
<circle cx="197" cy="426" r="84" fill="#FFDFB4"/>
<path d="M54.0116 272.543C54.0104 280.154 43.7843 280.962 46.4404 281.254C52.8619 281.961 53.9171 291.901 54.0116 290.934C54.958 281.254 64.029 281.956 61.5829 281.254C54.5945 279.25 54.0121 269.636 54.0116 272.543Z" fill="#CC9953" stroke="#CC9953" stroke-width="2"/>
<path d="M54.0116 508.543C54.0104 516.154 43.7843 516.962 46.4404 517.254C52.8619 517.961 53.9171 527.901 54.0116 526.934C54.958 517.254 64.029 517.956 61.5829 517.254C54.5945 515.25 54.0121 505.636 54.0116 508.543Z" fill="#CC9953" stroke="#CC9953" stroke-width="2"/>
<path d="M353.012 429.543C353.01 437.154 342.784 437.962 345.44 438.254C351.862 438.961 352.917 448.901 353.012 447.934C353.958 438.254 363.029 438.956 360.583 438.254C353.595 436.25 353.012 426.636 353.012 429.543Z" fill="#CC9953" stroke="#CC9953" stroke-width="2"/>
<path d="M242.012 624.543C242.01 632.154 231.784 632.962 234.44 633.254C240.862 633.961 241.917 643.901 242.012 642.934C242.958 633.254 252.029 633.956 249.583 633.254C242.595 631.25 242.012 621.636 242.012 624.543Z" fill="#CC9953" stroke="#CC9953" stroke-width="2"/>
<path d="M337.012 216.543C337.01 224.154 326.784 224.962 329.44 225.254C335.862 225.961 336.917 235.901 337.012 234.934C337.958 225.254 347.029 225.956 344.583 225.254C337.595 223.25 337.012 213.636 337.012 216.543Z" fill="#CC9953" stroke="#CC9953" stroke-width="2"/>
</g>
<defs>
<filter id="filter0_f_1119_8896" x="239.232" y="367.954" width="301.687" height="90.979" filterUnits="userSpaceOnUse" color-interpolation-filters="sRGB">
<feFlood flood-opacity="0" result="BackgroundImageFix"/>
<feBlend mode="normal" in="SourceGraphic" in2="BackgroundImageFix" result="shape"/>
<feGaussianBlur stdDeviation="2" result="effect1_foregroundBlur_1119_8896"/>
</filter>
<linearGradient id="paint0_linear_1119_8896" x1="189.432" y1="80" x2="189.432" y2="381.588" gradientUnits="userSpaceOnUse">
<stop stop-color="white"/>
<stop offset="1" stop-color="#FFBF68"/>
</linearGradient>
<linearGradient id="paint1_linear_1119_8896" x1="181.098" y1="746.195" x2="181.098" y2="456.61" gradientUnits="userSpaceOnUse">
<stop stop-color="white"/>
<stop offset="1" stop-color="#FFBF68"/>
</linearGradient>
<linearGradient id="paint2_linear_1119_8896" x1="462.12" y1="198.98" x2="225.09" y2="388.488" gradientUnits="userSpaceOnUse">
<stop stop-color="white"/>
<stop offset="1" stop-color="#FFBF68"/>
</linearGradient>
<linearGradient id="paint3_linear_1119_8896" x1="-59.5576" y1="656.055" x2="152.975" y2="439.997" gradientUnits="userSpaceOnUse">
<stop stop-color="white"/>
<stop offset="1" stop-color="#FFBF68"/>
</linearGradient>
<linearGradient id="paint4_linear_1119_8896" x1="-39.7353" y1="162.032" x2="156.092" y2="393.157" gradientUnits="userSpaceOnUse">
<stop stop-color="white"/>
<stop offset="1" stop-color="#FFBF68"/>
</linearGradient>
<linearGradient id="paint5_linear_1119_8896" x1="536.969" y1="413.926" x2="232.491" y2="406.415" gradientUnits="userSpaceOnUse">
<stop stop-color="white"/>
<stop offset="1" stop-color="#FFBF68"/>
</linearGradient>
<linearGradient id="paint6_linear_1119_8896" x1="536.969" y1="413.926" x2="232.491" y2="406.415" gradientUnits="userSpaceOnUse">
<stop stop-color="white"/>
<stop offset="1" stop-color="#FFBF68"/>
</linearGradient>
<linearGradient id="paint7_linear_1119_8896" x1="-141.97" y1="406.554" x2="147.583" y2="413.697" gradientUnits="userSpaceOnUse">
<stop stop-color="white"/>
<stop offset="1" stop-color="#FFBF68"/>
</linearGradient>
<linearGradient id="paint8_linear_1119_8896" x1="452.075" y1="632.126" x2="217.66" y2="439.452" gradientUnits="userSpaceOnUse">
<stop stop-color="white"/>
<stop offset="1" stop-color="#FFBF68"/>
</linearGradient>
<clipPath id="clip0_1119_8896">
<rect width="393" height="852" fill="white"/>
</clipPath>
</defs>
</svg>
